G04 #@! TF.GenerationSoftware,KiCad,Pcbnew,(5.1.5)-3*
G04 #@! TF.CreationDate,2020-05-12T20:02:37-04:00*
G04 #@! TF.ProjectId,6526ESP32,36353236-4553-4503-9332-2e6b69636164,rev?*
G04 #@! TF.SameCoordinates,Original*
G04 #@! TF.FileFunction,Legend,Bot*
G04 #@! TF.FilePolarity,Positive*
%FSLAX46Y46*%
G04 Gerber Fmt 4.6, Leading zero omitted, Abs format (unit mm)*
G04 Created by KiCad (PCBNEW (5.1.5)-3) date 2020-05-12 20:02:37*
%MOMM*%
%LPD*%
G04 APERTURE LIST*
%ADD10C,0.350000*%
%ADD11C,0.500000*%
%ADD12C,0.120000*%
%ADD13C,0.150000*%
G04 APERTURE END LIST*
D10*
X39640857Y-50529285D02*
X41248000Y-50529285D01*
X41569428Y-50422142D01*
X41783714Y-50207857D01*
X41890857Y-49886428D01*
X41890857Y-49672142D01*
X41890857Y-52565000D02*
X40712285Y-52565000D01*
X40498000Y-52457857D01*
X40390857Y-52243571D01*
X40390857Y-51815000D01*
X40498000Y-51600714D01*
X41783714Y-52565000D02*
X41890857Y-52350714D01*
X41890857Y-51815000D01*
X41783714Y-51600714D01*
X41569428Y-51493571D01*
X41355142Y-51493571D01*
X41140857Y-51600714D01*
X41033714Y-51815000D01*
X41033714Y-52350714D01*
X40926571Y-52565000D01*
X40390857Y-53422142D02*
X41890857Y-53957857D01*
X40390857Y-54493571D02*
X41890857Y-53957857D01*
X42426571Y-53743571D01*
X42533714Y-53636428D01*
X42640857Y-53422142D01*
X41783714Y-55243571D02*
X41890857Y-55457857D01*
X41890857Y-55886428D01*
X41783714Y-56100714D01*
X41569428Y-56207857D01*
X41462285Y-56207857D01*
X41248000Y-56100714D01*
X41140857Y-55886428D01*
X41140857Y-55565000D01*
X41033714Y-55350714D01*
X40819428Y-55243571D01*
X40712285Y-55243571D01*
X40498000Y-55350714D01*
X40390857Y-55565000D01*
X40390857Y-55886428D01*
X40498000Y-56100714D01*
X40390857Y-56850714D02*
X40390857Y-57707857D01*
X39640857Y-57172142D02*
X41569428Y-57172142D01*
X41783714Y-57279285D01*
X41890857Y-57493571D01*
X41890857Y-57707857D01*
X41890857Y-58779285D02*
X41783714Y-58565000D01*
X41676571Y-58457857D01*
X41462285Y-58350714D01*
X40819428Y-58350714D01*
X40605142Y-58457857D01*
X40498000Y-58565000D01*
X40390857Y-58779285D01*
X40390857Y-59100714D01*
X40498000Y-59315000D01*
X40605142Y-59422142D01*
X40819428Y-59529285D01*
X41462285Y-59529285D01*
X41676571Y-59422142D01*
X41783714Y-59315000D01*
X41890857Y-59100714D01*
X41890857Y-58779285D01*
X40390857Y-60493571D02*
X41890857Y-60493571D01*
X40605142Y-60493571D02*
X40498000Y-60600714D01*
X40390857Y-60815000D01*
X40390857Y-61136428D01*
X40498000Y-61350714D01*
X40712285Y-61457857D01*
X41890857Y-61457857D01*
X41890857Y-62529285D02*
X40390857Y-62529285D01*
X39640857Y-62529285D02*
X39748000Y-62422142D01*
X39855142Y-62529285D01*
X39748000Y-62636428D01*
X39640857Y-62529285D01*
X39855142Y-62529285D01*
X41890857Y-64565000D02*
X40712285Y-64565000D01*
X40498000Y-64457857D01*
X40390857Y-64243571D01*
X40390857Y-63815000D01*
X40498000Y-63600714D01*
X41783714Y-64565000D02*
X41890857Y-64350714D01*
X41890857Y-63815000D01*
X41783714Y-63600714D01*
X41569428Y-63493571D01*
X41355142Y-63493571D01*
X41140857Y-63600714D01*
X41033714Y-63815000D01*
X41033714Y-64350714D01*
X40926571Y-64565000D01*
X40390857Y-65636428D02*
X41890857Y-65636428D01*
X40605142Y-65636428D02*
X40498000Y-65743571D01*
X40390857Y-65957857D01*
X40390857Y-66279285D01*
X40498000Y-66493571D01*
X40712285Y-66600714D01*
X41890857Y-66600714D01*
X39640857Y-67779285D02*
X40069428Y-67565000D01*
X41783714Y-68636428D02*
X41890857Y-68850714D01*
X41890857Y-69279285D01*
X41783714Y-69493571D01*
X41569428Y-69600714D01*
X41462285Y-69600714D01*
X41248000Y-69493571D01*
X41140857Y-69279285D01*
X41140857Y-68957857D01*
X41033714Y-68743571D01*
X40819428Y-68636428D01*
X40712285Y-68636428D01*
X40498000Y-68743571D01*
X40390857Y-68957857D01*
X40390857Y-69279285D01*
X40498000Y-69493571D01*
X44437285Y-45654285D02*
X44437285Y-46404285D01*
X45615857Y-46725714D02*
X45615857Y-45654285D01*
X43365857Y-45654285D01*
X43365857Y-46725714D01*
X45508714Y-47582857D02*
X45615857Y-47904285D01*
X45615857Y-48440000D01*
X45508714Y-48654285D01*
X45401571Y-48761428D01*
X45187285Y-48868571D01*
X44973000Y-48868571D01*
X44758714Y-48761428D01*
X44651571Y-48654285D01*
X44544428Y-48440000D01*
X44437285Y-48011428D01*
X44330142Y-47797142D01*
X44223000Y-47690000D01*
X44008714Y-47582857D01*
X43794428Y-47582857D01*
X43580142Y-47690000D01*
X43473000Y-47797142D01*
X43365857Y-48011428D01*
X43365857Y-48547142D01*
X43473000Y-48868571D01*
X45615857Y-49832857D02*
X43365857Y-49832857D01*
X43365857Y-50690000D01*
X43473000Y-50904285D01*
X43580142Y-51011428D01*
X43794428Y-51118571D01*
X44115857Y-51118571D01*
X44330142Y-51011428D01*
X44437285Y-50904285D01*
X44544428Y-50690000D01*
X44544428Y-49832857D01*
X43365857Y-51868571D02*
X43365857Y-53261428D01*
X44223000Y-52511428D01*
X44223000Y-52832857D01*
X44330142Y-53047142D01*
X44437285Y-53154285D01*
X44651571Y-53261428D01*
X45187285Y-53261428D01*
X45401571Y-53154285D01*
X45508714Y-53047142D01*
X45615857Y-52832857D01*
X45615857Y-52190000D01*
X45508714Y-51975714D01*
X45401571Y-51868571D01*
X43580142Y-54118571D02*
X43473000Y-54225714D01*
X43365857Y-54440000D01*
X43365857Y-54975714D01*
X43473000Y-55190000D01*
X43580142Y-55297142D01*
X43794428Y-55404285D01*
X44008714Y-55404285D01*
X44330142Y-55297142D01*
X45615857Y-54011428D01*
X45615857Y-55404285D01*
X44758714Y-56368571D02*
X44758714Y-58082857D01*
X45615857Y-59154285D02*
X43365857Y-59154285D01*
X44973000Y-59904285D01*
X43365857Y-60654285D01*
X45615857Y-60654285D01*
X43365857Y-62154285D02*
X43365857Y-62582857D01*
X43473000Y-62797142D01*
X43687285Y-63011428D01*
X44115857Y-63118571D01*
X44865857Y-63118571D01*
X45294428Y-63011428D01*
X45508714Y-62797142D01*
X45615857Y-62582857D01*
X45615857Y-62154285D01*
X45508714Y-61939999D01*
X45294428Y-61725714D01*
X44865857Y-61618571D01*
X44115857Y-61618571D01*
X43687285Y-61725714D01*
X43473000Y-61939999D01*
X43365857Y-62154285D01*
X45508714Y-63975714D02*
X45615857Y-64297142D01*
X45615857Y-64832857D01*
X45508714Y-65047142D01*
X45401571Y-65154285D01*
X45187285Y-65261428D01*
X44973000Y-65261428D01*
X44758714Y-65154285D01*
X44651571Y-65047142D01*
X44544428Y-64832857D01*
X44437285Y-64404285D01*
X44330142Y-64189999D01*
X44223000Y-64082857D01*
X44008714Y-63975714D01*
X43794428Y-63975714D01*
X43580142Y-64082857D01*
X43473000Y-64189999D01*
X43365857Y-64404285D01*
X43365857Y-64939999D01*
X43473000Y-65261428D01*
X43365857Y-67190000D02*
X43365857Y-66761428D01*
X43473000Y-66547142D01*
X43580142Y-66439999D01*
X43901571Y-66225714D01*
X44330142Y-66118571D01*
X45187285Y-66118571D01*
X45401571Y-66225714D01*
X45508714Y-66332857D01*
X45615857Y-66547142D01*
X45615857Y-66975714D01*
X45508714Y-67190000D01*
X45401571Y-67297142D01*
X45187285Y-67404285D01*
X44651571Y-67404285D01*
X44437285Y-67297142D01*
X44330142Y-67190000D01*
X44223000Y-66975714D01*
X44223000Y-66547142D01*
X44330142Y-66332857D01*
X44437285Y-66225714D01*
X44651571Y-66118571D01*
X43365857Y-69440000D02*
X43365857Y-68368571D01*
X44437285Y-68261428D01*
X44330142Y-68368571D01*
X44223000Y-68582857D01*
X44223000Y-69118571D01*
X44330142Y-69332857D01*
X44437285Y-69440000D01*
X44651571Y-69547142D01*
X45187285Y-69547142D01*
X45401571Y-69440000D01*
X45508714Y-69332857D01*
X45615857Y-69118571D01*
X45615857Y-68582857D01*
X45508714Y-68368571D01*
X45401571Y-68261428D01*
X43580142Y-70404285D02*
X43473000Y-70511428D01*
X43365857Y-70725714D01*
X43365857Y-71261428D01*
X43473000Y-71475714D01*
X43580142Y-71582857D01*
X43794428Y-71690000D01*
X44008714Y-71690000D01*
X44330142Y-71582857D01*
X45615857Y-70297142D01*
X45615857Y-71690000D01*
X43365857Y-73618571D02*
X43365857Y-73190000D01*
X43473000Y-72975714D01*
X43580142Y-72868571D01*
X43901571Y-72654285D01*
X44330142Y-72547142D01*
X45187285Y-72547142D01*
X45401571Y-72654285D01*
X45508714Y-72761428D01*
X45615857Y-72975714D01*
X45615857Y-73404285D01*
X45508714Y-73618571D01*
X45401571Y-73725714D01*
X45187285Y-73832857D01*
X44651571Y-73832857D01*
X44437285Y-73725714D01*
X44330142Y-73618571D01*
X44223000Y-73404285D01*
X44223000Y-72975714D01*
X44330142Y-72761428D01*
X44437285Y-72654285D01*
X44651571Y-72547142D01*
D11*
X58451928Y-39070928D02*
X58594785Y-38928071D01*
X58737642Y-38499500D01*
X58737642Y-38213785D01*
X58594785Y-37785214D01*
X58309071Y-37499500D01*
X58023357Y-37356642D01*
X57451928Y-37213785D01*
X57023357Y-37213785D01*
X56451928Y-37356642D01*
X56166214Y-37499500D01*
X55880500Y-37785214D01*
X55737642Y-38213785D01*
X55737642Y-38499500D01*
X55880500Y-38928071D01*
X56023357Y-39070928D01*
X55737642Y-41642357D02*
X55737642Y-41070928D01*
X55880500Y-40785214D01*
X56023357Y-40642357D01*
X56451928Y-40356642D01*
X57023357Y-40213785D01*
X58166214Y-40213785D01*
X58451928Y-40356642D01*
X58594785Y-40499500D01*
X58737642Y-40785214D01*
X58737642Y-41356642D01*
X58594785Y-41642357D01*
X58451928Y-41785214D01*
X58166214Y-41928071D01*
X57451928Y-41928071D01*
X57166214Y-41785214D01*
X57023357Y-41642357D01*
X56880500Y-41356642D01*
X56880500Y-40785214D01*
X57023357Y-40499500D01*
X57166214Y-40356642D01*
X57451928Y-40213785D01*
X56737642Y-44499500D02*
X58737642Y-44499500D01*
X55594785Y-43785214D02*
X57737642Y-43070928D01*
X57737642Y-44928071D01*
X57880500Y-48213785D02*
X57880500Y-49642357D01*
X58737642Y-47928071D02*
X55737642Y-48928071D01*
X58737642Y-49928071D01*
X58737642Y-52213785D02*
X55737642Y-52213785D01*
X58594785Y-52213785D02*
X58737642Y-51928071D01*
X58737642Y-51356642D01*
X58594785Y-51070928D01*
X58451928Y-50928071D01*
X58166214Y-50785214D01*
X57309071Y-50785214D01*
X57023357Y-50928071D01*
X56880500Y-51070928D01*
X56737642Y-51356642D01*
X56737642Y-51928071D01*
X56880500Y-52213785D01*
X58737642Y-54928071D02*
X55737642Y-54928071D01*
X58594785Y-54928071D02*
X58737642Y-54642357D01*
X58737642Y-54070928D01*
X58594785Y-53785214D01*
X58451928Y-53642357D01*
X58166214Y-53499500D01*
X57309071Y-53499500D01*
X57023357Y-53642357D01*
X56880500Y-53785214D01*
X56737642Y-54070928D01*
X56737642Y-54642357D01*
X56880500Y-54928071D01*
X58737642Y-56356642D02*
X56737642Y-56356642D01*
X57309071Y-56356642D02*
X57023357Y-56499500D01*
X56880500Y-56642357D01*
X56737642Y-56928071D01*
X56737642Y-57213785D01*
X58594785Y-59356642D02*
X58737642Y-59070928D01*
X58737642Y-58499500D01*
X58594785Y-58213785D01*
X58309071Y-58070928D01*
X57166214Y-58070928D01*
X56880500Y-58213785D01*
X56737642Y-58499500D01*
X56737642Y-59070928D01*
X56880500Y-59356642D01*
X57166214Y-59499500D01*
X57451928Y-59499500D01*
X57737642Y-58070928D01*
X58594785Y-60642357D02*
X58737642Y-60928071D01*
X58737642Y-61499500D01*
X58594785Y-61785214D01*
X58309071Y-61928071D01*
X58166214Y-61928071D01*
X57880500Y-61785214D01*
X57737642Y-61499500D01*
X57737642Y-61070928D01*
X57594785Y-60785214D01*
X57309071Y-60642357D01*
X57166214Y-60642357D01*
X56880500Y-60785214D01*
X56737642Y-61070928D01*
X56737642Y-61499500D01*
X56880500Y-61785214D01*
X58594785Y-63070928D02*
X58737642Y-63356642D01*
X58737642Y-63928071D01*
X58594785Y-64213785D01*
X58309071Y-64356642D01*
X58166214Y-64356642D01*
X57880500Y-64213785D01*
X57737642Y-63928071D01*
X57737642Y-63499500D01*
X57594785Y-63213785D01*
X57309071Y-63070928D01*
X57166214Y-63070928D01*
X56880500Y-63213785D01*
X56737642Y-63499500D01*
X56737642Y-63928071D01*
X56880500Y-64213785D01*
X58737642Y-69642357D02*
X57309071Y-68642357D01*
X58737642Y-67928071D02*
X55737642Y-67928071D01*
X55737642Y-69070928D01*
X55880500Y-69356642D01*
X56023357Y-69499500D01*
X56309071Y-69642357D01*
X56737642Y-69642357D01*
X57023357Y-69499500D01*
X57166214Y-69356642D01*
X57309071Y-69070928D01*
X57309071Y-67928071D01*
X58737642Y-72213785D02*
X57166214Y-72213785D01*
X56880500Y-72070928D01*
X56737642Y-71785214D01*
X56737642Y-71213785D01*
X56880500Y-70928071D01*
X58594785Y-72213785D02*
X58737642Y-71928071D01*
X58737642Y-71213785D01*
X58594785Y-70928071D01*
X58309071Y-70785214D01*
X58023357Y-70785214D01*
X57737642Y-70928071D01*
X57594785Y-71213785D01*
X57594785Y-71928071D01*
X57451928Y-72213785D01*
X56737642Y-73642357D02*
X58737642Y-73642357D01*
X57023357Y-73642357D02*
X56880500Y-73785214D01*
X56737642Y-74070928D01*
X56737642Y-74499500D01*
X56880500Y-74785214D01*
X57166214Y-74928071D01*
X58737642Y-74928071D01*
X56737642Y-77642357D02*
X59166214Y-77642357D01*
X59451928Y-77499500D01*
X59594785Y-77356642D01*
X59737642Y-77070928D01*
X59737642Y-76642357D01*
X59594785Y-76356642D01*
X58594785Y-77642357D02*
X58737642Y-77356642D01*
X58737642Y-76785214D01*
X58594785Y-76499500D01*
X58451928Y-76356642D01*
X58166214Y-76213785D01*
X57309071Y-76213785D01*
X57023357Y-76356642D01*
X56880500Y-76499500D01*
X56737642Y-76785214D01*
X56737642Y-77356642D01*
X56880500Y-77642357D01*
X58594785Y-80213785D02*
X58737642Y-79928071D01*
X58737642Y-79356642D01*
X58594785Y-79070928D01*
X58309071Y-78928071D01*
X57166214Y-78928071D01*
X56880500Y-79070928D01*
X56737642Y-79356642D01*
X56737642Y-79928071D01*
X56880500Y-80213785D01*
X57166214Y-80356642D01*
X57451928Y-80356642D01*
X57737642Y-78928071D01*
X58451928Y-81642357D02*
X58594785Y-81785214D01*
X58737642Y-81642357D01*
X58594785Y-81499500D01*
X58451928Y-81642357D01*
X58737642Y-81642357D01*
X56880500Y-81642357D02*
X57023357Y-81785214D01*
X57166214Y-81642357D01*
X57023357Y-81499500D01*
X56880500Y-81642357D01*
X57166214Y-81642357D01*
X63594785Y-45356642D02*
X63737642Y-45785214D01*
X63737642Y-46499500D01*
X63594785Y-46785214D01*
X63451928Y-46928071D01*
X63166214Y-47070928D01*
X62880500Y-47070928D01*
X62594785Y-46928071D01*
X62451928Y-46785214D01*
X62309071Y-46499500D01*
X62166214Y-45928071D01*
X62023357Y-45642357D01*
X61880500Y-45499500D01*
X61594785Y-45356642D01*
X61309071Y-45356642D01*
X61023357Y-45499500D01*
X60880500Y-45642357D01*
X60737642Y-45928071D01*
X60737642Y-46642357D01*
X60880500Y-47070928D01*
X60309071Y-46213785D02*
X64166214Y-46213785D01*
X63737642Y-48356642D02*
X60737642Y-48356642D01*
X60737642Y-49070928D01*
X60880500Y-49499500D01*
X61166214Y-49785214D01*
X61451928Y-49928071D01*
X62023357Y-50070928D01*
X62451928Y-50070928D01*
X63023357Y-49928071D01*
X63309071Y-49785214D01*
X63594785Y-49499500D01*
X63737642Y-49070928D01*
X63737642Y-48356642D01*
X63737642Y-51356642D02*
X60737642Y-51356642D01*
X60737642Y-52070928D01*
X60880500Y-52499500D01*
X61166214Y-52785214D01*
X61451928Y-52928071D01*
X62023357Y-53070928D01*
X62451928Y-53070928D01*
X63023357Y-52928071D01*
X63309071Y-52785214D01*
X63594785Y-52499500D01*
X63737642Y-52070928D01*
X63737642Y-51356642D01*
X62023357Y-54785214D02*
X61880500Y-54499500D01*
X61737642Y-54356642D01*
X61451928Y-54213785D01*
X61309071Y-54213785D01*
X61023357Y-54356642D01*
X60880500Y-54499500D01*
X60737642Y-54785214D01*
X60737642Y-55356642D01*
X60880500Y-55642357D01*
X61023357Y-55785214D01*
X61309071Y-55928071D01*
X61451928Y-55928071D01*
X61737642Y-55785214D01*
X61880500Y-55642357D01*
X62023357Y-55356642D01*
X62023357Y-54785214D01*
X62166214Y-54499500D01*
X62309071Y-54356642D01*
X62594785Y-54213785D01*
X63166214Y-54213785D01*
X63451928Y-54356642D01*
X63594785Y-54499500D01*
X63737642Y-54785214D01*
X63737642Y-55356642D01*
X63594785Y-55642357D01*
X63451928Y-55785214D01*
X63166214Y-55928071D01*
X62594785Y-55928071D01*
X62309071Y-55785214D01*
X62166214Y-55642357D01*
X62023357Y-55356642D01*
X60737642Y-57785214D02*
X60737642Y-58070928D01*
X60880500Y-58356642D01*
X61023357Y-58499500D01*
X61309071Y-58642357D01*
X61880500Y-58785214D01*
X62594785Y-58785214D01*
X63166214Y-58642357D01*
X63451928Y-58499500D01*
X63594785Y-58356642D01*
X63737642Y-58070928D01*
X63737642Y-57785214D01*
X63594785Y-57499500D01*
X63451928Y-57356642D01*
X63166214Y-57213785D01*
X62594785Y-57070928D01*
X61880500Y-57070928D01*
X61309071Y-57213785D01*
X61023357Y-57356642D01*
X60880500Y-57499500D01*
X60737642Y-57785214D01*
X62594785Y-60070928D02*
X62594785Y-62356642D01*
X63737642Y-63785214D02*
X60737642Y-63785214D01*
X60737642Y-64499500D01*
X60880500Y-64928071D01*
X61166214Y-65213785D01*
X61451928Y-65356642D01*
X62023357Y-65499500D01*
X62451928Y-65499500D01*
X63023357Y-65356642D01*
X63309071Y-65213785D01*
X63594785Y-64928071D01*
X63737642Y-64499500D01*
X63737642Y-63785214D01*
X63737642Y-66785214D02*
X60737642Y-66785214D01*
X60737642Y-67499500D01*
X60880500Y-67928071D01*
X61166214Y-68213785D01*
X61451928Y-68356642D01*
X62023357Y-68499500D01*
X62451928Y-68499500D01*
X63023357Y-68356642D01*
X63309071Y-68213785D01*
X63594785Y-67928071D01*
X63737642Y-67499500D01*
X63737642Y-66785214D01*
X62166214Y-70785214D02*
X62166214Y-69785214D01*
X63737642Y-69785214D02*
X60737642Y-69785214D01*
X60737642Y-71213785D01*
X62166214Y-73356642D02*
X62166214Y-72356642D01*
X63737642Y-72356642D02*
X60737642Y-72356642D01*
X60737642Y-73785214D01*
D12*
X44720000Y-34230000D02*
G75*
G03X46720000Y-34230000I1000000J0D01*
G01*
X46720000Y-34230000D02*
X52180000Y-34230000D01*
X52180000Y-34230000D02*
X52180000Y-85150000D01*
X52180000Y-85150000D02*
X39260000Y-85150000D01*
X39260000Y-85150000D02*
X39260000Y-34230000D01*
X39260000Y-34230000D02*
X44720000Y-34230000D01*
X70755200Y-85226200D02*
X70755200Y-82566200D01*
X70815200Y-85226200D02*
X70755200Y-85226200D01*
X70815200Y-82566200D02*
X70755200Y-82566200D01*
X70815200Y-85226200D02*
X70815200Y-82566200D01*
X72085200Y-85226200D02*
X73415200Y-85226200D01*
X73415200Y-85226200D02*
X73415200Y-83896200D01*
X73415200Y-82762400D02*
X73415200Y-81432400D01*
X72085200Y-82762400D02*
X73415200Y-82762400D01*
X70815200Y-82762400D02*
X70815200Y-80102400D01*
X70815200Y-80102400D02*
X70755200Y-80102400D01*
X70815200Y-82762400D02*
X70755200Y-82762400D01*
X70755200Y-82762400D02*
X70755200Y-80102400D01*
X70755200Y-79003200D02*
X70755200Y-76343200D01*
X70815200Y-79003200D02*
X70755200Y-79003200D01*
X70815200Y-76343200D02*
X70755200Y-76343200D01*
X70815200Y-79003200D02*
X70815200Y-76343200D01*
X72085200Y-79003200D02*
X73415200Y-79003200D01*
X73415200Y-79003200D02*
X73415200Y-77673200D01*
X73415200Y-75218600D02*
X73415200Y-73888600D01*
X72085200Y-75218600D02*
X73415200Y-75218600D01*
X70815200Y-75218600D02*
X70815200Y-72558600D01*
X70815200Y-72558600D02*
X70755200Y-72558600D01*
X70815200Y-75218600D02*
X70755200Y-75218600D01*
X70755200Y-75218600D02*
X70755200Y-72558600D01*
X58099000Y-36890000D02*
X55439000Y-36890000D01*
X58099000Y-36830000D02*
X58099000Y-36890000D01*
X55439000Y-36830000D02*
X55439000Y-36890000D01*
X58099000Y-36830000D02*
X55439000Y-36830000D01*
X58099000Y-35560000D02*
X58099000Y-34230000D01*
X58099000Y-34230000D02*
X56769000Y-34230000D01*
D13*
X44322904Y-34631380D02*
X44322904Y-35440904D01*
X44275285Y-35536142D01*
X44227666Y-35583761D01*
X44132428Y-35631380D01*
X43941952Y-35631380D01*
X43846714Y-35583761D01*
X43799095Y-35536142D01*
X43751476Y-35440904D01*
X43751476Y-34631380D01*
X43370523Y-34631380D02*
X42703857Y-34631380D01*
X43132428Y-35631380D01*
X70934104Y-84681961D02*
X70791247Y-84729580D01*
X70553152Y-84729580D01*
X70457914Y-84681961D01*
X70410295Y-84634342D01*
X70362676Y-84539104D01*
X70362676Y-84443866D01*
X70410295Y-84348628D01*
X70457914Y-84301009D01*
X70553152Y-84253390D01*
X70743628Y-84205771D01*
X70838866Y-84158152D01*
X70886485Y-84110533D01*
X70934104Y-84015295D01*
X70934104Y-83920057D01*
X70886485Y-83824819D01*
X70838866Y-83777200D01*
X70743628Y-83729580D01*
X70505533Y-83729580D01*
X70362676Y-83777200D01*
X69934104Y-84729580D02*
X69934104Y-83729580D01*
X69553152Y-83729580D01*
X69457914Y-83777200D01*
X69410295Y-83824819D01*
X69362676Y-83920057D01*
X69362676Y-84062914D01*
X69410295Y-84158152D01*
X69457914Y-84205771D01*
X69553152Y-84253390D01*
X69934104Y-84253390D01*
X68410295Y-84729580D02*
X68981723Y-84729580D01*
X68696009Y-84729580D02*
X68696009Y-83729580D01*
X68791247Y-83872438D01*
X68886485Y-83967676D01*
X68981723Y-84015295D01*
X72748685Y-79948066D02*
X72272495Y-79948066D01*
X72843923Y-80233780D02*
X72510590Y-79233780D01*
X72177257Y-80233780D01*
X71939161Y-79233780D02*
X71272495Y-79233780D01*
X71701066Y-80233780D01*
X72799485Y-76188866D02*
X72323295Y-76188866D01*
X72894723Y-76474580D02*
X72561390Y-75474580D01*
X72228057Y-76474580D01*
X71466152Y-75474580D02*
X71656628Y-75474580D01*
X71751866Y-75522200D01*
X71799485Y-75569819D01*
X71894723Y-75712676D01*
X71942342Y-75903152D01*
X71942342Y-76284104D01*
X71894723Y-76379342D01*
X71847104Y-76426961D01*
X71751866Y-76474580D01*
X71561390Y-76474580D01*
X71466152Y-76426961D01*
X71418533Y-76379342D01*
X71370914Y-76284104D01*
X71370914Y-76046009D01*
X71418533Y-75950771D01*
X71466152Y-75903152D01*
X71561390Y-75855533D01*
X71751866Y-75855533D01*
X71847104Y-75903152D01*
X71894723Y-75950771D01*
X71942342Y-76046009D01*
X72672485Y-72150266D02*
X72196295Y-72150266D01*
X72767723Y-72435980D02*
X72434390Y-71435980D01*
X72101057Y-72435980D01*
X71291533Y-71435980D02*
X71767723Y-71435980D01*
X71815342Y-71912171D01*
X71767723Y-71864552D01*
X71672485Y-71816933D01*
X71434390Y-71816933D01*
X71339152Y-71864552D01*
X71291533Y-71912171D01*
X71243914Y-72007409D01*
X71243914Y-72245504D01*
X71291533Y-72340742D01*
X71339152Y-72388361D01*
X71434390Y-72435980D01*
X71672485Y-72435980D01*
X71767723Y-72388361D01*
X71815342Y-72340742D01*
X59667685Y-35675866D02*
X59191495Y-35675866D01*
X59762923Y-35961580D02*
X59429590Y-34961580D01*
X59096257Y-35961580D01*
X58334352Y-35294914D02*
X58334352Y-35961580D01*
X58572447Y-34913961D02*
X58810542Y-35628247D01*
X58191495Y-35628247D01*
M02*
