G04 #@! TF.GenerationSoftware,KiCad,Pcbnew,(5.1.5)-3*
G04 #@! TF.CreationDate,2020-05-12T20:02:37-04:00*
G04 #@! TF.ProjectId,6526ESP32,36353236-4553-4503-9332-2e6b69636164,rev?*
G04 #@! TF.SameCoordinates,Original*
G04 #@! TF.FileFunction,Copper,L2,Inr*
G04 #@! TF.FilePolarity,Positive*
%FSLAX46Y46*%
G04 Gerber Fmt 4.6, Leading zero omitted, Abs format (unit mm)*
G04 Created by KiCad (PCBNEW (5.1.5)-3) date 2020-05-12 20:02:37*
%MOMM*%
%LPD*%
G04 APERTURE LIST*
%ADD10R,1.600000X1.600000*%
%ADD11O,1.600000X1.600000*%
%ADD12R,1.700000X1.700000*%
%ADD13O,1.700000X1.700000*%
%ADD14C,0.350000*%
%ADD15C,0.800000*%
%ADD16C,0.434000*%
%ADD17C,0.750000*%
%ADD18C,0.539000*%
%ADD19C,0.254000*%
G04 APERTURE END LIST*
D10*
X38100000Y-35560000D03*
D11*
X53340000Y-83820000D03*
X38100000Y-38100000D03*
X53340000Y-81280000D03*
X38100000Y-40640000D03*
X53340000Y-78740000D03*
X38100000Y-43180000D03*
X53340000Y-76200000D03*
X38100000Y-45720000D03*
X53340000Y-73660000D03*
X38100000Y-48260000D03*
X53340000Y-71120000D03*
X38100000Y-50800000D03*
X53340000Y-68580000D03*
X38100000Y-53340000D03*
X53340000Y-66040000D03*
X38100000Y-55880000D03*
X53340000Y-63500000D03*
X38100000Y-58420000D03*
X53340000Y-60960000D03*
X38100000Y-60960000D03*
X53340000Y-58420000D03*
X38100000Y-63500000D03*
X53340000Y-55880000D03*
X38100000Y-66040000D03*
X53340000Y-53340000D03*
X38100000Y-68580000D03*
X53340000Y-50800000D03*
X38100000Y-71120000D03*
X53340000Y-48260000D03*
X38100000Y-73660000D03*
X53340000Y-45720000D03*
X38100000Y-76200000D03*
X53340000Y-43180000D03*
X38100000Y-78740000D03*
X53340000Y-40640000D03*
X38100000Y-81280000D03*
X53340000Y-38100000D03*
X38100000Y-83820000D03*
X53340000Y-35560000D03*
D12*
X72085200Y-83896200D03*
X72085200Y-81432400D03*
X72085200Y-77673200D03*
X72085200Y-73888600D03*
X56769000Y-35560000D03*
D11*
X66040000Y-35560000D03*
X50800000Y-83820000D03*
X66040000Y-38100000D03*
X50800000Y-81280000D03*
X66040000Y-40640000D03*
X50800000Y-78740000D03*
X66040000Y-43180000D03*
X50800000Y-76200000D03*
X66040000Y-45720000D03*
X50800000Y-73660000D03*
X66040000Y-48260000D03*
X50800000Y-71120000D03*
X66040000Y-50800000D03*
X50800000Y-68580000D03*
X66040000Y-53340000D03*
X50800000Y-66040000D03*
X66040000Y-55880000D03*
X50800000Y-63500000D03*
X66040000Y-58420000D03*
X50800000Y-60960000D03*
X66040000Y-60960000D03*
X50800000Y-58420000D03*
X66040000Y-63500000D03*
X50800000Y-55880000D03*
X66040000Y-66040000D03*
X50800000Y-53340000D03*
X66040000Y-68580000D03*
X50800000Y-50800000D03*
X66040000Y-71120000D03*
X50800000Y-48260000D03*
X66040000Y-73660000D03*
X50800000Y-45720000D03*
X66040000Y-76200000D03*
X50800000Y-43180000D03*
X66040000Y-78740000D03*
X50800000Y-40640000D03*
X66040000Y-81280000D03*
X50800000Y-38100000D03*
X66040000Y-83820000D03*
D10*
X50800000Y-35560000D03*
D12*
X46990000Y-36830000D03*
D13*
X69850000Y-80010000D03*
X46990000Y-39370000D03*
X69850000Y-77470000D03*
X46990000Y-41910000D03*
X69850000Y-74930000D03*
X46990000Y-44450000D03*
X69850000Y-72390000D03*
X46990000Y-46990000D03*
X69850000Y-69850000D03*
X46990000Y-49530000D03*
X69850000Y-67310000D03*
X46990000Y-52070000D03*
X69850000Y-64770000D03*
X46990000Y-54610000D03*
X69850000Y-62230000D03*
X46990000Y-57150000D03*
X69850000Y-59690000D03*
X46990000Y-59690000D03*
X69850000Y-57150000D03*
X46990000Y-62230000D03*
X69850000Y-54610000D03*
X46990000Y-64770000D03*
X69850000Y-52070000D03*
X46990000Y-67310000D03*
X69850000Y-49530000D03*
X46990000Y-69850000D03*
X69850000Y-46990000D03*
X46990000Y-72390000D03*
X69850000Y-44450000D03*
X46990000Y-74930000D03*
X69850000Y-41910000D03*
X46990000Y-77470000D03*
X69850000Y-39370000D03*
X46990000Y-80010000D03*
X69850000Y-36830000D03*
X46990000Y-82550000D03*
X69850000Y-82550000D03*
D14*
X61912500Y-46355000D03*
X61912500Y-38989000D03*
X61912500Y-51689000D03*
X62039500Y-64389000D03*
X40068500Y-43878500D03*
X40195500Y-47244000D03*
X40195500Y-74485500D03*
X60515500Y-74485500D03*
X63119000Y-76835000D03*
X40214000Y-71863500D03*
D15*
X56197500Y-60007500D03*
X68199000Y-49149000D03*
X49466500Y-39370000D03*
D14*
X69166419Y-65961581D03*
X70462599Y-66037001D03*
X70470081Y-60974919D03*
X69141799Y-60957001D03*
X63944500Y-46355000D03*
X57848500Y-46418500D03*
X61912500Y-44323000D03*
X61912500Y-56959500D03*
X63119000Y-69659500D03*
X42799000Y-43815000D03*
X44196000Y-52070000D03*
X43243500Y-55245000D03*
X43370500Y-71755000D03*
X44259500Y-80391000D03*
X57213500Y-80645000D03*
X58229500Y-74358500D03*
X63373000Y-74358500D03*
X56007000Y-38989000D03*
X55181500Y-46418500D03*
X55943500Y-51689000D03*
X57213500Y-64389000D03*
X55499000Y-74422000D03*
X61912500Y-80645000D03*
X60198000Y-80645000D03*
X40214000Y-54320000D03*
X62928500Y-65024000D03*
X68453000Y-78994000D03*
X43497500Y-74485500D03*
X40864000Y-79785000D03*
X64135000Y-43815000D03*
X63182500Y-42227500D03*
X63182500Y-41592500D03*
X49339500Y-76835000D03*
X61849000Y-78105000D03*
X49339500Y-79375000D03*
X42164000Y-78105000D03*
X44069000Y-78105000D03*
X56007000Y-67627500D03*
X45722999Y-73022001D03*
X54784143Y-69833643D03*
X45722999Y-50167999D03*
X61340010Y-64262000D03*
X45085000Y-43180000D03*
X64120000Y-67691000D03*
X61849000Y-66357500D03*
X54673500Y-66421000D03*
X64790501Y-71734499D03*
X63944500Y-71755000D03*
X60706000Y-69214010D03*
X61849000Y-67627500D03*
X41529000Y-35560000D03*
X40830500Y-47371000D03*
X40830500Y-76200000D03*
X64822999Y-62875501D03*
X58102500Y-51816000D03*
X57467500Y-62865000D03*
X55943500Y-52387500D03*
X48260000Y-56515000D03*
X54546500Y-56515000D03*
X56642000Y-54292500D03*
X56642000Y-57785000D03*
X55308500Y-62230000D03*
X58166000Y-59690000D03*
X57277000Y-54927500D03*
X68506000Y-54747500D03*
X56007000Y-59055000D03*
X64833500Y-59055000D03*
X58547000Y-46990000D03*
X60071000Y-71120000D03*
X60706000Y-68580000D03*
X64198500Y-56884898D03*
X64198500Y-66040000D03*
X59436000Y-63500000D03*
X58801000Y-60960000D03*
X60452000Y-48260000D03*
X67373500Y-50927000D03*
X61087000Y-43817000D03*
X61087000Y-48895000D03*
X59183980Y-54100020D03*
X58801000Y-66992500D03*
X66624200Y-67310000D03*
X59817000Y-52705000D03*
X49403000Y-47625000D03*
X72385021Y-44137479D03*
X71729600Y-70637400D03*
X64643000Y-47625000D03*
X55054500Y-40957500D03*
X55773501Y-47604499D03*
X71117001Y-42801999D03*
X57663602Y-39650000D03*
X68008500Y-40767000D03*
X71751011Y-43564989D03*
X67500500Y-36703000D03*
X59309000Y-36766500D03*
X60960000Y-83820000D03*
X59499500Y-82486500D03*
X67437000Y-81788000D03*
X55943500Y-78740000D03*
D16*
X63198001Y-74533499D02*
X63373000Y-74358500D01*
X62653999Y-75077501D02*
X63198001Y-74533499D01*
X58701014Y-75077501D02*
X62653999Y-75077501D01*
X58229500Y-74358500D02*
X58229500Y-74605987D01*
D17*
X58701014Y-75077501D02*
X58229500Y-74605987D01*
X63279490Y-74452010D02*
X63373000Y-74452010D01*
X62495999Y-75235501D02*
X63279490Y-74452010D01*
X60155499Y-75235501D02*
X62495999Y-75235501D01*
X58701014Y-75077501D02*
X59997499Y-75077501D01*
X59997499Y-75077501D02*
X60155499Y-75235501D01*
X58323010Y-74452010D02*
X58229500Y-74452010D01*
X58701014Y-75077501D02*
X58701014Y-74830014D01*
X58701014Y-74830014D02*
X58323010Y-74452010D01*
D18*
X62159987Y-80645000D02*
X61912500Y-80645000D01*
X63974500Y-80645000D02*
X62159987Y-80645000D01*
X67310499Y-80010499D02*
X64609001Y-80010499D01*
X64609001Y-80010499D02*
X63974500Y-80645000D01*
X69850000Y-82550000D02*
X67310499Y-80010499D01*
X61912500Y-80645000D02*
X60198000Y-80645000D01*
D16*
X63129501Y-64822999D02*
X66624161Y-64822999D01*
X62928500Y-65024000D02*
X63129501Y-64822999D01*
X67258210Y-65457048D02*
X66624161Y-64822999D01*
X67258210Y-76155835D02*
X67258210Y-65457048D01*
X67513200Y-76410825D02*
X67258210Y-76155835D01*
X67513200Y-78054200D02*
X67513200Y-76410825D01*
X68453000Y-78994000D02*
X67513200Y-78054200D01*
X69244838Y-78740000D02*
X71018400Y-78740000D01*
X68275200Y-77770362D02*
X69244838Y-78740000D01*
X71018400Y-78740000D02*
X72085200Y-77673200D01*
X69241839Y-63502999D02*
X68275200Y-64469638D01*
X68021839Y-44502999D02*
X69241839Y-45722999D01*
X64135000Y-43815000D02*
X64822999Y-44502999D01*
X69241839Y-45722999D02*
X70614999Y-45722999D01*
X64822999Y-44502999D02*
X68021839Y-44502999D01*
X70614999Y-45722999D02*
X70614999Y-45879837D01*
X70614999Y-45879837D02*
X71751011Y-47015849D01*
X71751011Y-47015849D02*
X71751011Y-51184989D01*
X70452163Y-63502999D02*
X69241839Y-63502999D01*
X71751011Y-51184989D02*
X71450200Y-51485800D01*
X71450200Y-51485800D02*
X71450200Y-62504962D01*
X71450200Y-62504962D02*
X70452163Y-63502999D01*
X67948989Y-71519224D02*
X67948989Y-75949989D01*
X68275200Y-64469638D02*
X68275200Y-71193013D01*
X68275200Y-71193013D02*
X67948989Y-71519224D01*
X68275200Y-76276200D02*
X68275200Y-77770362D01*
X67948989Y-75949989D02*
X68275200Y-76276200D01*
X72085200Y-71544175D02*
X72085200Y-73888600D01*
X72085200Y-71178425D02*
X72085200Y-71544175D01*
X72363610Y-70374785D02*
X72363610Y-70900015D01*
X72085200Y-70096375D02*
X72363610Y-70374785D01*
X72085200Y-62768567D02*
X72085200Y-70096375D01*
X65455839Y-41962999D02*
X66624161Y-41962999D01*
X65000838Y-42418000D02*
X65455839Y-41962999D01*
X72084210Y-62767577D02*
X72085200Y-62768567D01*
X63182500Y-42227500D02*
X63373000Y-42418000D01*
X66624161Y-41962999D02*
X67844161Y-43182999D01*
X67844161Y-43182999D02*
X70458161Y-43182999D01*
X70458161Y-43182999D02*
X72385021Y-45109859D01*
X72385021Y-45109859D02*
X72385021Y-51447604D01*
X72385021Y-51447604D02*
X72084210Y-51748415D01*
X72363610Y-70900015D02*
X72085200Y-71178425D01*
X63373000Y-42418000D02*
X65000838Y-42418000D01*
X72084210Y-51748415D02*
X72084210Y-62767577D01*
X49921501Y-77417001D02*
X60145001Y-77417001D01*
X49339500Y-76835000D02*
X49921501Y-77417001D01*
X60145001Y-77417001D02*
X60833000Y-78105000D01*
X60833000Y-78105000D02*
X61849000Y-78105000D01*
X63691629Y-79957001D02*
X49921501Y-79957001D01*
X66040000Y-78740000D02*
X64908630Y-78740000D01*
X64908630Y-78740000D02*
X63691629Y-79957001D01*
X49921501Y-79957001D02*
X49339500Y-79375000D01*
X47595162Y-43180000D02*
X50800000Y-43180000D01*
X38100000Y-43180000D02*
X47595162Y-43180000D01*
X53340000Y-38100000D02*
X66040000Y-38100000D01*
X38100000Y-58420000D02*
X50800000Y-58420000D01*
X54717489Y-66357500D02*
X54673500Y-66401489D01*
X61849000Y-66357500D02*
X54717489Y-66357500D01*
X53340000Y-76200000D02*
X66040000Y-76200000D01*
X38100000Y-73660000D02*
X50800000Y-73660000D01*
X50800000Y-73660000D02*
X52122999Y-72337001D01*
X52122999Y-72337001D02*
X53924161Y-72337001D01*
X53924161Y-72337001D02*
X54507152Y-71754010D01*
X54507152Y-71754010D02*
X63943510Y-71754010D01*
X47595162Y-68580000D02*
X50800000Y-68580000D01*
X38100000Y-68580000D02*
X47595162Y-68580000D01*
X52017001Y-69797001D02*
X53924161Y-69797001D01*
X50800000Y-68580000D02*
X52017001Y-69797001D01*
X53924161Y-69797001D02*
X54507152Y-69214010D01*
X54507152Y-69214010D02*
X60706000Y-69214010D01*
X38100000Y-60960000D02*
X50800000Y-60960000D01*
X50800000Y-62091370D02*
X50800000Y-60960000D01*
X50991629Y-62282999D02*
X50800000Y-62091370D01*
X51384161Y-62282999D02*
X50991629Y-62282999D01*
X52017001Y-62915839D02*
X51384161Y-62282999D01*
X52017001Y-66518163D02*
X52017001Y-62915839D01*
X61849000Y-67627500D02*
X56883162Y-67627500D01*
X56291161Y-67035499D02*
X54145663Y-67035499D01*
X54145663Y-67035499D02*
X53871162Y-67310000D01*
X53871162Y-67310000D02*
X52808838Y-67310000D01*
X56883162Y-67627500D02*
X56291161Y-67035499D01*
X52808838Y-67310000D02*
X52017001Y-66518163D01*
X49493601Y-36882999D02*
X48170602Y-35560000D01*
X53340000Y-35560000D02*
X52017001Y-36882999D01*
X52017001Y-36882999D02*
X49493601Y-36882999D01*
X48170602Y-35560000D02*
X41529000Y-35560000D01*
X65405000Y-36195000D02*
X66040000Y-35560000D01*
X65143376Y-36195000D02*
X65405000Y-36195000D01*
X60586624Y-36830000D02*
X64508376Y-36830000D01*
X59889115Y-36132490D02*
X60586624Y-36830000D01*
X64508376Y-36830000D02*
X65143376Y-36195000D01*
X54471370Y-35712972D02*
X55715398Y-36957000D01*
X59046385Y-36132490D02*
X59889115Y-36132490D01*
X58221875Y-36957000D02*
X59046385Y-36132490D01*
X55715398Y-36957000D02*
X58221875Y-36957000D01*
X53492972Y-35712972D02*
X53340000Y-35560000D01*
X54471370Y-35712972D02*
X53492972Y-35712972D01*
X47595162Y-76200000D02*
X50800000Y-76200000D01*
X38100000Y-76200000D02*
X47595162Y-76200000D01*
X64812498Y-62865000D02*
X64822999Y-62875501D01*
X57467500Y-62865000D02*
X64812498Y-62865000D01*
X48842001Y-57097001D02*
X53964499Y-57097001D01*
X48260000Y-56515000D02*
X48842001Y-57097001D01*
X53964499Y-57097001D02*
X54546500Y-56515000D01*
X64809560Y-57150000D02*
X69850000Y-57150000D01*
X56642000Y-57785000D02*
X64174560Y-57785000D01*
X64174560Y-57785000D02*
X64809560Y-57150000D01*
X55308500Y-62230000D02*
X69850000Y-62230000D01*
X69850000Y-59690000D02*
X58166000Y-59690000D01*
X57277000Y-54927500D02*
X65191338Y-54927500D01*
X65191338Y-54927500D02*
X65561837Y-54557001D01*
X65561837Y-54557001D02*
X68315500Y-54557001D01*
X68315500Y-54557001D02*
X68506000Y-54747500D01*
X68506000Y-54747500D02*
X68506000Y-54747501D01*
X56007000Y-59055000D02*
X64833500Y-59055000D01*
X67257001Y-47675839D02*
X66591663Y-47010501D01*
X64885114Y-46970489D02*
X58547000Y-46970489D01*
X66591663Y-47010501D02*
X64925126Y-47010501D01*
X64925126Y-47010501D02*
X64885114Y-46970489D01*
X70699999Y-51220001D02*
X69850000Y-52070000D01*
X71117001Y-50802999D02*
X70699999Y-51220001D01*
X70458161Y-48262999D02*
X71117001Y-48921839D01*
X69247837Y-48262999D02*
X70458161Y-48262999D01*
X68660677Y-47675839D02*
X69247837Y-48262999D01*
X71117001Y-48921839D02*
X71117001Y-50802999D01*
X67257001Y-47675839D02*
X68660677Y-47675839D01*
X53340000Y-71120000D02*
X60071000Y-71120000D01*
X60071000Y-71120000D02*
X66040000Y-71120000D01*
X53340000Y-68580000D02*
X66040000Y-68580000D01*
X66040000Y-66040000D02*
X64198500Y-66040000D01*
X53721000Y-65659000D02*
X53340000Y-66040000D01*
X64023501Y-65865001D02*
X63960001Y-65865001D01*
X64198500Y-66040000D02*
X64023501Y-65865001D01*
X63960001Y-65865001D02*
X63753008Y-65658008D01*
X63753008Y-65658008D02*
X56134992Y-65658008D01*
X56134992Y-65658008D02*
X56134000Y-65659000D01*
X56134000Y-65659000D02*
X53721000Y-65659000D01*
X65095125Y-63500000D02*
X66040000Y-63500000D01*
X65085614Y-63509511D02*
X65095125Y-63500000D01*
X55310386Y-63509511D02*
X65085614Y-63509511D01*
X55300875Y-63500000D02*
X55310386Y-63509511D01*
X53340000Y-63500000D02*
X55300875Y-63500000D01*
X53340000Y-60960000D02*
X58801000Y-60960000D01*
X58801000Y-60960000D02*
X66040000Y-60960000D01*
X53340000Y-58420000D02*
X66040000Y-58420000D01*
X53340000Y-55880000D02*
X66040000Y-55880000D01*
X53340000Y-53340000D02*
X66040000Y-53340000D01*
X64908630Y-40640000D02*
X66040000Y-40640000D01*
X63258838Y-40640000D02*
X64908630Y-40640000D01*
X62349337Y-41549501D02*
X63258838Y-40640000D01*
X54770339Y-41549501D02*
X62349337Y-41549501D01*
X53860838Y-40640000D02*
X54770339Y-41549501D01*
X53340000Y-40640000D02*
X53860838Y-40640000D01*
X53340000Y-43180000D02*
X66040000Y-43180000D01*
X53340000Y-45720000D02*
X66040000Y-45720000D01*
X53340000Y-48260000D02*
X66040000Y-48260000D01*
X67373500Y-50332338D02*
X67373500Y-50927000D01*
X66518163Y-49477001D02*
X67373500Y-50332338D01*
X65455839Y-49477001D02*
X66518163Y-49477001D01*
X64873838Y-48895000D02*
X65455839Y-49477001D01*
X61087000Y-48895000D02*
X64873838Y-48895000D01*
X65405000Y-81915000D02*
X66040000Y-81280000D01*
X65405000Y-81968989D02*
X65405000Y-81915000D01*
X60135490Y-81852490D02*
X60251989Y-81968989D01*
X54471370Y-81280000D02*
X55360370Y-82169000D01*
X53340000Y-81280000D02*
X54471370Y-81280000D01*
X55360370Y-82169000D02*
X58920375Y-82169000D01*
X58920375Y-82169000D02*
X59236885Y-81852490D01*
X60251989Y-81968989D02*
X65405000Y-81968989D01*
X59236885Y-81852490D02*
X60135490Y-81852490D01*
X65508838Y-67310000D02*
X66624200Y-67310000D01*
X58801000Y-66992500D02*
X65191338Y-66992500D01*
X65191338Y-66992500D02*
X65508838Y-67310000D01*
X64399501Y-52122999D02*
X63817500Y-52705000D01*
X66778122Y-52122999D02*
X64399501Y-52122999D01*
X69850000Y-54610000D02*
X69265123Y-54610000D01*
X69265123Y-54610000D02*
X66778122Y-52122999D01*
X63690500Y-52705000D02*
X63689510Y-52705990D01*
X63817500Y-52705000D02*
X63690500Y-52705000D01*
X63689510Y-52705990D02*
X59817000Y-52705000D01*
X69000001Y-74080001D02*
X69850000Y-74930000D01*
X68582999Y-73662999D02*
X69000001Y-74080001D01*
X68582999Y-71781839D02*
X68582999Y-73662999D01*
X69247837Y-71117001D02*
X68582999Y-71781839D01*
X70458161Y-71117001D02*
X69247837Y-71117001D01*
X70937762Y-70637400D02*
X70458161Y-71117001D01*
X71729600Y-70637400D02*
X70937762Y-70637400D01*
X64622499Y-47604499D02*
X64643000Y-47625000D01*
X55773501Y-47604499D02*
X64622499Y-47604499D01*
X59309000Y-36766500D02*
X59319501Y-36777001D01*
X59309000Y-36766500D02*
X59626500Y-36766500D01*
X59626500Y-36766500D02*
X60325000Y-37465000D01*
X60325000Y-37465000D02*
X64770000Y-37465000D01*
X65357001Y-36877999D02*
X67325501Y-36877999D01*
X67325501Y-36877999D02*
X67500500Y-36703000D01*
X64770000Y-37465000D02*
X65357001Y-36877999D01*
X53340000Y-50800000D02*
X66040000Y-50800000D01*
X53340000Y-83820000D02*
X66040000Y-83820000D01*
X53340000Y-73660000D02*
X66040000Y-73660000D01*
X59499500Y-82486500D02*
X59510001Y-82497001D01*
X59746987Y-82486500D02*
X59499500Y-82486500D01*
X59863486Y-82602999D02*
X59746987Y-82486500D01*
X59989374Y-82602999D02*
X66749001Y-82602999D01*
X59746987Y-82486500D02*
X59872875Y-82486500D01*
X59872875Y-82486500D02*
X59989374Y-82602999D01*
X66749001Y-82602999D02*
X67437000Y-81915000D01*
X67437000Y-81915000D02*
X67437000Y-81788000D01*
X67437000Y-81788000D02*
X67437000Y-81788000D01*
X38100000Y-38100000D02*
X50800000Y-38100000D01*
X47595162Y-40640000D02*
X50800000Y-40640000D01*
X38100000Y-40640000D02*
X47595162Y-40640000D01*
X38100000Y-45720000D02*
X50800000Y-45720000D01*
X38100000Y-48260000D02*
X50800000Y-48260000D01*
X38100000Y-50800000D02*
X50800000Y-50800000D01*
X38100000Y-53340000D02*
X50800000Y-53340000D01*
X47595162Y-55880000D02*
X50800000Y-55880000D01*
X38100000Y-55880000D02*
X47595162Y-55880000D01*
X38100000Y-63500000D02*
X50800000Y-63500000D01*
X38100000Y-66040000D02*
X50800000Y-66040000D01*
X38100000Y-71120000D02*
X50800000Y-71120000D01*
X47595162Y-78740000D02*
X50800000Y-78740000D01*
X38100000Y-78740000D02*
X47595162Y-78740000D01*
X38100000Y-81280000D02*
X50800000Y-81280000D01*
D19*
G36*
X68050920Y-79437619D02*
G01*
X68119161Y-79493624D01*
X68223048Y-79549153D01*
X68335771Y-79583346D01*
X68453000Y-79594893D01*
X68570228Y-79583346D01*
X68682951Y-79549153D01*
X68715720Y-79531638D01*
X68666307Y-79650931D01*
X68619000Y-79888757D01*
X68619000Y-80131243D01*
X68666307Y-80369069D01*
X68759102Y-80593097D01*
X68893820Y-80794717D01*
X69065283Y-80966180D01*
X69266903Y-81100898D01*
X69381168Y-81148228D01*
X69218748Y-81205843D01*
X68968645Y-81354822D01*
X68752412Y-81549731D01*
X68578359Y-81783080D01*
X68453175Y-82045901D01*
X68408524Y-82193110D01*
X68529845Y-82423000D01*
X69723000Y-82423000D01*
X69723000Y-82403000D01*
X69977000Y-82403000D01*
X69977000Y-82423000D01*
X69997000Y-82423000D01*
X69997000Y-82677000D01*
X69977000Y-82677000D01*
X69977000Y-83870814D01*
X70206891Y-83991481D01*
X70481252Y-83894157D01*
X70731355Y-83745178D01*
X70852357Y-83636109D01*
X70852357Y-84430000D01*
X67052787Y-84430000D01*
X67086588Y-84379413D01*
X67175614Y-84164485D01*
X67221000Y-83936318D01*
X67221000Y-83703682D01*
X67175614Y-83475515D01*
X67086588Y-83260587D01*
X67007830Y-83142717D01*
X67082839Y-83102623D01*
X67173897Y-83027895D01*
X67192627Y-83005072D01*
X67290809Y-82906890D01*
X68408524Y-82906890D01*
X68453175Y-83054099D01*
X68578359Y-83316920D01*
X68752412Y-83550269D01*
X68968645Y-83745178D01*
X69218748Y-83894157D01*
X69493109Y-83991481D01*
X69723000Y-83870814D01*
X69723000Y-82677000D01*
X68529845Y-82677000D01*
X68408524Y-82906890D01*
X67290809Y-82906890D01*
X67839081Y-82358619D01*
X67861896Y-82339896D01*
X67904794Y-82287624D01*
X67936624Y-82248839D01*
X67992153Y-82144952D01*
X68007329Y-82094922D01*
X68026347Y-82032228D01*
X68034262Y-81951867D01*
X68037894Y-81915000D01*
X68035000Y-81885622D01*
X68035000Y-81817373D01*
X68037893Y-81788000D01*
X68026347Y-81670772D01*
X67992153Y-81558048D01*
X67936624Y-81454162D01*
X67861896Y-81363104D01*
X67770838Y-81288376D01*
X67666952Y-81232847D01*
X67554228Y-81198653D01*
X67466373Y-81190000D01*
X67437000Y-81187107D01*
X67407627Y-81190000D01*
X67319772Y-81198653D01*
X67221000Y-81228615D01*
X67221000Y-81163682D01*
X67175614Y-80935515D01*
X67086588Y-80720587D01*
X66957342Y-80527157D01*
X66792843Y-80362658D01*
X66599413Y-80233412D01*
X66384485Y-80144386D01*
X66156318Y-80099000D01*
X65923682Y-80099000D01*
X65695515Y-80144386D01*
X65480587Y-80233412D01*
X65287157Y-80362658D01*
X65122658Y-80527157D01*
X64993412Y-80720587D01*
X64904386Y-80935515D01*
X64859000Y-81163682D01*
X64859000Y-81370989D01*
X60491411Y-81370989D01*
X60469328Y-81352866D01*
X60365442Y-81297337D01*
X60252718Y-81263143D01*
X60164863Y-81254490D01*
X60164860Y-81254490D01*
X60135490Y-81251597D01*
X60106120Y-81254490D01*
X59266255Y-81254490D01*
X59236885Y-81251597D01*
X59207514Y-81254490D01*
X59207512Y-81254490D01*
X59119657Y-81263143D01*
X59006933Y-81297337D01*
X58903047Y-81352866D01*
X58811989Y-81427594D01*
X58793255Y-81450422D01*
X58672677Y-81571000D01*
X55608069Y-81571000D01*
X54914996Y-80877927D01*
X54896266Y-80855104D01*
X54805208Y-80780376D01*
X54701322Y-80724847D01*
X54588598Y-80690653D01*
X54500743Y-80682000D01*
X54500740Y-80682000D01*
X54471370Y-80679107D01*
X54442000Y-80682000D01*
X54360805Y-80682000D01*
X54275947Y-80555001D01*
X56664509Y-80555001D01*
X56657500Y-80590239D01*
X56657500Y-80699761D01*
X56678867Y-80807179D01*
X56720779Y-80908365D01*
X56781627Y-80999429D01*
X56859071Y-81076873D01*
X56950135Y-81137721D01*
X57051321Y-81179633D01*
X57158739Y-81201000D01*
X57268261Y-81201000D01*
X57375679Y-81179633D01*
X57476865Y-81137721D01*
X57567929Y-81076873D01*
X57645373Y-80999429D01*
X57706221Y-80908365D01*
X57748133Y-80807179D01*
X57769500Y-80699761D01*
X57769500Y-80590239D01*
X57762491Y-80555001D01*
X63662259Y-80555001D01*
X63691629Y-80557894D01*
X63720999Y-80555001D01*
X63721002Y-80555001D01*
X63808857Y-80546348D01*
X63921581Y-80512154D01*
X64025467Y-80456625D01*
X64116525Y-80381897D01*
X64135255Y-80359074D01*
X65074124Y-79420206D01*
X65122658Y-79492843D01*
X65287157Y-79657342D01*
X65480587Y-79786588D01*
X65695515Y-79875614D01*
X65923682Y-79921000D01*
X66156318Y-79921000D01*
X66384485Y-79875614D01*
X66599413Y-79786588D01*
X66792843Y-79657342D01*
X66957342Y-79492843D01*
X67086588Y-79299413D01*
X67175614Y-79084485D01*
X67221000Y-78856318D01*
X67221000Y-78623682D01*
X67217031Y-78603730D01*
X68050920Y-79437619D01*
G37*
X68050920Y-79437619D02*
X68119161Y-79493624D01*
X68223048Y-79549153D01*
X68335771Y-79583346D01*
X68453000Y-79594893D01*
X68570228Y-79583346D01*
X68682951Y-79549153D01*
X68715720Y-79531638D01*
X68666307Y-79650931D01*
X68619000Y-79888757D01*
X68619000Y-80131243D01*
X68666307Y-80369069D01*
X68759102Y-80593097D01*
X68893820Y-80794717D01*
X69065283Y-80966180D01*
X69266903Y-81100898D01*
X69381168Y-81148228D01*
X69218748Y-81205843D01*
X68968645Y-81354822D01*
X68752412Y-81549731D01*
X68578359Y-81783080D01*
X68453175Y-82045901D01*
X68408524Y-82193110D01*
X68529845Y-82423000D01*
X69723000Y-82423000D01*
X69723000Y-82403000D01*
X69977000Y-82403000D01*
X69977000Y-82423000D01*
X69997000Y-82423000D01*
X69997000Y-82677000D01*
X69977000Y-82677000D01*
X69977000Y-83870814D01*
X70206891Y-83991481D01*
X70481252Y-83894157D01*
X70731355Y-83745178D01*
X70852357Y-83636109D01*
X70852357Y-84430000D01*
X67052787Y-84430000D01*
X67086588Y-84379413D01*
X67175614Y-84164485D01*
X67221000Y-83936318D01*
X67221000Y-83703682D01*
X67175614Y-83475515D01*
X67086588Y-83260587D01*
X67007830Y-83142717D01*
X67082839Y-83102623D01*
X67173897Y-83027895D01*
X67192627Y-83005072D01*
X67290809Y-82906890D01*
X68408524Y-82906890D01*
X68453175Y-83054099D01*
X68578359Y-83316920D01*
X68752412Y-83550269D01*
X68968645Y-83745178D01*
X69218748Y-83894157D01*
X69493109Y-83991481D01*
X69723000Y-83870814D01*
X69723000Y-82677000D01*
X68529845Y-82677000D01*
X68408524Y-82906890D01*
X67290809Y-82906890D01*
X67839081Y-82358619D01*
X67861896Y-82339896D01*
X67904794Y-82287624D01*
X67936624Y-82248839D01*
X67992153Y-82144952D01*
X68007329Y-82094922D01*
X68026347Y-82032228D01*
X68034262Y-81951867D01*
X68037894Y-81915000D01*
X68035000Y-81885622D01*
X68035000Y-81817373D01*
X68037893Y-81788000D01*
X68026347Y-81670772D01*
X67992153Y-81558048D01*
X67936624Y-81454162D01*
X67861896Y-81363104D01*
X67770838Y-81288376D01*
X67666952Y-81232847D01*
X67554228Y-81198653D01*
X67466373Y-81190000D01*
X67437000Y-81187107D01*
X67407627Y-81190000D01*
X67319772Y-81198653D01*
X67221000Y-81228615D01*
X67221000Y-81163682D01*
X67175614Y-80935515D01*
X67086588Y-80720587D01*
X66957342Y-80527157D01*
X66792843Y-80362658D01*
X66599413Y-80233412D01*
X66384485Y-80144386D01*
X66156318Y-80099000D01*
X65923682Y-80099000D01*
X65695515Y-80144386D01*
X65480587Y-80233412D01*
X65287157Y-80362658D01*
X65122658Y-80527157D01*
X64993412Y-80720587D01*
X64904386Y-80935515D01*
X64859000Y-81163682D01*
X64859000Y-81370989D01*
X60491411Y-81370989D01*
X60469328Y-81352866D01*
X60365442Y-81297337D01*
X60252718Y-81263143D01*
X60164863Y-81254490D01*
X60164860Y-81254490D01*
X60135490Y-81251597D01*
X60106120Y-81254490D01*
X59266255Y-81254490D01*
X59236885Y-81251597D01*
X59207514Y-81254490D01*
X59207512Y-81254490D01*
X59119657Y-81263143D01*
X59006933Y-81297337D01*
X58903047Y-81352866D01*
X58811989Y-81427594D01*
X58793255Y-81450422D01*
X58672677Y-81571000D01*
X55608069Y-81571000D01*
X54914996Y-80877927D01*
X54896266Y-80855104D01*
X54805208Y-80780376D01*
X54701322Y-80724847D01*
X54588598Y-80690653D01*
X54500743Y-80682000D01*
X54500740Y-80682000D01*
X54471370Y-80679107D01*
X54442000Y-80682000D01*
X54360805Y-80682000D01*
X54275947Y-80555001D01*
X56664509Y-80555001D01*
X56657500Y-80590239D01*
X56657500Y-80699761D01*
X56678867Y-80807179D01*
X56720779Y-80908365D01*
X56781627Y-80999429D01*
X56859071Y-81076873D01*
X56950135Y-81137721D01*
X57051321Y-81179633D01*
X57158739Y-81201000D01*
X57268261Y-81201000D01*
X57375679Y-81179633D01*
X57476865Y-81137721D01*
X57567929Y-81076873D01*
X57645373Y-80999429D01*
X57706221Y-80908365D01*
X57748133Y-80807179D01*
X57769500Y-80699761D01*
X57769500Y-80590239D01*
X57762491Y-80555001D01*
X63662259Y-80555001D01*
X63691629Y-80557894D01*
X63720999Y-80555001D01*
X63721002Y-80555001D01*
X63808857Y-80546348D01*
X63921581Y-80512154D01*
X64025467Y-80456625D01*
X64116525Y-80381897D01*
X64135255Y-80359074D01*
X65074124Y-79420206D01*
X65122658Y-79492843D01*
X65287157Y-79657342D01*
X65480587Y-79786588D01*
X65695515Y-79875614D01*
X65923682Y-79921000D01*
X66156318Y-79921000D01*
X66384485Y-79875614D01*
X66599413Y-79786588D01*
X66792843Y-79657342D01*
X66957342Y-79492843D01*
X67086588Y-79299413D01*
X67175614Y-79084485D01*
X67221000Y-78856318D01*
X67221000Y-78623682D01*
X67217031Y-78603730D01*
X68050920Y-79437619D01*
G36*
X52293412Y-73100587D02*
G01*
X52204386Y-73315515D01*
X52159000Y-73543682D01*
X52159000Y-73776318D01*
X52204386Y-74004485D01*
X52293412Y-74219413D01*
X52422658Y-74412843D01*
X52587157Y-74577342D01*
X52780587Y-74706588D01*
X52995515Y-74795614D01*
X53223682Y-74841000D01*
X53456318Y-74841000D01*
X53684485Y-74795614D01*
X53899413Y-74706588D01*
X54092843Y-74577342D01*
X54257342Y-74412843D01*
X54360805Y-74258000D01*
X57498335Y-74258000D01*
X57484440Y-74303808D01*
X57469843Y-74452010D01*
X57477426Y-74528999D01*
X57469843Y-74605987D01*
X57484440Y-74754188D01*
X57527669Y-74896695D01*
X57597869Y-75028029D01*
X57668674Y-75114305D01*
X58140177Y-75585808D01*
X58153465Y-75602000D01*
X54360805Y-75602000D01*
X54257342Y-75447157D01*
X54092843Y-75282658D01*
X53899413Y-75153412D01*
X53684485Y-75064386D01*
X53456318Y-75019000D01*
X53223682Y-75019000D01*
X52995515Y-75064386D01*
X52780587Y-75153412D01*
X52587157Y-75282658D01*
X52422658Y-75447157D01*
X52293412Y-75640587D01*
X52204386Y-75855515D01*
X52159000Y-76083682D01*
X52159000Y-76316318D01*
X52204386Y-76544485D01*
X52293412Y-76759413D01*
X52333227Y-76819001D01*
X51806773Y-76819001D01*
X51846588Y-76759413D01*
X51935614Y-76544485D01*
X51981000Y-76316318D01*
X51981000Y-76083682D01*
X51935614Y-75855515D01*
X51846588Y-75640587D01*
X51717342Y-75447157D01*
X51552843Y-75282658D01*
X51359413Y-75153412D01*
X51144485Y-75064386D01*
X50916318Y-75019000D01*
X50683682Y-75019000D01*
X50455515Y-75064386D01*
X50240587Y-75153412D01*
X50047157Y-75282658D01*
X49882658Y-75447157D01*
X49779195Y-75602000D01*
X48021495Y-75602000D01*
X48080898Y-75513097D01*
X48173693Y-75289069D01*
X48221000Y-75051243D01*
X48221000Y-74808757D01*
X48173693Y-74570931D01*
X48080898Y-74346903D01*
X48021495Y-74258000D01*
X49779195Y-74258000D01*
X49882658Y-74412843D01*
X50047157Y-74577342D01*
X50240587Y-74706588D01*
X50455515Y-74795614D01*
X50683682Y-74841000D01*
X50916318Y-74841000D01*
X51144485Y-74795614D01*
X51359413Y-74706588D01*
X51552843Y-74577342D01*
X51717342Y-74412843D01*
X51846588Y-74219413D01*
X51935614Y-74004485D01*
X51981000Y-73776318D01*
X51981000Y-73543682D01*
X51944668Y-73361032D01*
X52370699Y-72935001D01*
X52404053Y-72935001D01*
X52293412Y-73100587D01*
G37*
X52293412Y-73100587D02*
X52204386Y-73315515D01*
X52159000Y-73543682D01*
X52159000Y-73776318D01*
X52204386Y-74004485D01*
X52293412Y-74219413D01*
X52422658Y-74412843D01*
X52587157Y-74577342D01*
X52780587Y-74706588D01*
X52995515Y-74795614D01*
X53223682Y-74841000D01*
X53456318Y-74841000D01*
X53684485Y-74795614D01*
X53899413Y-74706588D01*
X54092843Y-74577342D01*
X54257342Y-74412843D01*
X54360805Y-74258000D01*
X57498335Y-74258000D01*
X57484440Y-74303808D01*
X57469843Y-74452010D01*
X57477426Y-74528999D01*
X57469843Y-74605987D01*
X57484440Y-74754188D01*
X57527669Y-74896695D01*
X57597869Y-75028029D01*
X57668674Y-75114305D01*
X58140177Y-75585808D01*
X58153465Y-75602000D01*
X54360805Y-75602000D01*
X54257342Y-75447157D01*
X54092843Y-75282658D01*
X53899413Y-75153412D01*
X53684485Y-75064386D01*
X53456318Y-75019000D01*
X53223682Y-75019000D01*
X52995515Y-75064386D01*
X52780587Y-75153412D01*
X52587157Y-75282658D01*
X52422658Y-75447157D01*
X52293412Y-75640587D01*
X52204386Y-75855515D01*
X52159000Y-76083682D01*
X52159000Y-76316318D01*
X52204386Y-76544485D01*
X52293412Y-76759413D01*
X52333227Y-76819001D01*
X51806773Y-76819001D01*
X51846588Y-76759413D01*
X51935614Y-76544485D01*
X51981000Y-76316318D01*
X51981000Y-76083682D01*
X51935614Y-75855515D01*
X51846588Y-75640587D01*
X51717342Y-75447157D01*
X51552843Y-75282658D01*
X51359413Y-75153412D01*
X51144485Y-75064386D01*
X50916318Y-75019000D01*
X50683682Y-75019000D01*
X50455515Y-75064386D01*
X50240587Y-75153412D01*
X50047157Y-75282658D01*
X49882658Y-75447157D01*
X49779195Y-75602000D01*
X48021495Y-75602000D01*
X48080898Y-75513097D01*
X48173693Y-75289069D01*
X48221000Y-75051243D01*
X48221000Y-74808757D01*
X48173693Y-74570931D01*
X48080898Y-74346903D01*
X48021495Y-74258000D01*
X49779195Y-74258000D01*
X49882658Y-74412843D01*
X50047157Y-74577342D01*
X50240587Y-74706588D01*
X50455515Y-74795614D01*
X50683682Y-74841000D01*
X50916318Y-74841000D01*
X51144485Y-74795614D01*
X51359413Y-74706588D01*
X51552843Y-74577342D01*
X51717342Y-74412843D01*
X51846588Y-74219413D01*
X51935614Y-74004485D01*
X51981000Y-73776318D01*
X51981000Y-73543682D01*
X51944668Y-73361032D01*
X52370699Y-72935001D01*
X52404053Y-72935001D01*
X52293412Y-73100587D01*
G36*
X55193158Y-64098858D02*
G01*
X55281013Y-64107511D01*
X55281016Y-64107511D01*
X55310386Y-64110404D01*
X55339756Y-64107511D01*
X60803847Y-64107511D01*
X60784010Y-64207239D01*
X60784010Y-64316761D01*
X60805377Y-64424179D01*
X60847289Y-64525365D01*
X60908137Y-64616429D01*
X60985581Y-64693873D01*
X61076645Y-64754721D01*
X61177831Y-64796633D01*
X61285249Y-64818000D01*
X61394771Y-64818000D01*
X61502189Y-64796633D01*
X61603375Y-64754721D01*
X61612693Y-64748495D01*
X61685071Y-64820873D01*
X61776135Y-64881721D01*
X61877321Y-64923633D01*
X61984739Y-64945000D01*
X62094261Y-64945000D01*
X62201679Y-64923633D01*
X62302865Y-64881721D01*
X62357910Y-64844941D01*
X62339154Y-64906772D01*
X62327607Y-65024000D01*
X62331154Y-65060008D01*
X56164362Y-65060008D01*
X56134992Y-65057115D01*
X56105622Y-65060008D01*
X56105619Y-65060008D01*
X56095547Y-65061000D01*
X54000565Y-65061000D01*
X53899413Y-64993412D01*
X53684485Y-64904386D01*
X53456318Y-64859000D01*
X53223682Y-64859000D01*
X52995515Y-64904386D01*
X52780587Y-64993412D01*
X52615001Y-65104053D01*
X52615001Y-64435947D01*
X52780587Y-64546588D01*
X52995515Y-64635614D01*
X53223682Y-64681000D01*
X53456318Y-64681000D01*
X53684485Y-64635614D01*
X53899413Y-64546588D01*
X54092843Y-64417342D01*
X54257342Y-64252843D01*
X54360805Y-64098000D01*
X55190330Y-64098000D01*
X55193158Y-64098858D01*
G37*
X55193158Y-64098858D02*
X55281013Y-64107511D01*
X55281016Y-64107511D01*
X55310386Y-64110404D01*
X55339756Y-64107511D01*
X60803847Y-64107511D01*
X60784010Y-64207239D01*
X60784010Y-64316761D01*
X60805377Y-64424179D01*
X60847289Y-64525365D01*
X60908137Y-64616429D01*
X60985581Y-64693873D01*
X61076645Y-64754721D01*
X61177831Y-64796633D01*
X61285249Y-64818000D01*
X61394771Y-64818000D01*
X61502189Y-64796633D01*
X61603375Y-64754721D01*
X61612693Y-64748495D01*
X61685071Y-64820873D01*
X61776135Y-64881721D01*
X61877321Y-64923633D01*
X61984739Y-64945000D01*
X62094261Y-64945000D01*
X62201679Y-64923633D01*
X62302865Y-64881721D01*
X62357910Y-64844941D01*
X62339154Y-64906772D01*
X62327607Y-65024000D01*
X62331154Y-65060008D01*
X56164362Y-65060008D01*
X56134992Y-65057115D01*
X56105622Y-65060008D01*
X56105619Y-65060008D01*
X56095547Y-65061000D01*
X54000565Y-65061000D01*
X53899413Y-64993412D01*
X53684485Y-64904386D01*
X53456318Y-64859000D01*
X53223682Y-64859000D01*
X52995515Y-64904386D01*
X52780587Y-64993412D01*
X52615001Y-65104053D01*
X52615001Y-64435947D01*
X52780587Y-64546588D01*
X52995515Y-64635614D01*
X53223682Y-64681000D01*
X53456318Y-64681000D01*
X53684485Y-64635614D01*
X53899413Y-64546588D01*
X54092843Y-64417342D01*
X54257342Y-64252843D01*
X54360805Y-64098000D01*
X55190330Y-64098000D01*
X55193158Y-64098858D01*
G36*
X72619000Y-43632586D02*
G01*
X72547200Y-43602846D01*
X72439782Y-43581479D01*
X72330260Y-43581479D01*
X72307011Y-43586104D01*
X72307011Y-43510228D01*
X72285644Y-43402810D01*
X72243732Y-43301624D01*
X72182884Y-43210560D01*
X72105440Y-43133116D01*
X72014376Y-43072268D01*
X71913190Y-43030356D01*
X71805772Y-43008989D01*
X71696250Y-43008989D01*
X71627400Y-43022684D01*
X71651634Y-42964178D01*
X71673001Y-42856760D01*
X71673001Y-42747238D01*
X71651634Y-42639820D01*
X71609722Y-42538634D01*
X71548874Y-42447570D01*
X71471430Y-42370126D01*
X71380366Y-42309278D01*
X71279180Y-42267366D01*
X71171762Y-42245999D01*
X71062240Y-42245999D01*
X71037295Y-42250961D01*
X71081000Y-42031243D01*
X71081000Y-41788757D01*
X71033693Y-41550931D01*
X70940898Y-41326903D01*
X70806180Y-41125283D01*
X70634717Y-40953820D01*
X70433097Y-40819102D01*
X70209069Y-40726307D01*
X69971243Y-40679000D01*
X69728757Y-40679000D01*
X69490931Y-40726307D01*
X69266903Y-40819102D01*
X69065283Y-40953820D01*
X68893820Y-41125283D01*
X68759102Y-41326903D01*
X68666307Y-41550931D01*
X68619000Y-41788757D01*
X68619000Y-42031243D01*
X68666307Y-42269069D01*
X68759102Y-42493097D01*
X68820509Y-42584999D01*
X68091861Y-42584999D01*
X67067787Y-41560926D01*
X67049057Y-41538103D01*
X66957999Y-41463375D01*
X66911607Y-41438578D01*
X66957342Y-41392843D01*
X67086588Y-41199413D01*
X67175614Y-40984485D01*
X67221000Y-40756318D01*
X67221000Y-40712239D01*
X67452500Y-40712239D01*
X67452500Y-40821761D01*
X67473867Y-40929179D01*
X67515779Y-41030365D01*
X67576627Y-41121429D01*
X67654071Y-41198873D01*
X67745135Y-41259721D01*
X67846321Y-41301633D01*
X67953739Y-41323000D01*
X68063261Y-41323000D01*
X68170679Y-41301633D01*
X68271865Y-41259721D01*
X68362929Y-41198873D01*
X68440373Y-41121429D01*
X68501221Y-41030365D01*
X68543133Y-40929179D01*
X68564500Y-40821761D01*
X68564500Y-40712239D01*
X68543133Y-40604821D01*
X68501221Y-40503635D01*
X68440373Y-40412571D01*
X68362929Y-40335127D01*
X68271865Y-40274279D01*
X68170679Y-40232367D01*
X68063261Y-40211000D01*
X67953739Y-40211000D01*
X67846321Y-40232367D01*
X67745135Y-40274279D01*
X67654071Y-40335127D01*
X67576627Y-40412571D01*
X67515779Y-40503635D01*
X67473867Y-40604821D01*
X67452500Y-40712239D01*
X67221000Y-40712239D01*
X67221000Y-40523682D01*
X67175614Y-40295515D01*
X67086588Y-40080587D01*
X66957342Y-39887157D01*
X66792843Y-39722658D01*
X66599413Y-39593412D01*
X66384485Y-39504386D01*
X66156318Y-39459000D01*
X65923682Y-39459000D01*
X65695515Y-39504386D01*
X65480587Y-39593412D01*
X65287157Y-39722658D01*
X65122658Y-39887157D01*
X65019195Y-40042000D01*
X63288208Y-40042000D01*
X63258838Y-40039107D01*
X63229467Y-40042000D01*
X63229465Y-40042000D01*
X63141610Y-40050653D01*
X63042930Y-40080587D01*
X63028886Y-40084847D01*
X62924999Y-40140376D01*
X62912054Y-40151000D01*
X62833942Y-40215104D01*
X62815212Y-40237927D01*
X62101638Y-40951501D01*
X55610500Y-40951501D01*
X55610500Y-40902739D01*
X55589133Y-40795321D01*
X55547221Y-40694135D01*
X55486373Y-40603071D01*
X55408929Y-40525627D01*
X55317865Y-40464779D01*
X55216679Y-40422867D01*
X55109261Y-40401500D01*
X54999739Y-40401500D01*
X54892321Y-40422867D01*
X54791135Y-40464779D01*
X54700071Y-40525627D01*
X54646118Y-40579581D01*
X54503812Y-40437275D01*
X54475614Y-40295515D01*
X54386588Y-40080587D01*
X54257342Y-39887157D01*
X54092843Y-39722658D01*
X53902148Y-39595239D01*
X57107602Y-39595239D01*
X57107602Y-39704761D01*
X57128969Y-39812179D01*
X57170881Y-39913365D01*
X57231729Y-40004429D01*
X57309173Y-40081873D01*
X57400237Y-40142721D01*
X57501423Y-40184633D01*
X57608841Y-40206000D01*
X57718363Y-40206000D01*
X57825781Y-40184633D01*
X57926967Y-40142721D01*
X58018031Y-40081873D01*
X58095475Y-40004429D01*
X58156323Y-39913365D01*
X58198235Y-39812179D01*
X58219602Y-39704761D01*
X58219602Y-39595239D01*
X58198235Y-39487821D01*
X58156323Y-39386635D01*
X58095475Y-39295571D01*
X58018031Y-39218127D01*
X57926967Y-39157279D01*
X57825781Y-39115367D01*
X57718363Y-39094000D01*
X57608841Y-39094000D01*
X57501423Y-39115367D01*
X57400237Y-39157279D01*
X57309173Y-39218127D01*
X57231729Y-39295571D01*
X57170881Y-39386635D01*
X57128969Y-39487821D01*
X57107602Y-39595239D01*
X53902148Y-39595239D01*
X53899413Y-39593412D01*
X53684485Y-39504386D01*
X53456318Y-39459000D01*
X53223682Y-39459000D01*
X52995515Y-39504386D01*
X52780587Y-39593412D01*
X52587157Y-39722658D01*
X52422658Y-39887157D01*
X52293412Y-40080587D01*
X52204386Y-40295515D01*
X52159000Y-40523682D01*
X52159000Y-40756318D01*
X52204386Y-40984485D01*
X52293412Y-41199413D01*
X52422658Y-41392843D01*
X52587157Y-41557342D01*
X52780587Y-41686588D01*
X52995515Y-41775614D01*
X53223682Y-41821000D01*
X53456318Y-41821000D01*
X53684485Y-41775614D01*
X53899413Y-41686588D01*
X53996713Y-41621574D01*
X54326713Y-41951574D01*
X54345443Y-41974397D01*
X54406340Y-42024373D01*
X54436500Y-42049125D01*
X54504031Y-42085221D01*
X54540387Y-42104654D01*
X54653111Y-42138848D01*
X54740966Y-42147501D01*
X54740968Y-42147501D01*
X54770339Y-42150394D01*
X54799709Y-42147501D01*
X62319967Y-42147501D01*
X62349337Y-42150394D01*
X62378707Y-42147501D01*
X62378710Y-42147501D01*
X62466565Y-42138848D01*
X62579289Y-42104654D01*
X62597871Y-42094722D01*
X62593154Y-42110272D01*
X62581607Y-42227500D01*
X62593154Y-42344728D01*
X62627347Y-42457451D01*
X62682877Y-42561338D01*
X62699834Y-42582000D01*
X54360805Y-42582000D01*
X54257342Y-42427157D01*
X54092843Y-42262658D01*
X53899413Y-42133412D01*
X53684485Y-42044386D01*
X53456318Y-41999000D01*
X53223682Y-41999000D01*
X52995515Y-42044386D01*
X52780587Y-42133412D01*
X52587157Y-42262658D01*
X52422658Y-42427157D01*
X52293412Y-42620587D01*
X52204386Y-42835515D01*
X52159000Y-43063682D01*
X52159000Y-43296318D01*
X52204386Y-43524485D01*
X52293412Y-43739413D01*
X52422658Y-43932843D01*
X52587157Y-44097342D01*
X52780587Y-44226588D01*
X52995515Y-44315614D01*
X53223682Y-44361000D01*
X53456318Y-44361000D01*
X53684485Y-44315614D01*
X53899413Y-44226588D01*
X54092843Y-44097342D01*
X54257342Y-43932843D01*
X54360805Y-43778000D01*
X60531000Y-43778000D01*
X60531000Y-43871761D01*
X60552367Y-43979179D01*
X60594279Y-44080365D01*
X60655127Y-44171429D01*
X60732571Y-44248873D01*
X60823635Y-44309721D01*
X60924821Y-44351633D01*
X61032239Y-44373000D01*
X61141761Y-44373000D01*
X61249179Y-44351633D01*
X61350365Y-44309721D01*
X61356500Y-44305622D01*
X61356500Y-44377761D01*
X61377867Y-44485179D01*
X61419779Y-44586365D01*
X61480627Y-44677429D01*
X61558071Y-44754873D01*
X61649135Y-44815721D01*
X61750321Y-44857633D01*
X61857739Y-44879000D01*
X61967261Y-44879000D01*
X62074679Y-44857633D01*
X62175865Y-44815721D01*
X62266929Y-44754873D01*
X62344373Y-44677429D01*
X62405221Y-44586365D01*
X62447133Y-44485179D01*
X62468500Y-44377761D01*
X62468500Y-44268239D01*
X62447133Y-44160821D01*
X62405221Y-44059635D01*
X62344373Y-43968571D01*
X62266929Y-43891127D01*
X62175865Y-43830279D01*
X62074679Y-43788367D01*
X62022561Y-43778000D01*
X63537752Y-43778000D01*
X63534107Y-43815000D01*
X63545654Y-43932228D01*
X63579847Y-44044951D01*
X63635377Y-44148838D01*
X63691381Y-44217080D01*
X64379377Y-44905077D01*
X64398103Y-44927895D01*
X64420919Y-44946619D01*
X64489160Y-45002623D01*
X64546173Y-45033097D01*
X64593047Y-45058152D01*
X64705771Y-45092346D01*
X64761366Y-45097822D01*
X64822999Y-45103893D01*
X64852377Y-45100999D01*
X65033227Y-45100999D01*
X65019195Y-45122000D01*
X54360805Y-45122000D01*
X54257342Y-44967157D01*
X54092843Y-44802658D01*
X53899413Y-44673412D01*
X53684485Y-44584386D01*
X53456318Y-44539000D01*
X53223682Y-44539000D01*
X52995515Y-44584386D01*
X52780587Y-44673412D01*
X52587157Y-44802658D01*
X52422658Y-44967157D01*
X52293412Y-45160587D01*
X52204386Y-45375515D01*
X52159000Y-45603682D01*
X52159000Y-45836318D01*
X52204386Y-46064485D01*
X52293412Y-46279413D01*
X52422658Y-46472843D01*
X52587157Y-46637342D01*
X52780587Y-46766588D01*
X52995515Y-46855614D01*
X53223682Y-46901000D01*
X53456318Y-46901000D01*
X53684485Y-46855614D01*
X53899413Y-46766588D01*
X54092843Y-46637342D01*
X54257342Y-46472843D01*
X54360805Y-46318000D01*
X57301598Y-46318000D01*
X57292500Y-46363739D01*
X57292500Y-46473261D01*
X57313867Y-46580679D01*
X57355779Y-46681865D01*
X57416627Y-46772929D01*
X57494071Y-46850373D01*
X57585135Y-46911221D01*
X57686321Y-46953133D01*
X57793739Y-46974500D01*
X57903261Y-46974500D01*
X57946560Y-46965887D01*
X57946107Y-46970489D01*
X57949654Y-47006499D01*
X55744128Y-47006499D01*
X55656273Y-47015152D01*
X55543549Y-47049346D01*
X55439663Y-47104875D01*
X55348605Y-47179603D01*
X55273877Y-47270661D01*
X55218348Y-47374547D01*
X55184154Y-47487271D01*
X55172608Y-47604499D01*
X55178271Y-47662000D01*
X54360805Y-47662000D01*
X54257342Y-47507157D01*
X54092843Y-47342658D01*
X53899413Y-47213412D01*
X53684485Y-47124386D01*
X53456318Y-47079000D01*
X53223682Y-47079000D01*
X52995515Y-47124386D01*
X52780587Y-47213412D01*
X52587157Y-47342658D01*
X52422658Y-47507157D01*
X52293412Y-47700587D01*
X52204386Y-47915515D01*
X52159000Y-48143682D01*
X52159000Y-48376318D01*
X52204386Y-48604485D01*
X52293412Y-48819413D01*
X52422658Y-49012843D01*
X52587157Y-49177342D01*
X52780587Y-49306588D01*
X52995515Y-49395614D01*
X53223682Y-49441000D01*
X53456318Y-49441000D01*
X53684485Y-49395614D01*
X53899413Y-49306588D01*
X54092843Y-49177342D01*
X54257342Y-49012843D01*
X54360805Y-48858000D01*
X60489751Y-48858000D01*
X60486107Y-48895000D01*
X60497653Y-49012228D01*
X60531847Y-49124952D01*
X60587376Y-49228838D01*
X60662104Y-49319896D01*
X60753162Y-49394624D01*
X60857048Y-49450153D01*
X60969772Y-49484347D01*
X61057627Y-49493000D01*
X64626139Y-49493000D01*
X65012213Y-49879074D01*
X65030943Y-49901897D01*
X65095138Y-49954580D01*
X65122000Y-49976625D01*
X65168393Y-50001422D01*
X65122658Y-50047157D01*
X65019195Y-50202000D01*
X54360805Y-50202000D01*
X54257342Y-50047157D01*
X54092843Y-49882658D01*
X53899413Y-49753412D01*
X53684485Y-49664386D01*
X53456318Y-49619000D01*
X53223682Y-49619000D01*
X52995515Y-49664386D01*
X52780587Y-49753412D01*
X52587157Y-49882658D01*
X52422658Y-50047157D01*
X52293412Y-50240587D01*
X52204386Y-50455515D01*
X52159000Y-50683682D01*
X52159000Y-50916318D01*
X52204386Y-51144485D01*
X52293412Y-51359413D01*
X52422658Y-51552843D01*
X52587157Y-51717342D01*
X52780587Y-51846588D01*
X52995515Y-51935614D01*
X53223682Y-51981000D01*
X53456318Y-51981000D01*
X53684485Y-51935614D01*
X53899413Y-51846588D01*
X54092843Y-51717342D01*
X54257342Y-51552843D01*
X54360805Y-51398000D01*
X57734198Y-51398000D01*
X57670627Y-51461571D01*
X57609779Y-51552635D01*
X57567867Y-51653821D01*
X57546500Y-51761239D01*
X57546500Y-51870761D01*
X57567867Y-51978179D01*
X57609779Y-52079365D01*
X57670627Y-52170429D01*
X57748071Y-52247873D01*
X57839135Y-52308721D01*
X57940321Y-52350633D01*
X58047739Y-52372000D01*
X58157261Y-52372000D01*
X58264679Y-52350633D01*
X58365865Y-52308721D01*
X58456929Y-52247873D01*
X58534373Y-52170429D01*
X58595221Y-52079365D01*
X58637133Y-51978179D01*
X58658500Y-51870761D01*
X58658500Y-51761239D01*
X58637133Y-51653821D01*
X58595221Y-51552635D01*
X58534373Y-51461571D01*
X58470802Y-51398000D01*
X61438244Y-51398000D01*
X61419779Y-51425635D01*
X61377867Y-51526821D01*
X61356500Y-51634239D01*
X61356500Y-51743761D01*
X61377867Y-51851179D01*
X61419779Y-51952365D01*
X61480627Y-52043429D01*
X61544640Y-52107442D01*
X59787780Y-52106993D01*
X59699923Y-52115624D01*
X59587190Y-52149789D01*
X59483290Y-52205291D01*
X59392213Y-52279996D01*
X59317462Y-52371035D01*
X59261906Y-52474907D01*
X59227683Y-52587622D01*
X59216108Y-52704847D01*
X59219758Y-52742000D01*
X56375302Y-52742000D01*
X56375373Y-52741929D01*
X56436221Y-52650865D01*
X56478133Y-52549679D01*
X56499500Y-52442261D01*
X56499500Y-52332739D01*
X56478133Y-52225321D01*
X56436221Y-52124135D01*
X56375373Y-52033071D01*
X56297929Y-51955627D01*
X56206865Y-51894779D01*
X56105679Y-51852867D01*
X55998261Y-51831500D01*
X55888739Y-51831500D01*
X55781321Y-51852867D01*
X55680135Y-51894779D01*
X55589071Y-51955627D01*
X55511627Y-52033071D01*
X55450779Y-52124135D01*
X55408867Y-52225321D01*
X55387500Y-52332739D01*
X55387500Y-52442261D01*
X55408867Y-52549679D01*
X55450779Y-52650865D01*
X55511627Y-52741929D01*
X55511698Y-52742000D01*
X54360805Y-52742000D01*
X54257342Y-52587157D01*
X54092843Y-52422658D01*
X53899413Y-52293412D01*
X53684485Y-52204386D01*
X53456318Y-52159000D01*
X53223682Y-52159000D01*
X52995515Y-52204386D01*
X52780587Y-52293412D01*
X52587157Y-52422658D01*
X52422658Y-52587157D01*
X52293412Y-52780587D01*
X52204386Y-52995515D01*
X52159000Y-53223682D01*
X52159000Y-53456318D01*
X52204386Y-53684485D01*
X52293412Y-53899413D01*
X52422658Y-54092843D01*
X52587157Y-54257342D01*
X52780587Y-54386588D01*
X52995515Y-54475614D01*
X53223682Y-54521000D01*
X53456318Y-54521000D01*
X53684485Y-54475614D01*
X53899413Y-54386588D01*
X54092843Y-54257342D01*
X54257342Y-54092843D01*
X54360805Y-53938000D01*
X56210198Y-53938000D01*
X56210127Y-53938071D01*
X56149279Y-54029135D01*
X56107367Y-54130321D01*
X56086000Y-54237739D01*
X56086000Y-54347261D01*
X56107367Y-54454679D01*
X56149279Y-54555865D01*
X56210127Y-54646929D01*
X56287571Y-54724373D01*
X56378635Y-54785221D01*
X56479821Y-54827133D01*
X56587239Y-54848500D01*
X56683888Y-54848500D01*
X56676107Y-54927500D01*
X56687653Y-55044728D01*
X56721847Y-55157452D01*
X56777376Y-55261338D01*
X56794333Y-55282000D01*
X54360805Y-55282000D01*
X54257342Y-55127157D01*
X54092843Y-54962658D01*
X53899413Y-54833412D01*
X53684485Y-54744386D01*
X53456318Y-54699000D01*
X53223682Y-54699000D01*
X52995515Y-54744386D01*
X52780587Y-54833412D01*
X52587157Y-54962658D01*
X52422658Y-55127157D01*
X52293412Y-55320587D01*
X52204386Y-55535515D01*
X52159000Y-55763682D01*
X52159000Y-55996318D01*
X52204386Y-56224485D01*
X52293412Y-56439413D01*
X52333227Y-56499001D01*
X51806773Y-56499001D01*
X51846588Y-56439413D01*
X51935614Y-56224485D01*
X51981000Y-55996318D01*
X51981000Y-55763682D01*
X51935614Y-55535515D01*
X51846588Y-55320587D01*
X51717342Y-55127157D01*
X51552843Y-54962658D01*
X51359413Y-54833412D01*
X51144485Y-54744386D01*
X50916318Y-54699000D01*
X50683682Y-54699000D01*
X50455515Y-54744386D01*
X50240587Y-54833412D01*
X50047157Y-54962658D01*
X49882658Y-55127157D01*
X49779195Y-55282000D01*
X48021495Y-55282000D01*
X48080898Y-55193097D01*
X48173693Y-54969069D01*
X48221000Y-54731243D01*
X48221000Y-54488757D01*
X48173693Y-54250931D01*
X48080898Y-54026903D01*
X48021495Y-53938000D01*
X49779195Y-53938000D01*
X49882658Y-54092843D01*
X50047157Y-54257342D01*
X50240587Y-54386588D01*
X50455515Y-54475614D01*
X50683682Y-54521000D01*
X50916318Y-54521000D01*
X51144485Y-54475614D01*
X51359413Y-54386588D01*
X51552843Y-54257342D01*
X51717342Y-54092843D01*
X51846588Y-53899413D01*
X51935614Y-53684485D01*
X51981000Y-53456318D01*
X51981000Y-53223682D01*
X51935614Y-52995515D01*
X51846588Y-52780587D01*
X51717342Y-52587157D01*
X51552843Y-52422658D01*
X51359413Y-52293412D01*
X51144485Y-52204386D01*
X50916318Y-52159000D01*
X50683682Y-52159000D01*
X50455515Y-52204386D01*
X50240587Y-52293412D01*
X50047157Y-52422658D01*
X49882658Y-52587157D01*
X49779195Y-52742000D01*
X48021495Y-52742000D01*
X48080898Y-52653097D01*
X48173693Y-52429069D01*
X48221000Y-52191243D01*
X48221000Y-51948757D01*
X48173693Y-51710931D01*
X48080898Y-51486903D01*
X48021495Y-51398000D01*
X49779195Y-51398000D01*
X49882658Y-51552843D01*
X50047157Y-51717342D01*
X50240587Y-51846588D01*
X50455515Y-51935614D01*
X50683682Y-51981000D01*
X50916318Y-51981000D01*
X51144485Y-51935614D01*
X51359413Y-51846588D01*
X51552843Y-51717342D01*
X51717342Y-51552843D01*
X51846588Y-51359413D01*
X51935614Y-51144485D01*
X51981000Y-50916318D01*
X51981000Y-50683682D01*
X51935614Y-50455515D01*
X51846588Y-50240587D01*
X51717342Y-50047157D01*
X51552843Y-49882658D01*
X51359413Y-49753412D01*
X51144485Y-49664386D01*
X50916318Y-49619000D01*
X50683682Y-49619000D01*
X50455515Y-49664386D01*
X50240587Y-49753412D01*
X50047157Y-49882658D01*
X49882658Y-50047157D01*
X49779195Y-50202000D01*
X48021495Y-50202000D01*
X48080898Y-50113097D01*
X48173693Y-49889069D01*
X48221000Y-49651243D01*
X48221000Y-49408757D01*
X48173693Y-49170931D01*
X48080898Y-48946903D01*
X48021495Y-48858000D01*
X49779195Y-48858000D01*
X49882658Y-49012843D01*
X50047157Y-49177342D01*
X50240587Y-49306588D01*
X50455515Y-49395614D01*
X50683682Y-49441000D01*
X50916318Y-49441000D01*
X51144485Y-49395614D01*
X51359413Y-49306588D01*
X51552843Y-49177342D01*
X51717342Y-49012843D01*
X51846588Y-48819413D01*
X51935614Y-48604485D01*
X51981000Y-48376318D01*
X51981000Y-48143682D01*
X51935614Y-47915515D01*
X51846588Y-47700587D01*
X51717342Y-47507157D01*
X51552843Y-47342658D01*
X51359413Y-47213412D01*
X51144485Y-47124386D01*
X50916318Y-47079000D01*
X50683682Y-47079000D01*
X50455515Y-47124386D01*
X50240587Y-47213412D01*
X50047157Y-47342658D01*
X49934517Y-47455298D01*
X49895721Y-47361635D01*
X49834873Y-47270571D01*
X49757429Y-47193127D01*
X49666365Y-47132279D01*
X49565179Y-47090367D01*
X49457761Y-47069000D01*
X49348239Y-47069000D01*
X49240821Y-47090367D01*
X49139635Y-47132279D01*
X49048571Y-47193127D01*
X48971127Y-47270571D01*
X48910279Y-47361635D01*
X48868367Y-47462821D01*
X48847000Y-47570239D01*
X48847000Y-47662000D01*
X48021495Y-47662000D01*
X48080898Y-47573097D01*
X48173693Y-47349069D01*
X48221000Y-47111243D01*
X48221000Y-46868757D01*
X48173693Y-46630931D01*
X48080898Y-46406903D01*
X48021495Y-46318000D01*
X49779195Y-46318000D01*
X49882658Y-46472843D01*
X50047157Y-46637342D01*
X50240587Y-46766588D01*
X50455515Y-46855614D01*
X50683682Y-46901000D01*
X50916318Y-46901000D01*
X51144485Y-46855614D01*
X51359413Y-46766588D01*
X51552843Y-46637342D01*
X51717342Y-46472843D01*
X51846588Y-46279413D01*
X51935614Y-46064485D01*
X51981000Y-45836318D01*
X51981000Y-45603682D01*
X51935614Y-45375515D01*
X51846588Y-45160587D01*
X51717342Y-44967157D01*
X51552843Y-44802658D01*
X51359413Y-44673412D01*
X51144485Y-44584386D01*
X50916318Y-44539000D01*
X50683682Y-44539000D01*
X50455515Y-44584386D01*
X50240587Y-44673412D01*
X50047157Y-44802658D01*
X49882658Y-44967157D01*
X49779195Y-45122000D01*
X48021495Y-45122000D01*
X48080898Y-45033097D01*
X48173693Y-44809069D01*
X48221000Y-44571243D01*
X48221000Y-44328757D01*
X48173693Y-44090931D01*
X48080898Y-43866903D01*
X48021495Y-43778000D01*
X49779195Y-43778000D01*
X49882658Y-43932843D01*
X50047157Y-44097342D01*
X50240587Y-44226588D01*
X50455515Y-44315614D01*
X50683682Y-44361000D01*
X50916318Y-44361000D01*
X51144485Y-44315614D01*
X51359413Y-44226588D01*
X51552843Y-44097342D01*
X51717342Y-43932843D01*
X51846588Y-43739413D01*
X51935614Y-43524485D01*
X51981000Y-43296318D01*
X51981000Y-43063682D01*
X51935614Y-42835515D01*
X51846588Y-42620587D01*
X51717342Y-42427157D01*
X51552843Y-42262658D01*
X51359413Y-42133412D01*
X51144485Y-42044386D01*
X50916318Y-41999000D01*
X50683682Y-41999000D01*
X50455515Y-42044386D01*
X50240587Y-42133412D01*
X50047157Y-42262658D01*
X49882658Y-42427157D01*
X49779195Y-42582000D01*
X48021495Y-42582000D01*
X48080898Y-42493097D01*
X48173693Y-42269069D01*
X48221000Y-42031243D01*
X48221000Y-41788757D01*
X48173693Y-41550931D01*
X48080898Y-41326903D01*
X48021495Y-41238000D01*
X49779195Y-41238000D01*
X49882658Y-41392843D01*
X50047157Y-41557342D01*
X50240587Y-41686588D01*
X50455515Y-41775614D01*
X50683682Y-41821000D01*
X50916318Y-41821000D01*
X51144485Y-41775614D01*
X51359413Y-41686588D01*
X51552843Y-41557342D01*
X51717342Y-41392843D01*
X51846588Y-41199413D01*
X51935614Y-40984485D01*
X51981000Y-40756318D01*
X51981000Y-40523682D01*
X51935614Y-40295515D01*
X51846588Y-40080587D01*
X51717342Y-39887157D01*
X51552843Y-39722658D01*
X51359413Y-39593412D01*
X51144485Y-39504386D01*
X50916318Y-39459000D01*
X50683682Y-39459000D01*
X50455515Y-39504386D01*
X50240587Y-39593412D01*
X50211165Y-39613071D01*
X50217487Y-39597809D01*
X50247500Y-39446922D01*
X50247500Y-39293078D01*
X50217487Y-39142191D01*
X50211165Y-39126929D01*
X50240587Y-39146588D01*
X50455515Y-39235614D01*
X50683682Y-39281000D01*
X50916318Y-39281000D01*
X51144485Y-39235614D01*
X51359413Y-39146588D01*
X51552843Y-39017342D01*
X51717342Y-38852843D01*
X51846588Y-38659413D01*
X51935614Y-38444485D01*
X51981000Y-38216318D01*
X51981000Y-37983682D01*
X51935614Y-37755515D01*
X51846588Y-37540587D01*
X51806773Y-37480999D01*
X51987631Y-37480999D01*
X52017001Y-37483892D01*
X52046371Y-37480999D01*
X52046374Y-37480999D01*
X52134229Y-37472346D01*
X52246953Y-37438152D01*
X52350839Y-37382623D01*
X52441897Y-37307895D01*
X52460627Y-37285072D01*
X53041032Y-36704668D01*
X53223682Y-36741000D01*
X53456318Y-36741000D01*
X53684485Y-36695614D01*
X53899413Y-36606588D01*
X54092843Y-36477342D01*
X54241442Y-36328743D01*
X55271776Y-37359078D01*
X55290502Y-37381896D01*
X55381560Y-37456624D01*
X55466451Y-37502000D01*
X54360805Y-37502000D01*
X54257342Y-37347157D01*
X54092843Y-37182658D01*
X53899413Y-37053412D01*
X53684485Y-36964386D01*
X53456318Y-36919000D01*
X53223682Y-36919000D01*
X52995515Y-36964386D01*
X52780587Y-37053412D01*
X52587157Y-37182658D01*
X52422658Y-37347157D01*
X52293412Y-37540587D01*
X52204386Y-37755515D01*
X52159000Y-37983682D01*
X52159000Y-38216318D01*
X52204386Y-38444485D01*
X52293412Y-38659413D01*
X52422658Y-38852843D01*
X52587157Y-39017342D01*
X52780587Y-39146588D01*
X52995515Y-39235614D01*
X53223682Y-39281000D01*
X53456318Y-39281000D01*
X53684485Y-39235614D01*
X53899413Y-39146588D01*
X54092843Y-39017342D01*
X54257342Y-38852843D01*
X54360805Y-38698000D01*
X61438244Y-38698000D01*
X61419779Y-38725635D01*
X61377867Y-38826821D01*
X61356500Y-38934239D01*
X61356500Y-39043761D01*
X61377867Y-39151179D01*
X61419779Y-39252365D01*
X61480627Y-39343429D01*
X61558071Y-39420873D01*
X61649135Y-39481721D01*
X61750321Y-39523633D01*
X61857739Y-39545000D01*
X61967261Y-39545000D01*
X62074679Y-39523633D01*
X62175865Y-39481721D01*
X62266929Y-39420873D01*
X62344373Y-39343429D01*
X62405221Y-39252365D01*
X62447133Y-39151179D01*
X62468500Y-39043761D01*
X62468500Y-38934239D01*
X62447133Y-38826821D01*
X62405221Y-38725635D01*
X62386756Y-38698000D01*
X65019195Y-38698000D01*
X65122658Y-38852843D01*
X65287157Y-39017342D01*
X65480587Y-39146588D01*
X65695515Y-39235614D01*
X65923682Y-39281000D01*
X66156318Y-39281000D01*
X66318411Y-39248757D01*
X68619000Y-39248757D01*
X68619000Y-39491243D01*
X68666307Y-39729069D01*
X68759102Y-39953097D01*
X68893820Y-40154717D01*
X69065283Y-40326180D01*
X69266903Y-40460898D01*
X69490931Y-40553693D01*
X69728757Y-40601000D01*
X69971243Y-40601000D01*
X70209069Y-40553693D01*
X70433097Y-40460898D01*
X70634717Y-40326180D01*
X70806180Y-40154717D01*
X70940898Y-39953097D01*
X71033693Y-39729069D01*
X71081000Y-39491243D01*
X71081000Y-39248757D01*
X71033693Y-39010931D01*
X70940898Y-38786903D01*
X70806180Y-38585283D01*
X70634717Y-38413820D01*
X70433097Y-38279102D01*
X70209069Y-38186307D01*
X69971243Y-38139000D01*
X69728757Y-38139000D01*
X69490931Y-38186307D01*
X69266903Y-38279102D01*
X69065283Y-38413820D01*
X68893820Y-38585283D01*
X68759102Y-38786903D01*
X68666307Y-39010931D01*
X68619000Y-39248757D01*
X66318411Y-39248757D01*
X66384485Y-39235614D01*
X66599413Y-39146588D01*
X66792843Y-39017342D01*
X66957342Y-38852843D01*
X67086588Y-38659413D01*
X67175614Y-38444485D01*
X67221000Y-38216318D01*
X67221000Y-37983682D01*
X67175614Y-37755515D01*
X67086588Y-37540587D01*
X67043432Y-37475999D01*
X67296131Y-37475999D01*
X67325501Y-37478892D01*
X67354871Y-37475999D01*
X67354874Y-37475999D01*
X67442729Y-37467346D01*
X67555453Y-37433152D01*
X67659339Y-37377623D01*
X67750397Y-37302895D01*
X67769128Y-37280071D01*
X67944119Y-37105079D01*
X68000124Y-37036838D01*
X68055653Y-36932951D01*
X68089846Y-36820229D01*
X68100825Y-36708757D01*
X68619000Y-36708757D01*
X68619000Y-36951243D01*
X68666307Y-37189069D01*
X68759102Y-37413097D01*
X68893820Y-37614717D01*
X69065283Y-37786180D01*
X69266903Y-37920898D01*
X69490931Y-38013693D01*
X69728757Y-38061000D01*
X69971243Y-38061000D01*
X70209069Y-38013693D01*
X70433097Y-37920898D01*
X70634717Y-37786180D01*
X70806180Y-37614717D01*
X70940898Y-37413097D01*
X71033693Y-37189069D01*
X71081000Y-36951243D01*
X71081000Y-36708757D01*
X71033693Y-36470931D01*
X70940898Y-36246903D01*
X70806180Y-36045283D01*
X70634717Y-35873820D01*
X70433097Y-35739102D01*
X70209069Y-35646307D01*
X69971243Y-35599000D01*
X69728757Y-35599000D01*
X69490931Y-35646307D01*
X69266903Y-35739102D01*
X69065283Y-35873820D01*
X68893820Y-36045283D01*
X68759102Y-36246903D01*
X68666307Y-36470931D01*
X68619000Y-36708757D01*
X68100825Y-36708757D01*
X68101393Y-36703000D01*
X68089846Y-36585772D01*
X68055653Y-36473049D01*
X68000124Y-36369162D01*
X67925395Y-36278105D01*
X67834338Y-36203376D01*
X67730451Y-36147847D01*
X67617728Y-36113654D01*
X67500500Y-36102107D01*
X67383271Y-36113654D01*
X67270549Y-36147847D01*
X67166662Y-36203376D01*
X67098421Y-36259381D01*
X67077803Y-36279999D01*
X66979288Y-36279999D01*
X67086588Y-36119413D01*
X67175614Y-35904485D01*
X67221000Y-35676318D01*
X67221000Y-35443682D01*
X67175614Y-35215515D01*
X67086588Y-35000587D01*
X67052787Y-34950000D01*
X72619000Y-34950000D01*
X72619000Y-43632586D01*
G37*
X72619000Y-43632586D02*
X72547200Y-43602846D01*
X72439782Y-43581479D01*
X72330260Y-43581479D01*
X72307011Y-43586104D01*
X72307011Y-43510228D01*
X72285644Y-43402810D01*
X72243732Y-43301624D01*
X72182884Y-43210560D01*
X72105440Y-43133116D01*
X72014376Y-43072268D01*
X71913190Y-43030356D01*
X71805772Y-43008989D01*
X71696250Y-43008989D01*
X71627400Y-43022684D01*
X71651634Y-42964178D01*
X71673001Y-42856760D01*
X71673001Y-42747238D01*
X71651634Y-42639820D01*
X71609722Y-42538634D01*
X71548874Y-42447570D01*
X71471430Y-42370126D01*
X71380366Y-42309278D01*
X71279180Y-42267366D01*
X71171762Y-42245999D01*
X71062240Y-42245999D01*
X71037295Y-42250961D01*
X71081000Y-42031243D01*
X71081000Y-41788757D01*
X71033693Y-41550931D01*
X70940898Y-41326903D01*
X70806180Y-41125283D01*
X70634717Y-40953820D01*
X70433097Y-40819102D01*
X70209069Y-40726307D01*
X69971243Y-40679000D01*
X69728757Y-40679000D01*
X69490931Y-40726307D01*
X69266903Y-40819102D01*
X69065283Y-40953820D01*
X68893820Y-41125283D01*
X68759102Y-41326903D01*
X68666307Y-41550931D01*
X68619000Y-41788757D01*
X68619000Y-42031243D01*
X68666307Y-42269069D01*
X68759102Y-42493097D01*
X68820509Y-42584999D01*
X68091861Y-42584999D01*
X67067787Y-41560926D01*
X67049057Y-41538103D01*
X66957999Y-41463375D01*
X66911607Y-41438578D01*
X66957342Y-41392843D01*
X67086588Y-41199413D01*
X67175614Y-40984485D01*
X67221000Y-40756318D01*
X67221000Y-40712239D01*
X67452500Y-40712239D01*
X67452500Y-40821761D01*
X67473867Y-40929179D01*
X67515779Y-41030365D01*
X67576627Y-41121429D01*
X67654071Y-41198873D01*
X67745135Y-41259721D01*
X67846321Y-41301633D01*
X67953739Y-41323000D01*
X68063261Y-41323000D01*
X68170679Y-41301633D01*
X68271865Y-41259721D01*
X68362929Y-41198873D01*
X68440373Y-41121429D01*
X68501221Y-41030365D01*
X68543133Y-40929179D01*
X68564500Y-40821761D01*
X68564500Y-40712239D01*
X68543133Y-40604821D01*
X68501221Y-40503635D01*
X68440373Y-40412571D01*
X68362929Y-40335127D01*
X68271865Y-40274279D01*
X68170679Y-40232367D01*
X68063261Y-40211000D01*
X67953739Y-40211000D01*
X67846321Y-40232367D01*
X67745135Y-40274279D01*
X67654071Y-40335127D01*
X67576627Y-40412571D01*
X67515779Y-40503635D01*
X67473867Y-40604821D01*
X67452500Y-40712239D01*
X67221000Y-40712239D01*
X67221000Y-40523682D01*
X67175614Y-40295515D01*
X67086588Y-40080587D01*
X66957342Y-39887157D01*
X66792843Y-39722658D01*
X66599413Y-39593412D01*
X66384485Y-39504386D01*
X66156318Y-39459000D01*
X65923682Y-39459000D01*
X65695515Y-39504386D01*
X65480587Y-39593412D01*
X65287157Y-39722658D01*
X65122658Y-39887157D01*
X65019195Y-40042000D01*
X63288208Y-40042000D01*
X63258838Y-40039107D01*
X63229467Y-40042000D01*
X63229465Y-40042000D01*
X63141610Y-40050653D01*
X63042930Y-40080587D01*
X63028886Y-40084847D01*
X62924999Y-40140376D01*
X62912054Y-40151000D01*
X62833942Y-40215104D01*
X62815212Y-40237927D01*
X62101638Y-40951501D01*
X55610500Y-40951501D01*
X55610500Y-40902739D01*
X55589133Y-40795321D01*
X55547221Y-40694135D01*
X55486373Y-40603071D01*
X55408929Y-40525627D01*
X55317865Y-40464779D01*
X55216679Y-40422867D01*
X55109261Y-40401500D01*
X54999739Y-40401500D01*
X54892321Y-40422867D01*
X54791135Y-40464779D01*
X54700071Y-40525627D01*
X54646118Y-40579581D01*
X54503812Y-40437275D01*
X54475614Y-40295515D01*
X54386588Y-40080587D01*
X54257342Y-39887157D01*
X54092843Y-39722658D01*
X53902148Y-39595239D01*
X57107602Y-39595239D01*
X57107602Y-39704761D01*
X57128969Y-39812179D01*
X57170881Y-39913365D01*
X57231729Y-40004429D01*
X57309173Y-40081873D01*
X57400237Y-40142721D01*
X57501423Y-40184633D01*
X57608841Y-40206000D01*
X57718363Y-40206000D01*
X57825781Y-40184633D01*
X57926967Y-40142721D01*
X58018031Y-40081873D01*
X58095475Y-40004429D01*
X58156323Y-39913365D01*
X58198235Y-39812179D01*
X58219602Y-39704761D01*
X58219602Y-39595239D01*
X58198235Y-39487821D01*
X58156323Y-39386635D01*
X58095475Y-39295571D01*
X58018031Y-39218127D01*
X57926967Y-39157279D01*
X57825781Y-39115367D01*
X57718363Y-39094000D01*
X57608841Y-39094000D01*
X57501423Y-39115367D01*
X57400237Y-39157279D01*
X57309173Y-39218127D01*
X57231729Y-39295571D01*
X57170881Y-39386635D01*
X57128969Y-39487821D01*
X57107602Y-39595239D01*
X53902148Y-39595239D01*
X53899413Y-39593412D01*
X53684485Y-39504386D01*
X53456318Y-39459000D01*
X53223682Y-39459000D01*
X52995515Y-39504386D01*
X52780587Y-39593412D01*
X52587157Y-39722658D01*
X52422658Y-39887157D01*
X52293412Y-40080587D01*
X52204386Y-40295515D01*
X52159000Y-40523682D01*
X52159000Y-40756318D01*
X52204386Y-40984485D01*
X52293412Y-41199413D01*
X52422658Y-41392843D01*
X52587157Y-41557342D01*
X52780587Y-41686588D01*
X52995515Y-41775614D01*
X53223682Y-41821000D01*
X53456318Y-41821000D01*
X53684485Y-41775614D01*
X53899413Y-41686588D01*
X53996713Y-41621574D01*
X54326713Y-41951574D01*
X54345443Y-41974397D01*
X54406340Y-42024373D01*
X54436500Y-42049125D01*
X54504031Y-42085221D01*
X54540387Y-42104654D01*
X54653111Y-42138848D01*
X54740966Y-42147501D01*
X54740968Y-42147501D01*
X54770339Y-42150394D01*
X54799709Y-42147501D01*
X62319967Y-42147501D01*
X62349337Y-42150394D01*
X62378707Y-42147501D01*
X62378710Y-42147501D01*
X62466565Y-42138848D01*
X62579289Y-42104654D01*
X62597871Y-42094722D01*
X62593154Y-42110272D01*
X62581607Y-42227500D01*
X62593154Y-42344728D01*
X62627347Y-42457451D01*
X62682877Y-42561338D01*
X62699834Y-42582000D01*
X54360805Y-42582000D01*
X54257342Y-42427157D01*
X54092843Y-42262658D01*
X53899413Y-42133412D01*
X53684485Y-42044386D01*
X53456318Y-41999000D01*
X53223682Y-41999000D01*
X52995515Y-42044386D01*
X52780587Y-42133412D01*
X52587157Y-42262658D01*
X52422658Y-42427157D01*
X52293412Y-42620587D01*
X52204386Y-42835515D01*
X52159000Y-43063682D01*
X52159000Y-43296318D01*
X52204386Y-43524485D01*
X52293412Y-43739413D01*
X52422658Y-43932843D01*
X52587157Y-44097342D01*
X52780587Y-44226588D01*
X52995515Y-44315614D01*
X53223682Y-44361000D01*
X53456318Y-44361000D01*
X53684485Y-44315614D01*
X53899413Y-44226588D01*
X54092843Y-44097342D01*
X54257342Y-43932843D01*
X54360805Y-43778000D01*
X60531000Y-43778000D01*
X60531000Y-43871761D01*
X60552367Y-43979179D01*
X60594279Y-44080365D01*
X60655127Y-44171429D01*
X60732571Y-44248873D01*
X60823635Y-44309721D01*
X60924821Y-44351633D01*
X61032239Y-44373000D01*
X61141761Y-44373000D01*
X61249179Y-44351633D01*
X61350365Y-44309721D01*
X61356500Y-44305622D01*
X61356500Y-44377761D01*
X61377867Y-44485179D01*
X61419779Y-44586365D01*
X61480627Y-44677429D01*
X61558071Y-44754873D01*
X61649135Y-44815721D01*
X61750321Y-44857633D01*
X61857739Y-44879000D01*
X61967261Y-44879000D01*
X62074679Y-44857633D01*
X62175865Y-44815721D01*
X62266929Y-44754873D01*
X62344373Y-44677429D01*
X62405221Y-44586365D01*
X62447133Y-44485179D01*
X62468500Y-44377761D01*
X62468500Y-44268239D01*
X62447133Y-44160821D01*
X62405221Y-44059635D01*
X62344373Y-43968571D01*
X62266929Y-43891127D01*
X62175865Y-43830279D01*
X62074679Y-43788367D01*
X62022561Y-43778000D01*
X63537752Y-43778000D01*
X63534107Y-43815000D01*
X63545654Y-43932228D01*
X63579847Y-44044951D01*
X63635377Y-44148838D01*
X63691381Y-44217080D01*
X64379377Y-44905077D01*
X64398103Y-44927895D01*
X64420919Y-44946619D01*
X64489160Y-45002623D01*
X64546173Y-45033097D01*
X64593047Y-45058152D01*
X64705771Y-45092346D01*
X64761366Y-45097822D01*
X64822999Y-45103893D01*
X64852377Y-45100999D01*
X65033227Y-45100999D01*
X65019195Y-45122000D01*
X54360805Y-45122000D01*
X54257342Y-44967157D01*
X54092843Y-44802658D01*
X53899413Y-44673412D01*
X53684485Y-44584386D01*
X53456318Y-44539000D01*
X53223682Y-44539000D01*
X52995515Y-44584386D01*
X52780587Y-44673412D01*
X52587157Y-44802658D01*
X52422658Y-44967157D01*
X52293412Y-45160587D01*
X52204386Y-45375515D01*
X52159000Y-45603682D01*
X52159000Y-45836318D01*
X52204386Y-46064485D01*
X52293412Y-46279413D01*
X52422658Y-46472843D01*
X52587157Y-46637342D01*
X52780587Y-46766588D01*
X52995515Y-46855614D01*
X53223682Y-46901000D01*
X53456318Y-46901000D01*
X53684485Y-46855614D01*
X53899413Y-46766588D01*
X54092843Y-46637342D01*
X54257342Y-46472843D01*
X54360805Y-46318000D01*
X57301598Y-46318000D01*
X57292500Y-46363739D01*
X57292500Y-46473261D01*
X57313867Y-46580679D01*
X57355779Y-46681865D01*
X57416627Y-46772929D01*
X57494071Y-46850373D01*
X57585135Y-46911221D01*
X57686321Y-46953133D01*
X57793739Y-46974500D01*
X57903261Y-46974500D01*
X57946560Y-46965887D01*
X57946107Y-46970489D01*
X57949654Y-47006499D01*
X55744128Y-47006499D01*
X55656273Y-47015152D01*
X55543549Y-47049346D01*
X55439663Y-47104875D01*
X55348605Y-47179603D01*
X55273877Y-47270661D01*
X55218348Y-47374547D01*
X55184154Y-47487271D01*
X55172608Y-47604499D01*
X55178271Y-47662000D01*
X54360805Y-47662000D01*
X54257342Y-47507157D01*
X54092843Y-47342658D01*
X53899413Y-47213412D01*
X53684485Y-47124386D01*
X53456318Y-47079000D01*
X53223682Y-47079000D01*
X52995515Y-47124386D01*
X52780587Y-47213412D01*
X52587157Y-47342658D01*
X52422658Y-47507157D01*
X52293412Y-47700587D01*
X52204386Y-47915515D01*
X52159000Y-48143682D01*
X52159000Y-48376318D01*
X52204386Y-48604485D01*
X52293412Y-48819413D01*
X52422658Y-49012843D01*
X52587157Y-49177342D01*
X52780587Y-49306588D01*
X52995515Y-49395614D01*
X53223682Y-49441000D01*
X53456318Y-49441000D01*
X53684485Y-49395614D01*
X53899413Y-49306588D01*
X54092843Y-49177342D01*
X54257342Y-49012843D01*
X54360805Y-48858000D01*
X60489751Y-48858000D01*
X60486107Y-48895000D01*
X60497653Y-49012228D01*
X60531847Y-49124952D01*
X60587376Y-49228838D01*
X60662104Y-49319896D01*
X60753162Y-49394624D01*
X60857048Y-49450153D01*
X60969772Y-49484347D01*
X61057627Y-49493000D01*
X64626139Y-49493000D01*
X65012213Y-49879074D01*
X65030943Y-49901897D01*
X65095138Y-49954580D01*
X65122000Y-49976625D01*
X65168393Y-50001422D01*
X65122658Y-50047157D01*
X65019195Y-50202000D01*
X54360805Y-50202000D01*
X54257342Y-50047157D01*
X54092843Y-49882658D01*
X53899413Y-49753412D01*
X53684485Y-49664386D01*
X53456318Y-49619000D01*
X53223682Y-49619000D01*
X52995515Y-49664386D01*
X52780587Y-49753412D01*
X52587157Y-49882658D01*
X52422658Y-50047157D01*
X52293412Y-50240587D01*
X52204386Y-50455515D01*
X52159000Y-50683682D01*
X52159000Y-50916318D01*
X52204386Y-51144485D01*
X52293412Y-51359413D01*
X52422658Y-51552843D01*
X52587157Y-51717342D01*
X52780587Y-51846588D01*
X52995515Y-51935614D01*
X53223682Y-51981000D01*
X53456318Y-51981000D01*
X53684485Y-51935614D01*
X53899413Y-51846588D01*
X54092843Y-51717342D01*
X54257342Y-51552843D01*
X54360805Y-51398000D01*
X57734198Y-51398000D01*
X57670627Y-51461571D01*
X57609779Y-51552635D01*
X57567867Y-51653821D01*
X57546500Y-51761239D01*
X57546500Y-51870761D01*
X57567867Y-51978179D01*
X57609779Y-52079365D01*
X57670627Y-52170429D01*
X57748071Y-52247873D01*
X57839135Y-52308721D01*
X57940321Y-52350633D01*
X58047739Y-52372000D01*
X58157261Y-52372000D01*
X58264679Y-52350633D01*
X58365865Y-52308721D01*
X58456929Y-52247873D01*
X58534373Y-52170429D01*
X58595221Y-52079365D01*
X58637133Y-51978179D01*
X58658500Y-51870761D01*
X58658500Y-51761239D01*
X58637133Y-51653821D01*
X58595221Y-51552635D01*
X58534373Y-51461571D01*
X58470802Y-51398000D01*
X61438244Y-51398000D01*
X61419779Y-51425635D01*
X61377867Y-51526821D01*
X61356500Y-51634239D01*
X61356500Y-51743761D01*
X61377867Y-51851179D01*
X61419779Y-51952365D01*
X61480627Y-52043429D01*
X61544640Y-52107442D01*
X59787780Y-52106993D01*
X59699923Y-52115624D01*
X59587190Y-52149789D01*
X59483290Y-52205291D01*
X59392213Y-52279996D01*
X59317462Y-52371035D01*
X59261906Y-52474907D01*
X59227683Y-52587622D01*
X59216108Y-52704847D01*
X59219758Y-52742000D01*
X56375302Y-52742000D01*
X56375373Y-52741929D01*
X56436221Y-52650865D01*
X56478133Y-52549679D01*
X56499500Y-52442261D01*
X56499500Y-52332739D01*
X56478133Y-52225321D01*
X56436221Y-52124135D01*
X56375373Y-52033071D01*
X56297929Y-51955627D01*
X56206865Y-51894779D01*
X56105679Y-51852867D01*
X55998261Y-51831500D01*
X55888739Y-51831500D01*
X55781321Y-51852867D01*
X55680135Y-51894779D01*
X55589071Y-51955627D01*
X55511627Y-52033071D01*
X55450779Y-52124135D01*
X55408867Y-52225321D01*
X55387500Y-52332739D01*
X55387500Y-52442261D01*
X55408867Y-52549679D01*
X55450779Y-52650865D01*
X55511627Y-52741929D01*
X55511698Y-52742000D01*
X54360805Y-52742000D01*
X54257342Y-52587157D01*
X54092843Y-52422658D01*
X53899413Y-52293412D01*
X53684485Y-52204386D01*
X53456318Y-52159000D01*
X53223682Y-52159000D01*
X52995515Y-52204386D01*
X52780587Y-52293412D01*
X52587157Y-52422658D01*
X52422658Y-52587157D01*
X52293412Y-52780587D01*
X52204386Y-52995515D01*
X52159000Y-53223682D01*
X52159000Y-53456318D01*
X52204386Y-53684485D01*
X52293412Y-53899413D01*
X52422658Y-54092843D01*
X52587157Y-54257342D01*
X52780587Y-54386588D01*
X52995515Y-54475614D01*
X53223682Y-54521000D01*
X53456318Y-54521000D01*
X53684485Y-54475614D01*
X53899413Y-54386588D01*
X54092843Y-54257342D01*
X54257342Y-54092843D01*
X54360805Y-53938000D01*
X56210198Y-53938000D01*
X56210127Y-53938071D01*
X56149279Y-54029135D01*
X56107367Y-54130321D01*
X56086000Y-54237739D01*
X56086000Y-54347261D01*
X56107367Y-54454679D01*
X56149279Y-54555865D01*
X56210127Y-54646929D01*
X56287571Y-54724373D01*
X56378635Y-54785221D01*
X56479821Y-54827133D01*
X56587239Y-54848500D01*
X56683888Y-54848500D01*
X56676107Y-54927500D01*
X56687653Y-55044728D01*
X56721847Y-55157452D01*
X56777376Y-55261338D01*
X56794333Y-55282000D01*
X54360805Y-55282000D01*
X54257342Y-55127157D01*
X54092843Y-54962658D01*
X53899413Y-54833412D01*
X53684485Y-54744386D01*
X53456318Y-54699000D01*
X53223682Y-54699000D01*
X52995515Y-54744386D01*
X52780587Y-54833412D01*
X52587157Y-54962658D01*
X52422658Y-55127157D01*
X52293412Y-55320587D01*
X52204386Y-55535515D01*
X52159000Y-55763682D01*
X52159000Y-55996318D01*
X52204386Y-56224485D01*
X52293412Y-56439413D01*
X52333227Y-56499001D01*
X51806773Y-56499001D01*
X51846588Y-56439413D01*
X51935614Y-56224485D01*
X51981000Y-55996318D01*
X51981000Y-55763682D01*
X51935614Y-55535515D01*
X51846588Y-55320587D01*
X51717342Y-55127157D01*
X51552843Y-54962658D01*
X51359413Y-54833412D01*
X51144485Y-54744386D01*
X50916318Y-54699000D01*
X50683682Y-54699000D01*
X50455515Y-54744386D01*
X50240587Y-54833412D01*
X50047157Y-54962658D01*
X49882658Y-55127157D01*
X49779195Y-55282000D01*
X48021495Y-55282000D01*
X48080898Y-55193097D01*
X48173693Y-54969069D01*
X48221000Y-54731243D01*
X48221000Y-54488757D01*
X48173693Y-54250931D01*
X48080898Y-54026903D01*
X48021495Y-53938000D01*
X49779195Y-53938000D01*
X49882658Y-54092843D01*
X50047157Y-54257342D01*
X50240587Y-54386588D01*
X50455515Y-54475614D01*
X50683682Y-54521000D01*
X50916318Y-54521000D01*
X51144485Y-54475614D01*
X51359413Y-54386588D01*
X51552843Y-54257342D01*
X51717342Y-54092843D01*
X51846588Y-53899413D01*
X51935614Y-53684485D01*
X51981000Y-53456318D01*
X51981000Y-53223682D01*
X51935614Y-52995515D01*
X51846588Y-52780587D01*
X51717342Y-52587157D01*
X51552843Y-52422658D01*
X51359413Y-52293412D01*
X51144485Y-52204386D01*
X50916318Y-52159000D01*
X50683682Y-52159000D01*
X50455515Y-52204386D01*
X50240587Y-52293412D01*
X50047157Y-52422658D01*
X49882658Y-52587157D01*
X49779195Y-52742000D01*
X48021495Y-52742000D01*
X48080898Y-52653097D01*
X48173693Y-52429069D01*
X48221000Y-52191243D01*
X48221000Y-51948757D01*
X48173693Y-51710931D01*
X48080898Y-51486903D01*
X48021495Y-51398000D01*
X49779195Y-51398000D01*
X49882658Y-51552843D01*
X50047157Y-51717342D01*
X50240587Y-51846588D01*
X50455515Y-51935614D01*
X50683682Y-51981000D01*
X50916318Y-51981000D01*
X51144485Y-51935614D01*
X51359413Y-51846588D01*
X51552843Y-51717342D01*
X51717342Y-51552843D01*
X51846588Y-51359413D01*
X51935614Y-51144485D01*
X51981000Y-50916318D01*
X51981000Y-50683682D01*
X51935614Y-50455515D01*
X51846588Y-50240587D01*
X51717342Y-50047157D01*
X51552843Y-49882658D01*
X51359413Y-49753412D01*
X51144485Y-49664386D01*
X50916318Y-49619000D01*
X50683682Y-49619000D01*
X50455515Y-49664386D01*
X50240587Y-49753412D01*
X50047157Y-49882658D01*
X49882658Y-50047157D01*
X49779195Y-50202000D01*
X48021495Y-50202000D01*
X48080898Y-50113097D01*
X48173693Y-49889069D01*
X48221000Y-49651243D01*
X48221000Y-49408757D01*
X48173693Y-49170931D01*
X48080898Y-48946903D01*
X48021495Y-48858000D01*
X49779195Y-48858000D01*
X49882658Y-49012843D01*
X50047157Y-49177342D01*
X50240587Y-49306588D01*
X50455515Y-49395614D01*
X50683682Y-49441000D01*
X50916318Y-49441000D01*
X51144485Y-49395614D01*
X51359413Y-49306588D01*
X51552843Y-49177342D01*
X51717342Y-49012843D01*
X51846588Y-48819413D01*
X51935614Y-48604485D01*
X51981000Y-48376318D01*
X51981000Y-48143682D01*
X51935614Y-47915515D01*
X51846588Y-47700587D01*
X51717342Y-47507157D01*
X51552843Y-47342658D01*
X51359413Y-47213412D01*
X51144485Y-47124386D01*
X50916318Y-47079000D01*
X50683682Y-47079000D01*
X50455515Y-47124386D01*
X50240587Y-47213412D01*
X50047157Y-47342658D01*
X49934517Y-47455298D01*
X49895721Y-47361635D01*
X49834873Y-47270571D01*
X49757429Y-47193127D01*
X49666365Y-47132279D01*
X49565179Y-47090367D01*
X49457761Y-47069000D01*
X49348239Y-47069000D01*
X49240821Y-47090367D01*
X49139635Y-47132279D01*
X49048571Y-47193127D01*
X48971127Y-47270571D01*
X48910279Y-47361635D01*
X48868367Y-47462821D01*
X48847000Y-47570239D01*
X48847000Y-47662000D01*
X48021495Y-47662000D01*
X48080898Y-47573097D01*
X48173693Y-47349069D01*
X48221000Y-47111243D01*
X48221000Y-46868757D01*
X48173693Y-46630931D01*
X48080898Y-46406903D01*
X48021495Y-46318000D01*
X49779195Y-46318000D01*
X49882658Y-46472843D01*
X50047157Y-46637342D01*
X50240587Y-46766588D01*
X50455515Y-46855614D01*
X50683682Y-46901000D01*
X50916318Y-46901000D01*
X51144485Y-46855614D01*
X51359413Y-46766588D01*
X51552843Y-46637342D01*
X51717342Y-46472843D01*
X51846588Y-46279413D01*
X51935614Y-46064485D01*
X51981000Y-45836318D01*
X51981000Y-45603682D01*
X51935614Y-45375515D01*
X51846588Y-45160587D01*
X51717342Y-44967157D01*
X51552843Y-44802658D01*
X51359413Y-44673412D01*
X51144485Y-44584386D01*
X50916318Y-44539000D01*
X50683682Y-44539000D01*
X50455515Y-44584386D01*
X50240587Y-44673412D01*
X50047157Y-44802658D01*
X49882658Y-44967157D01*
X49779195Y-45122000D01*
X48021495Y-45122000D01*
X48080898Y-45033097D01*
X48173693Y-44809069D01*
X48221000Y-44571243D01*
X48221000Y-44328757D01*
X48173693Y-44090931D01*
X48080898Y-43866903D01*
X48021495Y-43778000D01*
X49779195Y-43778000D01*
X49882658Y-43932843D01*
X50047157Y-44097342D01*
X50240587Y-44226588D01*
X50455515Y-44315614D01*
X50683682Y-44361000D01*
X50916318Y-44361000D01*
X51144485Y-44315614D01*
X51359413Y-44226588D01*
X51552843Y-44097342D01*
X51717342Y-43932843D01*
X51846588Y-43739413D01*
X51935614Y-43524485D01*
X51981000Y-43296318D01*
X51981000Y-43063682D01*
X51935614Y-42835515D01*
X51846588Y-42620587D01*
X51717342Y-42427157D01*
X51552843Y-42262658D01*
X51359413Y-42133412D01*
X51144485Y-42044386D01*
X50916318Y-41999000D01*
X50683682Y-41999000D01*
X50455515Y-42044386D01*
X50240587Y-42133412D01*
X50047157Y-42262658D01*
X49882658Y-42427157D01*
X49779195Y-42582000D01*
X48021495Y-42582000D01*
X48080898Y-42493097D01*
X48173693Y-42269069D01*
X48221000Y-42031243D01*
X48221000Y-41788757D01*
X48173693Y-41550931D01*
X48080898Y-41326903D01*
X48021495Y-41238000D01*
X49779195Y-41238000D01*
X49882658Y-41392843D01*
X50047157Y-41557342D01*
X50240587Y-41686588D01*
X50455515Y-41775614D01*
X50683682Y-41821000D01*
X50916318Y-41821000D01*
X51144485Y-41775614D01*
X51359413Y-41686588D01*
X51552843Y-41557342D01*
X51717342Y-41392843D01*
X51846588Y-41199413D01*
X51935614Y-40984485D01*
X51981000Y-40756318D01*
X51981000Y-40523682D01*
X51935614Y-40295515D01*
X51846588Y-40080587D01*
X51717342Y-39887157D01*
X51552843Y-39722658D01*
X51359413Y-39593412D01*
X51144485Y-39504386D01*
X50916318Y-39459000D01*
X50683682Y-39459000D01*
X50455515Y-39504386D01*
X50240587Y-39593412D01*
X50211165Y-39613071D01*
X50217487Y-39597809D01*
X50247500Y-39446922D01*
X50247500Y-39293078D01*
X50217487Y-39142191D01*
X50211165Y-39126929D01*
X50240587Y-39146588D01*
X50455515Y-39235614D01*
X50683682Y-39281000D01*
X50916318Y-39281000D01*
X51144485Y-39235614D01*
X51359413Y-39146588D01*
X51552843Y-39017342D01*
X51717342Y-38852843D01*
X51846588Y-38659413D01*
X51935614Y-38444485D01*
X51981000Y-38216318D01*
X51981000Y-37983682D01*
X51935614Y-37755515D01*
X51846588Y-37540587D01*
X51806773Y-37480999D01*
X51987631Y-37480999D01*
X52017001Y-37483892D01*
X52046371Y-37480999D01*
X52046374Y-37480999D01*
X52134229Y-37472346D01*
X52246953Y-37438152D01*
X52350839Y-37382623D01*
X52441897Y-37307895D01*
X52460627Y-37285072D01*
X53041032Y-36704668D01*
X53223682Y-36741000D01*
X53456318Y-36741000D01*
X53684485Y-36695614D01*
X53899413Y-36606588D01*
X54092843Y-36477342D01*
X54241442Y-36328743D01*
X55271776Y-37359078D01*
X55290502Y-37381896D01*
X55381560Y-37456624D01*
X55466451Y-37502000D01*
X54360805Y-37502000D01*
X54257342Y-37347157D01*
X54092843Y-37182658D01*
X53899413Y-37053412D01*
X53684485Y-36964386D01*
X53456318Y-36919000D01*
X53223682Y-36919000D01*
X52995515Y-36964386D01*
X52780587Y-37053412D01*
X52587157Y-37182658D01*
X52422658Y-37347157D01*
X52293412Y-37540587D01*
X52204386Y-37755515D01*
X52159000Y-37983682D01*
X52159000Y-38216318D01*
X52204386Y-38444485D01*
X52293412Y-38659413D01*
X52422658Y-38852843D01*
X52587157Y-39017342D01*
X52780587Y-39146588D01*
X52995515Y-39235614D01*
X53223682Y-39281000D01*
X53456318Y-39281000D01*
X53684485Y-39235614D01*
X53899413Y-39146588D01*
X54092843Y-39017342D01*
X54257342Y-38852843D01*
X54360805Y-38698000D01*
X61438244Y-38698000D01*
X61419779Y-38725635D01*
X61377867Y-38826821D01*
X61356500Y-38934239D01*
X61356500Y-39043761D01*
X61377867Y-39151179D01*
X61419779Y-39252365D01*
X61480627Y-39343429D01*
X61558071Y-39420873D01*
X61649135Y-39481721D01*
X61750321Y-39523633D01*
X61857739Y-39545000D01*
X61967261Y-39545000D01*
X62074679Y-39523633D01*
X62175865Y-39481721D01*
X62266929Y-39420873D01*
X62344373Y-39343429D01*
X62405221Y-39252365D01*
X62447133Y-39151179D01*
X62468500Y-39043761D01*
X62468500Y-38934239D01*
X62447133Y-38826821D01*
X62405221Y-38725635D01*
X62386756Y-38698000D01*
X65019195Y-38698000D01*
X65122658Y-38852843D01*
X65287157Y-39017342D01*
X65480587Y-39146588D01*
X65695515Y-39235614D01*
X65923682Y-39281000D01*
X66156318Y-39281000D01*
X66318411Y-39248757D01*
X68619000Y-39248757D01*
X68619000Y-39491243D01*
X68666307Y-39729069D01*
X68759102Y-39953097D01*
X68893820Y-40154717D01*
X69065283Y-40326180D01*
X69266903Y-40460898D01*
X69490931Y-40553693D01*
X69728757Y-40601000D01*
X69971243Y-40601000D01*
X70209069Y-40553693D01*
X70433097Y-40460898D01*
X70634717Y-40326180D01*
X70806180Y-40154717D01*
X70940898Y-39953097D01*
X71033693Y-39729069D01*
X71081000Y-39491243D01*
X71081000Y-39248757D01*
X71033693Y-39010931D01*
X70940898Y-38786903D01*
X70806180Y-38585283D01*
X70634717Y-38413820D01*
X70433097Y-38279102D01*
X70209069Y-38186307D01*
X69971243Y-38139000D01*
X69728757Y-38139000D01*
X69490931Y-38186307D01*
X69266903Y-38279102D01*
X69065283Y-38413820D01*
X68893820Y-38585283D01*
X68759102Y-38786903D01*
X68666307Y-39010931D01*
X68619000Y-39248757D01*
X66318411Y-39248757D01*
X66384485Y-39235614D01*
X66599413Y-39146588D01*
X66792843Y-39017342D01*
X66957342Y-38852843D01*
X67086588Y-38659413D01*
X67175614Y-38444485D01*
X67221000Y-38216318D01*
X67221000Y-37983682D01*
X67175614Y-37755515D01*
X67086588Y-37540587D01*
X67043432Y-37475999D01*
X67296131Y-37475999D01*
X67325501Y-37478892D01*
X67354871Y-37475999D01*
X67354874Y-37475999D01*
X67442729Y-37467346D01*
X67555453Y-37433152D01*
X67659339Y-37377623D01*
X67750397Y-37302895D01*
X67769128Y-37280071D01*
X67944119Y-37105079D01*
X68000124Y-37036838D01*
X68055653Y-36932951D01*
X68089846Y-36820229D01*
X68100825Y-36708757D01*
X68619000Y-36708757D01*
X68619000Y-36951243D01*
X68666307Y-37189069D01*
X68759102Y-37413097D01*
X68893820Y-37614717D01*
X69065283Y-37786180D01*
X69266903Y-37920898D01*
X69490931Y-38013693D01*
X69728757Y-38061000D01*
X69971243Y-38061000D01*
X70209069Y-38013693D01*
X70433097Y-37920898D01*
X70634717Y-37786180D01*
X70806180Y-37614717D01*
X70940898Y-37413097D01*
X71033693Y-37189069D01*
X71081000Y-36951243D01*
X71081000Y-36708757D01*
X71033693Y-36470931D01*
X70940898Y-36246903D01*
X70806180Y-36045283D01*
X70634717Y-35873820D01*
X70433097Y-35739102D01*
X70209069Y-35646307D01*
X69971243Y-35599000D01*
X69728757Y-35599000D01*
X69490931Y-35646307D01*
X69266903Y-35739102D01*
X69065283Y-35873820D01*
X68893820Y-36045283D01*
X68759102Y-36246903D01*
X68666307Y-36470931D01*
X68619000Y-36708757D01*
X68100825Y-36708757D01*
X68101393Y-36703000D01*
X68089846Y-36585772D01*
X68055653Y-36473049D01*
X68000124Y-36369162D01*
X67925395Y-36278105D01*
X67834338Y-36203376D01*
X67730451Y-36147847D01*
X67617728Y-36113654D01*
X67500500Y-36102107D01*
X67383271Y-36113654D01*
X67270549Y-36147847D01*
X67166662Y-36203376D01*
X67098421Y-36259381D01*
X67077803Y-36279999D01*
X66979288Y-36279999D01*
X67086588Y-36119413D01*
X67175614Y-35904485D01*
X67221000Y-35676318D01*
X67221000Y-35443682D01*
X67175614Y-35215515D01*
X67086588Y-35000587D01*
X67052787Y-34950000D01*
X72619000Y-34950000D01*
X72619000Y-43632586D01*
G36*
X45899102Y-54026903D02*
G01*
X45806307Y-54250931D01*
X45759000Y-54488757D01*
X45759000Y-54731243D01*
X45806307Y-54969069D01*
X45899102Y-55193097D01*
X45958505Y-55282000D01*
X43799500Y-55282000D01*
X43799500Y-55190239D01*
X43778133Y-55082821D01*
X43736221Y-54981635D01*
X43675373Y-54890571D01*
X43597929Y-54813127D01*
X43506865Y-54752279D01*
X43405679Y-54710367D01*
X43298261Y-54689000D01*
X43188739Y-54689000D01*
X43081321Y-54710367D01*
X42980135Y-54752279D01*
X42889071Y-54813127D01*
X42811627Y-54890571D01*
X42750779Y-54981635D01*
X42708867Y-55082821D01*
X42687500Y-55190239D01*
X42687500Y-55282000D01*
X39120805Y-55282000D01*
X39017342Y-55127157D01*
X38852843Y-54962658D01*
X38659413Y-54833412D01*
X38444485Y-54744386D01*
X38216318Y-54699000D01*
X37983682Y-54699000D01*
X37755515Y-54744386D01*
X37540587Y-54833412D01*
X37490000Y-54867213D01*
X37490000Y-54352787D01*
X37540587Y-54386588D01*
X37755515Y-54475614D01*
X37983682Y-54521000D01*
X38216318Y-54521000D01*
X38444485Y-54475614D01*
X38659413Y-54386588D01*
X38852843Y-54257342D01*
X39017342Y-54092843D01*
X39120805Y-53938000D01*
X45958505Y-53938000D01*
X45899102Y-54026903D01*
G37*
X45899102Y-54026903D02*
X45806307Y-54250931D01*
X45759000Y-54488757D01*
X45759000Y-54731243D01*
X45806307Y-54969069D01*
X45899102Y-55193097D01*
X45958505Y-55282000D01*
X43799500Y-55282000D01*
X43799500Y-55190239D01*
X43778133Y-55082821D01*
X43736221Y-54981635D01*
X43675373Y-54890571D01*
X43597929Y-54813127D01*
X43506865Y-54752279D01*
X43405679Y-54710367D01*
X43298261Y-54689000D01*
X43188739Y-54689000D01*
X43081321Y-54710367D01*
X42980135Y-54752279D01*
X42889071Y-54813127D01*
X42811627Y-54890571D01*
X42750779Y-54981635D01*
X42708867Y-55082821D01*
X42687500Y-55190239D01*
X42687500Y-55282000D01*
X39120805Y-55282000D01*
X39017342Y-55127157D01*
X38852843Y-54962658D01*
X38659413Y-54833412D01*
X38444485Y-54744386D01*
X38216318Y-54699000D01*
X37983682Y-54699000D01*
X37755515Y-54744386D01*
X37540587Y-54833412D01*
X37490000Y-54867213D01*
X37490000Y-54352787D01*
X37540587Y-54386588D01*
X37755515Y-54475614D01*
X37983682Y-54521000D01*
X38216318Y-54521000D01*
X38444485Y-54475614D01*
X38659413Y-54386588D01*
X38852843Y-54257342D01*
X39017342Y-54092843D01*
X39120805Y-53938000D01*
X45958505Y-53938000D01*
X45899102Y-54026903D01*
M02*
