G04 #@! TF.GenerationSoftware,KiCad,Pcbnew,(5.1.5)-3*
G04 #@! TF.CreationDate,2020-05-12T20:02:37-04:00*
G04 #@! TF.ProjectId,6526ESP32,36353236-4553-4503-9332-2e6b69636164,rev?*
G04 #@! TF.SameCoordinates,Original*
G04 #@! TF.FileFunction,Legend,Top*
G04 #@! TF.FilePolarity,Positive*
%FSLAX46Y46*%
G04 Gerber Fmt 4.6, Leading zero omitted, Abs format (unit mm)*
G04 Created by KiCad (PCBNEW (5.1.5)-3) date 2020-05-12 20:02:37*
%MOMM*%
%LPD*%
G04 APERTURE LIST*
%ADD10C,0.250000*%
%ADD11C,0.120000*%
%ADD12C,0.150000*%
G04 APERTURE END LIST*
D10*
X39561933Y-69119266D02*
X40561933Y-69119266D01*
X40761933Y-69185933D01*
X40895266Y-69319266D01*
X40961933Y-69519266D01*
X40961933Y-69652600D01*
X40961933Y-67852600D02*
X40228600Y-67852600D01*
X40095266Y-67919266D01*
X40028600Y-68052600D01*
X40028600Y-68319266D01*
X40095266Y-68452600D01*
X40895266Y-67852600D02*
X40961933Y-67985933D01*
X40961933Y-68319266D01*
X40895266Y-68452600D01*
X40761933Y-68519266D01*
X40628600Y-68519266D01*
X40495266Y-68452600D01*
X40428600Y-68319266D01*
X40428600Y-67985933D01*
X40361933Y-67852600D01*
X40028600Y-67319266D02*
X40961933Y-66985933D01*
X40028600Y-66652600D02*
X40961933Y-66985933D01*
X41295266Y-67119266D01*
X41361933Y-67185933D01*
X41428600Y-67319266D01*
X40895266Y-66185933D02*
X40961933Y-66052600D01*
X40961933Y-65785933D01*
X40895266Y-65652600D01*
X40761933Y-65585933D01*
X40695266Y-65585933D01*
X40561933Y-65652600D01*
X40495266Y-65785933D01*
X40495266Y-65985933D01*
X40428600Y-66119266D01*
X40295266Y-66185933D01*
X40228600Y-66185933D01*
X40095266Y-66119266D01*
X40028600Y-65985933D01*
X40028600Y-65785933D01*
X40095266Y-65652600D01*
X40028600Y-65185933D02*
X40028600Y-64652600D01*
X39561933Y-64985933D02*
X40761933Y-64985933D01*
X40895266Y-64919266D01*
X40961933Y-64785933D01*
X40961933Y-64652600D01*
X40961933Y-63985933D02*
X40895266Y-64119266D01*
X40828600Y-64185933D01*
X40695266Y-64252600D01*
X40295266Y-64252600D01*
X40161933Y-64185933D01*
X40095266Y-64119266D01*
X40028600Y-63985933D01*
X40028600Y-63785933D01*
X40095266Y-63652600D01*
X40161933Y-63585933D01*
X40295266Y-63519266D01*
X40695266Y-63519266D01*
X40828600Y-63585933D01*
X40895266Y-63652600D01*
X40961933Y-63785933D01*
X40961933Y-63985933D01*
X40028600Y-62919266D02*
X40961933Y-62919266D01*
X40161933Y-62919266D02*
X40095266Y-62852600D01*
X40028600Y-62719266D01*
X40028600Y-62519266D01*
X40095266Y-62385933D01*
X40228600Y-62319266D01*
X40961933Y-62319266D01*
X40961933Y-61652600D02*
X40028600Y-61652600D01*
X39561933Y-61652600D02*
X39628600Y-61719266D01*
X39695266Y-61652600D01*
X39628600Y-61585933D01*
X39561933Y-61652600D01*
X39695266Y-61652600D01*
X40961933Y-60385933D02*
X40228600Y-60385933D01*
X40095266Y-60452600D01*
X40028600Y-60585933D01*
X40028600Y-60852600D01*
X40095266Y-60985933D01*
X40895266Y-60385933D02*
X40961933Y-60519266D01*
X40961933Y-60852600D01*
X40895266Y-60985933D01*
X40761933Y-61052600D01*
X40628600Y-61052600D01*
X40495266Y-60985933D01*
X40428600Y-60852600D01*
X40428600Y-60519266D01*
X40361933Y-60385933D01*
X40028600Y-59719266D02*
X40961933Y-59719266D01*
X40161933Y-59719266D02*
X40095266Y-59652600D01*
X40028600Y-59519266D01*
X40028600Y-59319266D01*
X40095266Y-59185933D01*
X40228600Y-59119266D01*
X40961933Y-59119266D01*
X39561933Y-58385933D02*
X39828600Y-58519266D01*
X40895266Y-57852600D02*
X40961933Y-57719266D01*
X40961933Y-57452600D01*
X40895266Y-57319266D01*
X40761933Y-57252600D01*
X40695266Y-57252600D01*
X40561933Y-57319266D01*
X40495266Y-57452600D01*
X40495266Y-57652600D01*
X40428600Y-57785933D01*
X40295266Y-57852600D01*
X40228600Y-57852600D01*
X40095266Y-57785933D01*
X40028600Y-57652600D01*
X40028600Y-57452600D01*
X40095266Y-57319266D01*
X42578600Y-69519266D02*
X42578600Y-69052600D01*
X43311933Y-68852600D02*
X43311933Y-69519266D01*
X41911933Y-69519266D01*
X41911933Y-68852600D01*
X43245266Y-68319266D02*
X43311933Y-68119266D01*
X43311933Y-67785933D01*
X43245266Y-67652600D01*
X43178600Y-67585933D01*
X43045266Y-67519266D01*
X42911933Y-67519266D01*
X42778600Y-67585933D01*
X42711933Y-67652600D01*
X42645266Y-67785933D01*
X42578600Y-68052600D01*
X42511933Y-68185933D01*
X42445266Y-68252600D01*
X42311933Y-68319266D01*
X42178600Y-68319266D01*
X42045266Y-68252600D01*
X41978600Y-68185933D01*
X41911933Y-68052600D01*
X41911933Y-67719266D01*
X41978600Y-67519266D01*
X43311933Y-66919266D02*
X41911933Y-66919266D01*
X41911933Y-66385933D01*
X41978600Y-66252600D01*
X42045266Y-66185933D01*
X42178600Y-66119266D01*
X42378600Y-66119266D01*
X42511933Y-66185933D01*
X42578600Y-66252600D01*
X42645266Y-66385933D01*
X42645266Y-66919266D01*
X41911933Y-65652600D02*
X41911933Y-64785933D01*
X42445266Y-65252600D01*
X42445266Y-65052600D01*
X42511933Y-64919266D01*
X42578600Y-64852600D01*
X42711933Y-64785933D01*
X43045266Y-64785933D01*
X43178600Y-64852600D01*
X43245266Y-64919266D01*
X43311933Y-65052600D01*
X43311933Y-65452600D01*
X43245266Y-65585933D01*
X43178600Y-65652600D01*
X42045266Y-64252600D02*
X41978600Y-64185933D01*
X41911933Y-64052600D01*
X41911933Y-63719266D01*
X41978600Y-63585933D01*
X42045266Y-63519266D01*
X42178600Y-63452600D01*
X42311933Y-63452600D01*
X42511933Y-63519266D01*
X43311933Y-64319266D01*
X43311933Y-63452600D01*
X42778600Y-62852600D02*
X42778600Y-61785933D01*
X41911933Y-60519266D02*
X41911933Y-60785933D01*
X41978600Y-60919266D01*
X42045266Y-60985933D01*
X42245266Y-61119266D01*
X42511933Y-61185933D01*
X43045266Y-61185933D01*
X43178600Y-61119266D01*
X43245266Y-61052600D01*
X43311933Y-60919266D01*
X43311933Y-60652600D01*
X43245266Y-60519266D01*
X43178600Y-60452600D01*
X43045266Y-60385933D01*
X42711933Y-60385933D01*
X42578600Y-60452600D01*
X42511933Y-60519266D01*
X42445266Y-60652600D01*
X42445266Y-60919266D01*
X42511933Y-61052600D01*
X42578600Y-61119266D01*
X42711933Y-61185933D01*
X41911933Y-59119266D02*
X41911933Y-59785933D01*
X42578600Y-59852600D01*
X42511933Y-59785933D01*
X42445266Y-59652600D01*
X42445266Y-59319266D01*
X42511933Y-59185933D01*
X42578600Y-59119266D01*
X42711933Y-59052600D01*
X43045266Y-59052600D01*
X43178600Y-59119266D01*
X43245266Y-59185933D01*
X43311933Y-59319266D01*
X43311933Y-59652600D01*
X43245266Y-59785933D01*
X43178600Y-59852600D01*
X42045266Y-58519266D02*
X41978600Y-58452600D01*
X41911933Y-58319266D01*
X41911933Y-57985933D01*
X41978600Y-57852600D01*
X42045266Y-57785933D01*
X42178600Y-57719266D01*
X42311933Y-57719266D01*
X42511933Y-57785933D01*
X43311933Y-58585933D01*
X43311933Y-57719266D01*
X41911933Y-56519266D02*
X41911933Y-56785933D01*
X41978600Y-56919266D01*
X42045266Y-56985933D01*
X42245266Y-57119266D01*
X42511933Y-57185933D01*
X43045266Y-57185933D01*
X43178600Y-57119266D01*
X43245266Y-57052600D01*
X43311933Y-56919266D01*
X43311933Y-56652600D01*
X43245266Y-56519266D01*
X43178600Y-56452600D01*
X43045266Y-56385933D01*
X42711933Y-56385933D01*
X42578600Y-56452600D01*
X42511933Y-56519266D01*
X42445266Y-56652600D01*
X42445266Y-56919266D01*
X42511933Y-57052600D01*
X42578600Y-57119266D01*
X42711933Y-57185933D01*
D11*
X41204248Y-43486000D02*
X41726752Y-43486000D01*
X41204248Y-44906000D02*
X41726752Y-44906000D01*
X41521748Y-55574000D02*
X42044252Y-55574000D01*
X41521748Y-54154000D02*
X42044252Y-54154000D01*
X56253748Y-45200500D02*
X56776252Y-45200500D01*
X56253748Y-46620500D02*
X56776252Y-46620500D01*
X62222748Y-46620500D02*
X62745252Y-46620500D01*
X62222748Y-45200500D02*
X62745252Y-45200500D01*
X61714748Y-74156500D02*
X62237252Y-74156500D01*
X61714748Y-75576500D02*
X62237252Y-75576500D01*
D12*
X57338000Y-70125000D02*
X61788000Y-70125000D01*
X55813000Y-63225000D02*
X61788000Y-63225000D01*
X57338000Y-57425000D02*
X61788000Y-57425000D01*
X55813000Y-50525000D02*
X61788000Y-50525000D01*
X55813000Y-37825000D02*
X61788000Y-37825000D01*
X57338000Y-44725000D02*
X61788000Y-44725000D01*
X39539000Y-79160000D02*
X39664000Y-79160000D01*
X39539000Y-74510000D02*
X39764000Y-74510000D01*
X44789000Y-74510000D02*
X44564000Y-74510000D01*
X44789000Y-79160000D02*
X44564000Y-79160000D01*
X39539000Y-79160000D02*
X39539000Y-74510000D01*
X44789000Y-79160000D02*
X44789000Y-74510000D01*
X39664000Y-79160000D02*
X39664000Y-80510000D01*
D11*
X64880000Y-34230000D02*
X59420000Y-34230000D01*
X64880000Y-85150000D02*
X64880000Y-34230000D01*
X51960000Y-85150000D02*
X64880000Y-85150000D01*
X51960000Y-34230000D02*
X51960000Y-85150000D01*
X57420000Y-34230000D02*
X51960000Y-34230000D01*
X59420000Y-34230000D02*
G75*
G02X57420000Y-34230000I-1000000J0D01*
G01*
D12*
X39664000Y-51982000D02*
X39664000Y-53332000D01*
X44789000Y-51982000D02*
X44789000Y-47332000D01*
X39539000Y-51982000D02*
X39539000Y-47332000D01*
X44789000Y-51982000D02*
X44564000Y-51982000D01*
X44789000Y-47332000D02*
X44564000Y-47332000D01*
X39539000Y-47332000D02*
X39764000Y-47332000D01*
X39539000Y-51982000D02*
X39664000Y-51982000D01*
X57238000Y-76115000D02*
X57238000Y-76240000D01*
X61888000Y-76115000D02*
X61888000Y-76340000D01*
X61888000Y-81365000D02*
X61888000Y-81140000D01*
X57238000Y-81365000D02*
X57238000Y-81140000D01*
X57238000Y-76115000D02*
X61888000Y-76115000D01*
X57238000Y-81365000D02*
X61888000Y-81365000D01*
X57238000Y-76240000D02*
X55888000Y-76240000D01*
D11*
X56634748Y-74156500D02*
X57157252Y-74156500D01*
X56634748Y-75576500D02*
X57157252Y-75576500D01*
X41648748Y-71893500D02*
X42171252Y-71893500D01*
X41648748Y-70473500D02*
X42171252Y-70473500D01*
X71180000Y-35500000D02*
X48260000Y-35500000D01*
X71180000Y-84201000D02*
X71180000Y-35500000D01*
X71180000Y-84201000D02*
X45660000Y-84201000D01*
X45660000Y-38100000D02*
X45660000Y-84201000D01*
X48260000Y-38100000D02*
X45660000Y-38100000D01*
X48260000Y-35500000D02*
X48260000Y-38100000D01*
X45660000Y-35500000D02*
X45660000Y-36830000D01*
X46990000Y-35500000D02*
X45660000Y-35500000D01*
D12*
X41298833Y-42903142D02*
X41251214Y-42950761D01*
X41108357Y-42998380D01*
X41013119Y-42998380D01*
X40870261Y-42950761D01*
X40775023Y-42855523D01*
X40727404Y-42760285D01*
X40679785Y-42569809D01*
X40679785Y-42426952D01*
X40727404Y-42236476D01*
X40775023Y-42141238D01*
X40870261Y-42046000D01*
X41013119Y-41998380D01*
X41108357Y-41998380D01*
X41251214Y-42046000D01*
X41298833Y-42093619D01*
X42251214Y-42998380D02*
X41679785Y-42998380D01*
X41965500Y-42998380D02*
X41965500Y-41998380D01*
X41870261Y-42141238D01*
X41775023Y-42236476D01*
X41679785Y-42284095D01*
X41616333Y-53571142D02*
X41568714Y-53618761D01*
X41425857Y-53666380D01*
X41330619Y-53666380D01*
X41187761Y-53618761D01*
X41092523Y-53523523D01*
X41044904Y-53428285D01*
X40997285Y-53237809D01*
X40997285Y-53094952D01*
X41044904Y-52904476D01*
X41092523Y-52809238D01*
X41187761Y-52714000D01*
X41330619Y-52666380D01*
X41425857Y-52666380D01*
X41568714Y-52714000D01*
X41616333Y-52761619D01*
X41997285Y-52761619D02*
X42044904Y-52714000D01*
X42140142Y-52666380D01*
X42378238Y-52666380D01*
X42473476Y-52714000D01*
X42521095Y-52761619D01*
X42568714Y-52856857D01*
X42568714Y-52952095D01*
X42521095Y-53094952D01*
X41949666Y-53666380D01*
X42568714Y-53666380D01*
X54633833Y-44617642D02*
X54586214Y-44665261D01*
X54443357Y-44712880D01*
X54348119Y-44712880D01*
X54205261Y-44665261D01*
X54110023Y-44570023D01*
X54062404Y-44474785D01*
X54014785Y-44284309D01*
X54014785Y-44141452D01*
X54062404Y-43950976D01*
X54110023Y-43855738D01*
X54205261Y-43760500D01*
X54348119Y-43712880D01*
X54443357Y-43712880D01*
X54586214Y-43760500D01*
X54633833Y-43808119D01*
X54967166Y-43712880D02*
X55586214Y-43712880D01*
X55252880Y-44093833D01*
X55395738Y-44093833D01*
X55490976Y-44141452D01*
X55538595Y-44189071D01*
X55586214Y-44284309D01*
X55586214Y-44522404D01*
X55538595Y-44617642D01*
X55490976Y-44665261D01*
X55395738Y-44712880D01*
X55110023Y-44712880D01*
X55014785Y-44665261D01*
X54967166Y-44617642D01*
X63269833Y-44617642D02*
X63222214Y-44665261D01*
X63079357Y-44712880D01*
X62984119Y-44712880D01*
X62841261Y-44665261D01*
X62746023Y-44570023D01*
X62698404Y-44474785D01*
X62650785Y-44284309D01*
X62650785Y-44141452D01*
X62698404Y-43950976D01*
X62746023Y-43855738D01*
X62841261Y-43760500D01*
X62984119Y-43712880D01*
X63079357Y-43712880D01*
X63222214Y-43760500D01*
X63269833Y-43808119D01*
X64126976Y-44046214D02*
X64126976Y-44712880D01*
X63888880Y-43665261D02*
X63650785Y-44379547D01*
X64269833Y-44379547D01*
X61809333Y-73573642D02*
X61761714Y-73621261D01*
X61618857Y-73668880D01*
X61523619Y-73668880D01*
X61380761Y-73621261D01*
X61285523Y-73526023D01*
X61237904Y-73430785D01*
X61190285Y-73240309D01*
X61190285Y-73097452D01*
X61237904Y-72906976D01*
X61285523Y-72811738D01*
X61380761Y-72716500D01*
X61523619Y-72668880D01*
X61618857Y-72668880D01*
X61761714Y-72716500D01*
X61809333Y-72764119D01*
X62714095Y-72668880D02*
X62237904Y-72668880D01*
X62190285Y-73145071D01*
X62237904Y-73097452D01*
X62333142Y-73049833D01*
X62571238Y-73049833D01*
X62666476Y-73097452D01*
X62714095Y-73145071D01*
X62761714Y-73240309D01*
X62761714Y-73478404D01*
X62714095Y-73573642D01*
X62666476Y-73621261D01*
X62571238Y-73668880D01*
X62333142Y-73668880D01*
X62237904Y-73621261D01*
X62190285Y-73573642D01*
X56959595Y-63460380D02*
X56959595Y-64269904D01*
X57007214Y-64365142D01*
X57054833Y-64412761D01*
X57150071Y-64460380D01*
X57340547Y-64460380D01*
X57435785Y-64412761D01*
X57483404Y-64365142D01*
X57531023Y-64269904D01*
X57531023Y-63460380D01*
X57959595Y-63555619D02*
X58007214Y-63508000D01*
X58102452Y-63460380D01*
X58340547Y-63460380D01*
X58435785Y-63508000D01*
X58483404Y-63555619D01*
X58531023Y-63650857D01*
X58531023Y-63746095D01*
X58483404Y-63888952D01*
X57911976Y-64460380D01*
X58531023Y-64460380D01*
X56959595Y-50760380D02*
X56959595Y-51569904D01*
X57007214Y-51665142D01*
X57054833Y-51712761D01*
X57150071Y-51760380D01*
X57340547Y-51760380D01*
X57435785Y-51712761D01*
X57483404Y-51665142D01*
X57531023Y-51569904D01*
X57531023Y-50760380D01*
X58435785Y-51093714D02*
X58435785Y-51760380D01*
X58197690Y-50712761D02*
X57959595Y-51427047D01*
X58578642Y-51427047D01*
X56896095Y-37996880D02*
X56896095Y-38806404D01*
X56943714Y-38901642D01*
X56991333Y-38949261D01*
X57086571Y-38996880D01*
X57277047Y-38996880D01*
X57372285Y-38949261D01*
X57419904Y-38901642D01*
X57467523Y-38806404D01*
X57467523Y-37996880D01*
X58419904Y-37996880D02*
X57943714Y-37996880D01*
X57896095Y-38473071D01*
X57943714Y-38425452D01*
X58038952Y-38377833D01*
X58277047Y-38377833D01*
X58372285Y-38425452D01*
X58419904Y-38473071D01*
X58467523Y-38568309D01*
X58467523Y-38806404D01*
X58419904Y-38901642D01*
X58372285Y-38949261D01*
X58277047Y-38996880D01*
X58038952Y-38996880D01*
X57943714Y-38949261D01*
X57896095Y-38901642D01*
X40155880Y-78358904D02*
X40965404Y-78358904D01*
X41060642Y-78311285D01*
X41108261Y-78263666D01*
X41155880Y-78168428D01*
X41155880Y-77977952D01*
X41108261Y-77882714D01*
X41060642Y-77835095D01*
X40965404Y-77787476D01*
X40155880Y-77787476D01*
X41155880Y-76787476D02*
X41155880Y-77358904D01*
X41155880Y-77073190D02*
X40155880Y-77073190D01*
X40298738Y-77168428D01*
X40393976Y-77263666D01*
X40441595Y-77358904D01*
X59753595Y-34504380D02*
X59753595Y-35313904D01*
X59801214Y-35409142D01*
X59848833Y-35456761D01*
X59944071Y-35504380D01*
X60134547Y-35504380D01*
X60229785Y-35456761D01*
X60277404Y-35409142D01*
X60325023Y-35313904D01*
X60325023Y-34504380D01*
X60944071Y-34932952D02*
X60848833Y-34885333D01*
X60801214Y-34837714D01*
X60753595Y-34742476D01*
X60753595Y-34694857D01*
X60801214Y-34599619D01*
X60848833Y-34552000D01*
X60944071Y-34504380D01*
X61134547Y-34504380D01*
X61229785Y-34552000D01*
X61277404Y-34599619D01*
X61325023Y-34694857D01*
X61325023Y-34742476D01*
X61277404Y-34837714D01*
X61229785Y-34885333D01*
X61134547Y-34932952D01*
X60944071Y-34932952D01*
X60848833Y-34980571D01*
X60801214Y-35028190D01*
X60753595Y-35123428D01*
X60753595Y-35313904D01*
X60801214Y-35409142D01*
X60848833Y-35456761D01*
X60944071Y-35504380D01*
X61134547Y-35504380D01*
X61229785Y-35456761D01*
X61277404Y-35409142D01*
X61325023Y-35313904D01*
X61325023Y-35123428D01*
X61277404Y-35028190D01*
X61229785Y-34980571D01*
X61134547Y-34932952D01*
X40092380Y-51244404D02*
X40901904Y-51244404D01*
X40997142Y-51196785D01*
X41044761Y-51149166D01*
X41092380Y-51053928D01*
X41092380Y-50863452D01*
X41044761Y-50768214D01*
X40997142Y-50720595D01*
X40901904Y-50672976D01*
X40092380Y-50672976D01*
X40092380Y-50292023D02*
X40092380Y-49672976D01*
X40473333Y-50006309D01*
X40473333Y-49863452D01*
X40520952Y-49768214D01*
X40568571Y-49720595D01*
X40663809Y-49672976D01*
X40901904Y-49672976D01*
X40997142Y-49720595D01*
X41044761Y-49768214D01*
X41092380Y-49863452D01*
X41092380Y-50149166D01*
X41044761Y-50244404D01*
X40997142Y-50292023D01*
X57467595Y-76414380D02*
X57467595Y-77223904D01*
X57515214Y-77319142D01*
X57562833Y-77366761D01*
X57658071Y-77414380D01*
X57848547Y-77414380D01*
X57943785Y-77366761D01*
X57991404Y-77319142D01*
X58039023Y-77223904D01*
X58039023Y-76414380D01*
X58943785Y-76414380D02*
X58753309Y-76414380D01*
X58658071Y-76462000D01*
X58610452Y-76509619D01*
X58515214Y-76652476D01*
X58467595Y-76842952D01*
X58467595Y-77223904D01*
X58515214Y-77319142D01*
X58562833Y-77366761D01*
X58658071Y-77414380D01*
X58848547Y-77414380D01*
X58943785Y-77366761D01*
X58991404Y-77319142D01*
X59039023Y-77223904D01*
X59039023Y-76985809D01*
X58991404Y-76890571D01*
X58943785Y-76842952D01*
X58848547Y-76795333D01*
X58658071Y-76795333D01*
X58562833Y-76842952D01*
X58515214Y-76890571D01*
X58467595Y-76985809D01*
X56729333Y-73573642D02*
X56681714Y-73621261D01*
X56538857Y-73668880D01*
X56443619Y-73668880D01*
X56300761Y-73621261D01*
X56205523Y-73526023D01*
X56157904Y-73430785D01*
X56110285Y-73240309D01*
X56110285Y-73097452D01*
X56157904Y-72906976D01*
X56205523Y-72811738D01*
X56300761Y-72716500D01*
X56443619Y-72668880D01*
X56538857Y-72668880D01*
X56681714Y-72716500D01*
X56729333Y-72764119D01*
X57586476Y-72668880D02*
X57396000Y-72668880D01*
X57300761Y-72716500D01*
X57253142Y-72764119D01*
X57157904Y-72906976D01*
X57110285Y-73097452D01*
X57110285Y-73478404D01*
X57157904Y-73573642D01*
X57205523Y-73621261D01*
X57300761Y-73668880D01*
X57491238Y-73668880D01*
X57586476Y-73621261D01*
X57634095Y-73573642D01*
X57681714Y-73478404D01*
X57681714Y-73240309D01*
X57634095Y-73145071D01*
X57586476Y-73097452D01*
X57491238Y-73049833D01*
X57300761Y-73049833D01*
X57205523Y-73097452D01*
X57157904Y-73145071D01*
X57110285Y-73240309D01*
X43800733Y-71820042D02*
X43753114Y-71867661D01*
X43610257Y-71915280D01*
X43515019Y-71915280D01*
X43372161Y-71867661D01*
X43276923Y-71772423D01*
X43229304Y-71677185D01*
X43181685Y-71486709D01*
X43181685Y-71343852D01*
X43229304Y-71153376D01*
X43276923Y-71058138D01*
X43372161Y-70962900D01*
X43515019Y-70915280D01*
X43610257Y-70915280D01*
X43753114Y-70962900D01*
X43800733Y-71010519D01*
X44134066Y-70915280D02*
X44800733Y-70915280D01*
X44372161Y-71915280D01*
X47498095Y-33512380D02*
X47498095Y-34321904D01*
X47545714Y-34417142D01*
X47593333Y-34464761D01*
X47688571Y-34512380D01*
X47879047Y-34512380D01*
X47974285Y-34464761D01*
X48021904Y-34417142D01*
X48069523Y-34321904D01*
X48069523Y-33512380D01*
X48593333Y-34512380D02*
X48783809Y-34512380D01*
X48879047Y-34464761D01*
X48926666Y-34417142D01*
X49021904Y-34274285D01*
X49069523Y-34083809D01*
X49069523Y-33702857D01*
X49021904Y-33607619D01*
X48974285Y-33560000D01*
X48879047Y-33512380D01*
X48688571Y-33512380D01*
X48593333Y-33560000D01*
X48545714Y-33607619D01*
X48498095Y-33702857D01*
X48498095Y-33940952D01*
X48545714Y-34036190D01*
X48593333Y-34083809D01*
X48688571Y-34131428D01*
X48879047Y-34131428D01*
X48974285Y-34083809D01*
X49021904Y-34036190D01*
X49069523Y-33940952D01*
M02*
