%FSLAX45Y45*%
G04 Gerber Fmt 4.5, Leading zero omitted, Abs format (unit mm)*
G04 Created by KiCad (PCBNEW (5.1.5)-3) date 2020-05-12 20:02:41*
%MOMM*%
%LPD*%
G04 APERTURE LIST*
%TA.AperFunction,Profile*%
%ADD10C,0.050000*%
%TD*%
%ADD11C,0.200000*%
%ADD12C,0.300000*%
G04 APERTURE END LIST*
D10*
X7302500Y-8483600D02*
X7302500Y-8362950D01*
X3708400Y-8483600D02*
X3708400Y-3454400D01*
X3708400Y-8483600D02*
X7302500Y-8483600D01*
X7302500Y-3454400D02*
X7302500Y-8362950D01*
X3708400Y-3454400D02*
X7302500Y-3454400D01*
D11*
X3991850Y-4372850D02*
X4021850Y-4402850D01*
X4021850Y-4372850D02*
X3991850Y-4402850D01*
X4004550Y-4709400D02*
X4034550Y-4739400D01*
X4034550Y-4709400D02*
X4004550Y-4739400D01*
X4004550Y-7433550D02*
X4034550Y-7463550D01*
X4034550Y-7433550D02*
X4004550Y-7463550D01*
X4006400Y-5417000D02*
X4036400Y-5447000D01*
X4036400Y-5417000D02*
X4006400Y-5447000D01*
X4006400Y-7171350D02*
X4036400Y-7201350D01*
X4036400Y-7171350D02*
X4006400Y-7201350D01*
X4068050Y-4722100D02*
X4098050Y-4752100D01*
X4098050Y-4722100D02*
X4068050Y-4752100D01*
X4068050Y-7605000D02*
X4098050Y-7635000D01*
X4098050Y-7605000D02*
X4068050Y-7635000D01*
X4071400Y-7963500D02*
X4101400Y-7993500D01*
X4101400Y-7963500D02*
X4071400Y-7993500D01*
X4137900Y-3541000D02*
X4167900Y-3571000D01*
X4167900Y-3541000D02*
X4137900Y-3571000D01*
X4201400Y-7795500D02*
X4231400Y-7825500D01*
X4231400Y-7795500D02*
X4201400Y-7825500D01*
X4264900Y-4366500D02*
X4294900Y-4396500D01*
X4294900Y-4366500D02*
X4264900Y-4396500D01*
X4309350Y-5509500D02*
X4339350Y-5539500D01*
X4339350Y-5509500D02*
X4309350Y-5539500D01*
X4322050Y-7160500D02*
X4352050Y-7190500D01*
X4352050Y-7160500D02*
X4322050Y-7190500D01*
X4334750Y-7433550D02*
X4364750Y-7463550D01*
X4364750Y-7433550D02*
X4334750Y-7463550D01*
X4391900Y-7795500D02*
X4421900Y-7825500D01*
X4421900Y-7795500D02*
X4391900Y-7825500D01*
X4404600Y-5192000D02*
X4434600Y-5222000D01*
X4434600Y-5192000D02*
X4404600Y-5222000D01*
X4410950Y-8024100D02*
X4440950Y-8054100D01*
X4440950Y-8024100D02*
X4410950Y-8054100D01*
X4493500Y-4303000D02*
X4523500Y-4333000D01*
X4523500Y-4303000D02*
X4493500Y-4333000D01*
X4557300Y-5001800D02*
X4587300Y-5031800D01*
X4587300Y-5001800D02*
X4557300Y-5031800D01*
X4557300Y-7287200D02*
X4587300Y-7317200D01*
X4587300Y-7287200D02*
X4557300Y-7317200D01*
X4811000Y-5636500D02*
X4841000Y-5666500D01*
X4841000Y-5636500D02*
X4811000Y-5666500D01*
X4918950Y-7668500D02*
X4948950Y-7698500D01*
X4948950Y-7668500D02*
X4918950Y-7698500D01*
X4918950Y-7922500D02*
X4948950Y-7952500D01*
X4948950Y-7922500D02*
X4918950Y-7952500D01*
X4925300Y-4747500D02*
X4955300Y-4777500D01*
X4955300Y-4747500D02*
X4925300Y-4777500D01*
X5439650Y-5636500D02*
X5469650Y-5666500D01*
X5469650Y-5636500D02*
X5439650Y-5666500D01*
X5452350Y-6627100D02*
X5482350Y-6657100D01*
X5482350Y-6627100D02*
X5452350Y-6657100D01*
X5463414Y-6968364D02*
X5493414Y-6998364D01*
X5493414Y-6968364D02*
X5463414Y-6998364D01*
X5490450Y-4080750D02*
X5520450Y-4110750D01*
X5520450Y-4080750D02*
X5490450Y-4110750D01*
X5503150Y-4626850D02*
X5533150Y-4656850D01*
X5533150Y-4626850D02*
X5503150Y-4656850D01*
X5515850Y-6208000D02*
X5545850Y-6238000D01*
X5545850Y-6208000D02*
X5515850Y-6238000D01*
X5534900Y-7427200D02*
X5564900Y-7457200D01*
X5564900Y-7427200D02*
X5534900Y-7457200D01*
X5562350Y-4745450D02*
X5592350Y-4775450D01*
X5592350Y-4745450D02*
X5562350Y-4775450D01*
X5579350Y-5153900D02*
X5609350Y-5183900D01*
X5609350Y-5153900D02*
X5579350Y-5183900D01*
X5579350Y-5223750D02*
X5609350Y-5253750D01*
X5609350Y-5223750D02*
X5579350Y-5253750D01*
X5579350Y-7859000D02*
X5609350Y-7889000D01*
X5609350Y-7859000D02*
X5579350Y-7889000D01*
X5585700Y-3883900D02*
X5615700Y-3913900D01*
X5615700Y-3883900D02*
X5585700Y-3913900D01*
X5585700Y-5890500D02*
X5615700Y-5920500D01*
X5615700Y-5890500D02*
X5585700Y-5920500D01*
X5585700Y-6747750D02*
X5615700Y-6777750D01*
X5615700Y-6747750D02*
X5585700Y-6777750D01*
X5649200Y-5414250D02*
X5679200Y-5444250D01*
X5679200Y-5414250D02*
X5649200Y-5444250D01*
X5649200Y-5763500D02*
X5679200Y-5793500D01*
X5679200Y-5763500D02*
X5649200Y-5793500D01*
X5706350Y-6423900D02*
X5736350Y-6453900D01*
X5736350Y-6423900D02*
X5706350Y-6453900D01*
X5706350Y-8049500D02*
X5736350Y-8079500D01*
X5736350Y-8049500D02*
X5706350Y-8079500D01*
X5712700Y-5477750D02*
X5742700Y-5507750D01*
X5742700Y-5477750D02*
X5712700Y-5507750D01*
X5731750Y-6271500D02*
X5761750Y-6301500D01*
X5761750Y-6271500D02*
X5731750Y-6301500D01*
X5751360Y-3950000D02*
X5781360Y-3980000D01*
X5781360Y-3950000D02*
X5751360Y-3980000D01*
X5769850Y-4626850D02*
X5799850Y-4656850D01*
X5799850Y-4626850D02*
X5769850Y-4656850D01*
X5795250Y-5166600D02*
X5825250Y-5196600D01*
X5825250Y-5166600D02*
X5795250Y-5196600D01*
X5801600Y-5954000D02*
X5831600Y-5984000D01*
X5831600Y-5954000D02*
X5801600Y-5984000D01*
X5807950Y-7420850D02*
X5837950Y-7450850D01*
X5837950Y-7420850D02*
X5807950Y-7450850D01*
X5839700Y-4684000D02*
X5869700Y-4714000D01*
X5869700Y-4684000D02*
X5839700Y-4714000D01*
X5865100Y-6081000D02*
X5895100Y-6111000D01*
X5895100Y-6081000D02*
X5865100Y-6111000D01*
X5865100Y-6684250D02*
X5895100Y-6714250D01*
X5895100Y-6684250D02*
X5865100Y-6714250D01*
X5903398Y-5395002D02*
X5933398Y-5425002D01*
X5933398Y-5395002D02*
X5903398Y-5425002D01*
X5915900Y-3661650D02*
X5945900Y-3691650D01*
X5945900Y-3661650D02*
X5915900Y-3691650D01*
X5928600Y-6335000D02*
X5958600Y-6365000D01*
X5958600Y-6335000D02*
X5928600Y-6365000D01*
X5934950Y-8233650D02*
X5964950Y-8263650D01*
X5964950Y-8233650D02*
X5934950Y-8263650D01*
X5966700Y-5255500D02*
X5996700Y-5285500D01*
X5996700Y-5255500D02*
X5966700Y-5285500D01*
X5992100Y-7097000D02*
X6022100Y-7127000D01*
X6022100Y-7097000D02*
X5992100Y-7127000D01*
X6004800Y-8049500D02*
X6034800Y-8079500D01*
X6034800Y-8049500D02*
X6004800Y-8079500D01*
X6030200Y-4811000D02*
X6060200Y-4841000D01*
X6060200Y-4811000D02*
X6030200Y-4841000D01*
X6036550Y-7433550D02*
X6066550Y-7463550D01*
X6066550Y-7433550D02*
X6036550Y-7463550D01*
X6055600Y-6843000D02*
X6085600Y-6873000D01*
X6085600Y-6843000D02*
X6055600Y-6873000D01*
X6055600Y-6906401D02*
X6085600Y-6936401D01*
X6085600Y-6906401D02*
X6055600Y-6936401D01*
X6081000Y-8367000D02*
X6111000Y-8397000D01*
X6111000Y-8367000D02*
X6081000Y-8397000D01*
X6093700Y-4366700D02*
X6123700Y-4396700D01*
X6123700Y-4366700D02*
X6093700Y-4396700D01*
X6093700Y-4874500D02*
X6123700Y-4904500D01*
X6123700Y-4874500D02*
X6093700Y-4904500D01*
X6119001Y-6411200D02*
X6149001Y-6441200D01*
X6149001Y-6411200D02*
X6119001Y-6441200D01*
X6169900Y-6620750D02*
X6199900Y-6650750D01*
X6199900Y-6620750D02*
X6169900Y-6650750D01*
X6169900Y-6747750D02*
X6199900Y-6777750D01*
X6199900Y-6747750D02*
X6169900Y-6777750D01*
X6169900Y-7795500D02*
X6199900Y-7825500D01*
X6199900Y-7795500D02*
X6169900Y-7825500D01*
X6176250Y-3883900D02*
X6206250Y-3913900D01*
X6206250Y-3883900D02*
X6176250Y-3913900D01*
X6176250Y-4417300D02*
X6206250Y-4447300D01*
X6206250Y-4417300D02*
X6176250Y-4447300D01*
X6176250Y-4620500D02*
X6206250Y-4650500D01*
X6206250Y-4620500D02*
X6176250Y-4650500D01*
X6176250Y-5153900D02*
X6206250Y-5183900D01*
X6206250Y-5153900D02*
X6176250Y-5183900D01*
X6176250Y-5680950D02*
X6206250Y-5710950D01*
X6206250Y-5680950D02*
X6176250Y-5710950D01*
X6176250Y-8049500D02*
X6206250Y-8079500D01*
X6206250Y-8049500D02*
X6176250Y-8079500D01*
X6188950Y-6423900D02*
X6218950Y-6453900D01*
X6218950Y-6423900D02*
X6188950Y-6453900D01*
X6277850Y-6487400D02*
X6307850Y-6517400D01*
X6307850Y-6487400D02*
X6277850Y-6517400D01*
X6296900Y-6950950D02*
X6326900Y-6980950D01*
X6326900Y-6950950D02*
X6296900Y-6980950D01*
X6296900Y-7668500D02*
X6326900Y-7698500D01*
X6326900Y-7668500D02*
X6296900Y-7698500D01*
X6303250Y-4144250D02*
X6333250Y-4174250D01*
X6333250Y-4144250D02*
X6303250Y-4174250D01*
X6303250Y-4207750D02*
X6333250Y-4237750D01*
X6333250Y-4207750D02*
X6303250Y-4237750D01*
X6322300Y-7420850D02*
X6352300Y-7450850D01*
X6352300Y-7420850D02*
X6322300Y-7450850D01*
X6379450Y-4620500D02*
X6409450Y-4650500D01*
X6409450Y-4620500D02*
X6379450Y-4650500D01*
X6379450Y-7160500D02*
X6409450Y-7190500D01*
X6409450Y-7160500D02*
X6379450Y-7190500D01*
X6397000Y-6754100D02*
X6427000Y-6784100D01*
X6427000Y-6754100D02*
X6397000Y-6784100D01*
X6398500Y-4366500D02*
X6428500Y-4396500D01*
X6428500Y-4366500D02*
X6398500Y-4396500D01*
X6404850Y-5673490D02*
X6434850Y-5703490D01*
X6434850Y-5673490D02*
X6404850Y-5703490D01*
X6404850Y-6589000D02*
X6434850Y-6619000D01*
X6434850Y-6589000D02*
X6404850Y-6619000D01*
X6449300Y-4747500D02*
X6479300Y-4777500D01*
X6479300Y-4747500D02*
X6449300Y-4777500D01*
X6464050Y-7158450D02*
X6494050Y-7188450D01*
X6494050Y-7158450D02*
X6464050Y-7188450D01*
X6467300Y-6272550D02*
X6497300Y-6302550D01*
X6497300Y-6272550D02*
X6467300Y-6302550D01*
X6468350Y-5890500D02*
X6498350Y-5920500D01*
X6498350Y-5890500D02*
X6468350Y-5920500D01*
X6647420Y-6716000D02*
X6677420Y-6746000D01*
X6677420Y-6716000D02*
X6647420Y-6746000D01*
X6722350Y-5077700D02*
X6752350Y-5107700D01*
X6752350Y-5077700D02*
X6722350Y-5107700D01*
X6728700Y-8163800D02*
X6758700Y-8193800D01*
X6758700Y-8163800D02*
X6728700Y-8193800D01*
X6735050Y-3655300D02*
X6765050Y-3685300D01*
X6765050Y-3655300D02*
X6735050Y-3685300D01*
X6785850Y-4061700D02*
X6815850Y-4091700D01*
X6815850Y-4061700D02*
X6785850Y-4091700D01*
X6830300Y-7884400D02*
X6860300Y-7914400D01*
X6860300Y-7884400D02*
X6830300Y-7914400D01*
X6835600Y-5459750D02*
X6865600Y-5489750D01*
X6865600Y-5459750D02*
X6835600Y-5489750D01*
X6899180Y-6080700D02*
X6929180Y-6110700D01*
X6929180Y-6080700D02*
X6899180Y-6110700D01*
X6901642Y-6581158D02*
X6931642Y-6611158D01*
X6931642Y-6581158D02*
X6901642Y-6611158D01*
X7031260Y-6588700D02*
X7061260Y-6618700D01*
X7061260Y-6588700D02*
X7031260Y-6618700D01*
X7032008Y-6082492D02*
X7062008Y-6112492D01*
X7062008Y-6082492D02*
X7032008Y-6112492D01*
X7096700Y-4265200D02*
X7126700Y-4295200D01*
X7126700Y-4265200D02*
X7096700Y-4295200D01*
X7157960Y-7048740D02*
X7187960Y-7078740D01*
X7187960Y-7048740D02*
X7157960Y-7078740D01*
X7160101Y-4341499D02*
X7190101Y-4371499D01*
X7190101Y-4341499D02*
X7160101Y-4371499D01*
X7223502Y-4398748D02*
X7253502Y-4428748D01*
X7253502Y-4398748D02*
X7223502Y-4428748D01*
X4966650Y-3937000D02*
G75*
G03X4966650Y-3937000I-20000J0D01*
G01*
X5639750Y-6000750D02*
G75*
G03X5639750Y-6000750I-20000J0D01*
G01*
X6839900Y-4914900D02*
G75*
G03X6839900Y-4914900I-20000J0D01*
G01*
X3810000Y-3516000D02*
X3810000Y-3596000D01*
X3770000Y-3556000D02*
X3850000Y-3556000D01*
X3810000Y-3770000D02*
X3810000Y-3850000D01*
X3770000Y-3810000D02*
X3850000Y-3810000D01*
X3810000Y-4024000D02*
X3810000Y-4104000D01*
X3770000Y-4064000D02*
X3850000Y-4064000D01*
X3810000Y-4278000D02*
X3810000Y-4358000D01*
X3770000Y-4318000D02*
X3850000Y-4318000D01*
X3810000Y-4532000D02*
X3810000Y-4612000D01*
X3770000Y-4572000D02*
X3850000Y-4572000D01*
X3810000Y-4786000D02*
X3810000Y-4866000D01*
X3770000Y-4826000D02*
X3850000Y-4826000D01*
X3810000Y-5040000D02*
X3810000Y-5120000D01*
X3770000Y-5080000D02*
X3850000Y-5080000D01*
X3810000Y-5294000D02*
X3810000Y-5374000D01*
X3770000Y-5334000D02*
X3850000Y-5334000D01*
X3810000Y-5548000D02*
X3810000Y-5628000D01*
X3770000Y-5588000D02*
X3850000Y-5588000D01*
X3810000Y-5802000D02*
X3810000Y-5882000D01*
X3770000Y-5842000D02*
X3850000Y-5842000D01*
X3810000Y-6056000D02*
X3810000Y-6136000D01*
X3770000Y-6096000D02*
X3850000Y-6096000D01*
X3810000Y-6310000D02*
X3810000Y-6390000D01*
X3770000Y-6350000D02*
X3850000Y-6350000D01*
X3810000Y-6564000D02*
X3810000Y-6644000D01*
X3770000Y-6604000D02*
X3850000Y-6604000D01*
X3810000Y-6818000D02*
X3810000Y-6898000D01*
X3770000Y-6858000D02*
X3850000Y-6858000D01*
X3810000Y-7072000D02*
X3810000Y-7152000D01*
X3770000Y-7112000D02*
X3850000Y-7112000D01*
X3810000Y-7326000D02*
X3810000Y-7406000D01*
X3770000Y-7366000D02*
X3850000Y-7366000D01*
X3810000Y-7580000D02*
X3810000Y-7660000D01*
X3770000Y-7620000D02*
X3850000Y-7620000D01*
X3810000Y-7834000D02*
X3810000Y-7914000D01*
X3770000Y-7874000D02*
X3850000Y-7874000D01*
X3810000Y-8088000D02*
X3810000Y-8168000D01*
X3770000Y-8128000D02*
X3850000Y-8128000D01*
X3810000Y-8342000D02*
X3810000Y-8422000D01*
X3770000Y-8382000D02*
X3850000Y-8382000D01*
X5334000Y-3516000D02*
X5334000Y-3596000D01*
X5294000Y-3556000D02*
X5374000Y-3556000D01*
X5334000Y-3770000D02*
X5334000Y-3850000D01*
X5294000Y-3810000D02*
X5374000Y-3810000D01*
X5334000Y-4024000D02*
X5334000Y-4104000D01*
X5294000Y-4064000D02*
X5374000Y-4064000D01*
X5334000Y-4278000D02*
X5334000Y-4358000D01*
X5294000Y-4318000D02*
X5374000Y-4318000D01*
X5334000Y-4532000D02*
X5334000Y-4612000D01*
X5294000Y-4572000D02*
X5374000Y-4572000D01*
X5334000Y-4786000D02*
X5334000Y-4866000D01*
X5294000Y-4826000D02*
X5374000Y-4826000D01*
X5334000Y-5040000D02*
X5334000Y-5120000D01*
X5294000Y-5080000D02*
X5374000Y-5080000D01*
X5334000Y-5294000D02*
X5334000Y-5374000D01*
X5294000Y-5334000D02*
X5374000Y-5334000D01*
X5334000Y-5548000D02*
X5334000Y-5628000D01*
X5294000Y-5588000D02*
X5374000Y-5588000D01*
X5334000Y-5802000D02*
X5334000Y-5882000D01*
X5294000Y-5842000D02*
X5374000Y-5842000D01*
X5334000Y-6056000D02*
X5334000Y-6136000D01*
X5294000Y-6096000D02*
X5374000Y-6096000D01*
X5334000Y-6310000D02*
X5334000Y-6390000D01*
X5294000Y-6350000D02*
X5374000Y-6350000D01*
X5334000Y-6564000D02*
X5334000Y-6644000D01*
X5294000Y-6604000D02*
X5374000Y-6604000D01*
X5334000Y-6818000D02*
X5334000Y-6898000D01*
X5294000Y-6858000D02*
X5374000Y-6858000D01*
X5334000Y-7072000D02*
X5334000Y-7152000D01*
X5294000Y-7112000D02*
X5374000Y-7112000D01*
X5334000Y-7326000D02*
X5334000Y-7406000D01*
X5294000Y-7366000D02*
X5374000Y-7366000D01*
X5334000Y-7580000D02*
X5334000Y-7660000D01*
X5294000Y-7620000D02*
X5374000Y-7620000D01*
X5334000Y-7834000D02*
X5334000Y-7914000D01*
X5294000Y-7874000D02*
X5374000Y-7874000D01*
X5334000Y-8088000D02*
X5334000Y-8168000D01*
X5294000Y-8128000D02*
X5374000Y-8128000D01*
X5334000Y-8342000D02*
X5334000Y-8422000D01*
X5294000Y-8382000D02*
X5374000Y-8382000D01*
X5080000Y-3516000D02*
X5080000Y-3596000D01*
X5040000Y-3556000D02*
X5120000Y-3556000D01*
X5080000Y-3770000D02*
X5080000Y-3850000D01*
X5040000Y-3810000D02*
X5120000Y-3810000D01*
X5080000Y-4024000D02*
X5080000Y-4104000D01*
X5040000Y-4064000D02*
X5120000Y-4064000D01*
X5080000Y-4278000D02*
X5080000Y-4358000D01*
X5040000Y-4318000D02*
X5120000Y-4318000D01*
X5080000Y-4532000D02*
X5080000Y-4612000D01*
X5040000Y-4572000D02*
X5120000Y-4572000D01*
X5080000Y-4786000D02*
X5080000Y-4866000D01*
X5040000Y-4826000D02*
X5120000Y-4826000D01*
X5080000Y-5040000D02*
X5080000Y-5120000D01*
X5040000Y-5080000D02*
X5120000Y-5080000D01*
X5080000Y-5294000D02*
X5080000Y-5374000D01*
X5040000Y-5334000D02*
X5120000Y-5334000D01*
X5080000Y-5548000D02*
X5080000Y-5628000D01*
X5040000Y-5588000D02*
X5120000Y-5588000D01*
X5080000Y-5802000D02*
X5080000Y-5882000D01*
X5040000Y-5842000D02*
X5120000Y-5842000D01*
X5080000Y-6056000D02*
X5080000Y-6136000D01*
X5040000Y-6096000D02*
X5120000Y-6096000D01*
X5080000Y-6310000D02*
X5080000Y-6390000D01*
X5040000Y-6350000D02*
X5120000Y-6350000D01*
X5080000Y-6564000D02*
X5080000Y-6644000D01*
X5040000Y-6604000D02*
X5120000Y-6604000D01*
X5080000Y-6818000D02*
X5080000Y-6898000D01*
X5040000Y-6858000D02*
X5120000Y-6858000D01*
X5080000Y-7072000D02*
X5080000Y-7152000D01*
X5040000Y-7112000D02*
X5120000Y-7112000D01*
X5080000Y-7326000D02*
X5080000Y-7406000D01*
X5040000Y-7366000D02*
X5120000Y-7366000D01*
X5080000Y-7580000D02*
X5080000Y-7660000D01*
X5040000Y-7620000D02*
X5120000Y-7620000D01*
X5080000Y-7834000D02*
X5080000Y-7914000D01*
X5040000Y-7874000D02*
X5120000Y-7874000D01*
X5080000Y-8088000D02*
X5080000Y-8168000D01*
X5040000Y-8128000D02*
X5120000Y-8128000D01*
X5080000Y-8342000D02*
X5080000Y-8422000D01*
X5040000Y-8382000D02*
X5120000Y-8382000D01*
X6604000Y-3516000D02*
X6604000Y-3596000D01*
X6564000Y-3556000D02*
X6644000Y-3556000D01*
X6604000Y-3770000D02*
X6604000Y-3850000D01*
X6564000Y-3810000D02*
X6644000Y-3810000D01*
X6604000Y-4024000D02*
X6604000Y-4104000D01*
X6564000Y-4064000D02*
X6644000Y-4064000D01*
X6604000Y-4278000D02*
X6604000Y-4358000D01*
X6564000Y-4318000D02*
X6644000Y-4318000D01*
X6604000Y-4532000D02*
X6604000Y-4612000D01*
X6564000Y-4572000D02*
X6644000Y-4572000D01*
X6604000Y-4786000D02*
X6604000Y-4866000D01*
X6564000Y-4826000D02*
X6644000Y-4826000D01*
X6604000Y-5040000D02*
X6604000Y-5120000D01*
X6564000Y-5080000D02*
X6644000Y-5080000D01*
X6604000Y-5294000D02*
X6604000Y-5374000D01*
X6564000Y-5334000D02*
X6644000Y-5334000D01*
X6604000Y-5548000D02*
X6604000Y-5628000D01*
X6564000Y-5588000D02*
X6644000Y-5588000D01*
X6604000Y-5802000D02*
X6604000Y-5882000D01*
X6564000Y-5842000D02*
X6644000Y-5842000D01*
X6604000Y-6056000D02*
X6604000Y-6136000D01*
X6564000Y-6096000D02*
X6644000Y-6096000D01*
X6604000Y-6310000D02*
X6604000Y-6390000D01*
X6564000Y-6350000D02*
X6644000Y-6350000D01*
X6604000Y-6564000D02*
X6604000Y-6644000D01*
X6564000Y-6604000D02*
X6644000Y-6604000D01*
X6604000Y-6818000D02*
X6604000Y-6898000D01*
X6564000Y-6858000D02*
X6644000Y-6858000D01*
X6604000Y-7072000D02*
X6604000Y-7152000D01*
X6564000Y-7112000D02*
X6644000Y-7112000D01*
X6604000Y-7326000D02*
X6604000Y-7406000D01*
X6564000Y-7366000D02*
X6644000Y-7366000D01*
X6604000Y-7580000D02*
X6604000Y-7660000D01*
X6564000Y-7620000D02*
X6644000Y-7620000D01*
X6604000Y-7834000D02*
X6604000Y-7914000D01*
X6564000Y-7874000D02*
X6644000Y-7874000D01*
X6604000Y-8088000D02*
X6604000Y-8168000D01*
X6564000Y-8128000D02*
X6644000Y-8128000D01*
X6604000Y-8342000D02*
X6604000Y-8422000D01*
X6564000Y-8382000D02*
X6644000Y-8382000D01*
X7243876Y-7424216D02*
X7243876Y-7353504D01*
X7173164Y-7353504D01*
X7173164Y-7424216D01*
X7243876Y-7424216D01*
X7243876Y-8424976D02*
X7243876Y-8354264D01*
X7173164Y-8354264D01*
X7173164Y-8424976D01*
X7243876Y-8424976D01*
X5712256Y-3591356D02*
X5712256Y-3520644D01*
X5641544Y-3520644D01*
X5641544Y-3591356D01*
X5712256Y-3591356D01*
X7243876Y-8178596D02*
X7243876Y-8107884D01*
X7173164Y-8107884D01*
X7173164Y-8178596D01*
X7243876Y-8178596D01*
X4734356Y-3718356D02*
X4734356Y-3647644D01*
X4663644Y-3647644D01*
X4663644Y-3718356D01*
X4734356Y-3718356D01*
X4734356Y-3972356D02*
X4734356Y-3901644D01*
X4663644Y-3901644D01*
X4663644Y-3972356D01*
X4734356Y-3972356D01*
X4734356Y-4226356D02*
X4734356Y-4155644D01*
X4663644Y-4155644D01*
X4663644Y-4226356D01*
X4734356Y-4226356D01*
X4734356Y-4480356D02*
X4734356Y-4409644D01*
X4663644Y-4409644D01*
X4663644Y-4480356D01*
X4734356Y-4480356D01*
X4734356Y-4734356D02*
X4734356Y-4663644D01*
X4663644Y-4663644D01*
X4663644Y-4734356D01*
X4734356Y-4734356D01*
X4734356Y-4988356D02*
X4734356Y-4917644D01*
X4663644Y-4917644D01*
X4663644Y-4988356D01*
X4734356Y-4988356D01*
X4734356Y-5242356D02*
X4734356Y-5171644D01*
X4663644Y-5171644D01*
X4663644Y-5242356D01*
X4734356Y-5242356D01*
X4734356Y-5496356D02*
X4734356Y-5425644D01*
X4663644Y-5425644D01*
X4663644Y-5496356D01*
X4734356Y-5496356D01*
X4734356Y-5750356D02*
X4734356Y-5679644D01*
X4663644Y-5679644D01*
X4663644Y-5750356D01*
X4734356Y-5750356D01*
X4734356Y-6004356D02*
X4734356Y-5933644D01*
X4663644Y-5933644D01*
X4663644Y-6004356D01*
X4734356Y-6004356D01*
X4734356Y-6258356D02*
X4734356Y-6187644D01*
X4663644Y-6187644D01*
X4663644Y-6258356D01*
X4734356Y-6258356D01*
X4734356Y-6512356D02*
X4734356Y-6441644D01*
X4663644Y-6441644D01*
X4663644Y-6512356D01*
X4734356Y-6512356D01*
X4734356Y-6766356D02*
X4734356Y-6695644D01*
X4663644Y-6695644D01*
X4663644Y-6766356D01*
X4734356Y-6766356D01*
X4734356Y-7020356D02*
X4734356Y-6949644D01*
X4663644Y-6949644D01*
X4663644Y-7020356D01*
X4734356Y-7020356D01*
X4734356Y-7274356D02*
X4734356Y-7203644D01*
X4663644Y-7203644D01*
X4663644Y-7274356D01*
X4734356Y-7274356D01*
X4734356Y-7528356D02*
X4734356Y-7457644D01*
X4663644Y-7457644D01*
X4663644Y-7528356D01*
X4734356Y-7528356D01*
X4734356Y-7782356D02*
X4734356Y-7711644D01*
X4663644Y-7711644D01*
X4663644Y-7782356D01*
X4734356Y-7782356D01*
X4734356Y-8036356D02*
X4734356Y-7965644D01*
X4663644Y-7965644D01*
X4663644Y-8036356D01*
X4734356Y-8036356D01*
X4734356Y-8290356D02*
X4734356Y-8219644D01*
X4663644Y-8219644D01*
X4663644Y-8290356D01*
X4734356Y-8290356D01*
X7020356Y-3718356D02*
X7020356Y-3647644D01*
X6949644Y-3647644D01*
X6949644Y-3718356D01*
X7020356Y-3718356D01*
X7020356Y-3972356D02*
X7020356Y-3901644D01*
X6949644Y-3901644D01*
X6949644Y-3972356D01*
X7020356Y-3972356D01*
X7020356Y-4226356D02*
X7020356Y-4155644D01*
X6949644Y-4155644D01*
X6949644Y-4226356D01*
X7020356Y-4226356D01*
X7020356Y-4480356D02*
X7020356Y-4409644D01*
X6949644Y-4409644D01*
X6949644Y-4480356D01*
X7020356Y-4480356D01*
X7020356Y-4734356D02*
X7020356Y-4663644D01*
X6949644Y-4663644D01*
X6949644Y-4734356D01*
X7020356Y-4734356D01*
X7020356Y-4988356D02*
X7020356Y-4917644D01*
X6949644Y-4917644D01*
X6949644Y-4988356D01*
X7020356Y-4988356D01*
X7020356Y-5242356D02*
X7020356Y-5171644D01*
X6949644Y-5171644D01*
X6949644Y-5242356D01*
X7020356Y-5242356D01*
X7020356Y-5496356D02*
X7020356Y-5425644D01*
X6949644Y-5425644D01*
X6949644Y-5496356D01*
X7020356Y-5496356D01*
X7020356Y-5750356D02*
X7020356Y-5679644D01*
X6949644Y-5679644D01*
X6949644Y-5750356D01*
X7020356Y-5750356D01*
X7020356Y-6004356D02*
X7020356Y-5933644D01*
X6949644Y-5933644D01*
X6949644Y-6004356D01*
X7020356Y-6004356D01*
X7020356Y-6258356D02*
X7020356Y-6187644D01*
X6949644Y-6187644D01*
X6949644Y-6258356D01*
X7020356Y-6258356D01*
X7020356Y-6512356D02*
X7020356Y-6441644D01*
X6949644Y-6441644D01*
X6949644Y-6512356D01*
X7020356Y-6512356D01*
X7020356Y-6766356D02*
X7020356Y-6695644D01*
X6949644Y-6695644D01*
X6949644Y-6766356D01*
X7020356Y-6766356D01*
X7020356Y-7020356D02*
X7020356Y-6949644D01*
X6949644Y-6949644D01*
X6949644Y-7020356D01*
X7020356Y-7020356D01*
X7020356Y-7274356D02*
X7020356Y-7203644D01*
X6949644Y-7203644D01*
X6949644Y-7274356D01*
X7020356Y-7274356D01*
X7020356Y-7528356D02*
X7020356Y-7457644D01*
X6949644Y-7457644D01*
X6949644Y-7528356D01*
X7020356Y-7528356D01*
X7020356Y-7782356D02*
X7020356Y-7711644D01*
X6949644Y-7711644D01*
X6949644Y-7782356D01*
X7020356Y-7782356D01*
X7020356Y-8036356D02*
X7020356Y-7965644D01*
X6949644Y-7965644D01*
X6949644Y-8036356D01*
X7020356Y-8036356D01*
X7020356Y-8290356D02*
X7020356Y-8219644D01*
X6949644Y-8219644D01*
X6949644Y-8290356D01*
X7020356Y-8290356D01*
X7243876Y-7802676D02*
X7243876Y-7731964D01*
X7173164Y-7731964D01*
X7173164Y-7802676D01*
X7243876Y-7802676D01*
D12*
X3846428Y-9097714D02*
X3846428Y-8797714D01*
X3917857Y-8797714D01*
X3960714Y-8812000D01*
X3989286Y-8840571D01*
X4003571Y-8869143D01*
X4017857Y-8926286D01*
X4017857Y-8969143D01*
X4003571Y-9026286D01*
X3989286Y-9054857D01*
X3960714Y-9083429D01*
X3917857Y-9097714D01*
X3846428Y-9097714D01*
X4146428Y-9097714D02*
X4146428Y-8897714D01*
X4146428Y-8954857D02*
X4160714Y-8926286D01*
X4175000Y-8912000D01*
X4203571Y-8897714D01*
X4232143Y-8897714D01*
X4332143Y-9097714D02*
X4332143Y-8897714D01*
X4332143Y-8797714D02*
X4317857Y-8812000D01*
X4332143Y-8826286D01*
X4346429Y-8812000D01*
X4332143Y-8797714D01*
X4332143Y-8826286D01*
X4517857Y-9097714D02*
X4489286Y-9083429D01*
X4475000Y-9054857D01*
X4475000Y-8797714D01*
X4675000Y-9097714D02*
X4646429Y-9083429D01*
X4632143Y-9054857D01*
X4632143Y-8797714D01*
X5017857Y-9097714D02*
X5017857Y-8797714D01*
X5117857Y-9012000D01*
X5217857Y-8797714D01*
X5217857Y-9097714D01*
X5489286Y-9097714D02*
X5489286Y-8940571D01*
X5475000Y-8912000D01*
X5446429Y-8897714D01*
X5389286Y-8897714D01*
X5360714Y-8912000D01*
X5489286Y-9083429D02*
X5460714Y-9097714D01*
X5389286Y-9097714D01*
X5360714Y-9083429D01*
X5346429Y-9054857D01*
X5346429Y-9026286D01*
X5360714Y-8997714D01*
X5389286Y-8983429D01*
X5460714Y-8983429D01*
X5489286Y-8969143D01*
X5632143Y-8897714D02*
X5632143Y-9197714D01*
X5632143Y-8912000D02*
X5660714Y-8897714D01*
X5717857Y-8897714D01*
X5746428Y-8912000D01*
X5760714Y-8926286D01*
X5775000Y-8954857D01*
X5775000Y-9040571D01*
X5760714Y-9069143D01*
X5746428Y-9083429D01*
X5717857Y-9097714D01*
X5660714Y-9097714D01*
X5632143Y-9083429D01*
X5903571Y-9069143D02*
X5917857Y-9083429D01*
X5903571Y-9097714D01*
X5889286Y-9083429D01*
X5903571Y-9069143D01*
X5903571Y-9097714D01*
X5903571Y-8912000D02*
X5917857Y-8926286D01*
X5903571Y-8940571D01*
X5889286Y-8926286D01*
X5903571Y-8912000D01*
X5903571Y-8940571D01*
X3530000Y-9577000D02*
X3560000Y-9607000D01*
X3560000Y-9577000D02*
X3530000Y-9607000D01*
X3903571Y-9427714D02*
X3932143Y-9427714D01*
X3960714Y-9442000D01*
X3975000Y-9456286D01*
X3989286Y-9484857D01*
X4003571Y-9542000D01*
X4003571Y-9613429D01*
X3989286Y-9670571D01*
X3975000Y-9699143D01*
X3960714Y-9713429D01*
X3932143Y-9727714D01*
X3903571Y-9727714D01*
X3875000Y-9713429D01*
X3860714Y-9699143D01*
X3846428Y-9670571D01*
X3832143Y-9613429D01*
X3832143Y-9542000D01*
X3846428Y-9484857D01*
X3860714Y-9456286D01*
X3875000Y-9442000D01*
X3903571Y-9427714D01*
X4132143Y-9699143D02*
X4146428Y-9713429D01*
X4132143Y-9727714D01*
X4117857Y-9713429D01*
X4132143Y-9699143D01*
X4132143Y-9727714D01*
X4246429Y-9427714D02*
X4432143Y-9427714D01*
X4332143Y-9542000D01*
X4375000Y-9542000D01*
X4403571Y-9556286D01*
X4417857Y-9570571D01*
X4432143Y-9599143D01*
X4432143Y-9670571D01*
X4417857Y-9699143D01*
X4403571Y-9713429D01*
X4375000Y-9727714D01*
X4289286Y-9727714D01*
X4260714Y-9713429D01*
X4246429Y-9699143D01*
X4617857Y-9427714D02*
X4646429Y-9427714D01*
X4675000Y-9442000D01*
X4689286Y-9456286D01*
X4703571Y-9484857D01*
X4717857Y-9542000D01*
X4717857Y-9613429D01*
X4703571Y-9670571D01*
X4689286Y-9699143D01*
X4675000Y-9713429D01*
X4646429Y-9727714D01*
X4617857Y-9727714D01*
X4589286Y-9713429D01*
X4575000Y-9699143D01*
X4560714Y-9670571D01*
X4546429Y-9613429D01*
X4546429Y-9542000D01*
X4560714Y-9484857D01*
X4575000Y-9456286D01*
X4589286Y-9442000D01*
X4617857Y-9427714D01*
X4846429Y-9727714D02*
X4846429Y-9527714D01*
X4846429Y-9556286D02*
X4860714Y-9542000D01*
X4889286Y-9527714D01*
X4932143Y-9527714D01*
X4960714Y-9542000D01*
X4975000Y-9570571D01*
X4975000Y-9727714D01*
X4975000Y-9570571D02*
X4989286Y-9542000D01*
X5017857Y-9527714D01*
X5060714Y-9527714D01*
X5089286Y-9542000D01*
X5103571Y-9570571D01*
X5103571Y-9727714D01*
X5246429Y-9727714D02*
X5246429Y-9527714D01*
X5246429Y-9556286D02*
X5260714Y-9542000D01*
X5289286Y-9527714D01*
X5332143Y-9527714D01*
X5360714Y-9542000D01*
X5375000Y-9570571D01*
X5375000Y-9727714D01*
X5375000Y-9570571D02*
X5389286Y-9542000D01*
X5417857Y-9527714D01*
X5460714Y-9527714D01*
X5489286Y-9542000D01*
X5503571Y-9570571D01*
X5503571Y-9727714D01*
X6089286Y-9413429D02*
X5832143Y-9799143D01*
X6475000Y-9427714D02*
X6503571Y-9427714D01*
X6532143Y-9442000D01*
X6546428Y-9456286D01*
X6560714Y-9484857D01*
X6575000Y-9542000D01*
X6575000Y-9613429D01*
X6560714Y-9670571D01*
X6546428Y-9699143D01*
X6532143Y-9713429D01*
X6503571Y-9727714D01*
X6475000Y-9727714D01*
X6446428Y-9713429D01*
X6432143Y-9699143D01*
X6417857Y-9670571D01*
X6403571Y-9613429D01*
X6403571Y-9542000D01*
X6417857Y-9484857D01*
X6432143Y-9456286D01*
X6446428Y-9442000D01*
X6475000Y-9427714D01*
X6703571Y-9699143D02*
X6717857Y-9713429D01*
X6703571Y-9727714D01*
X6689286Y-9713429D01*
X6703571Y-9699143D01*
X6703571Y-9727714D01*
X6903571Y-9427714D02*
X6932143Y-9427714D01*
X6960714Y-9442000D01*
X6975000Y-9456286D01*
X6989286Y-9484857D01*
X7003571Y-9542000D01*
X7003571Y-9613429D01*
X6989286Y-9670571D01*
X6975000Y-9699143D01*
X6960714Y-9713429D01*
X6932143Y-9727714D01*
X6903571Y-9727714D01*
X6875000Y-9713429D01*
X6860714Y-9699143D01*
X6846428Y-9670571D01*
X6832143Y-9613429D01*
X6832143Y-9542000D01*
X6846428Y-9484857D01*
X6860714Y-9456286D01*
X6875000Y-9442000D01*
X6903571Y-9427714D01*
X7289286Y-9727714D02*
X7117857Y-9727714D01*
X7203571Y-9727714D02*
X7203571Y-9427714D01*
X7175000Y-9470571D01*
X7146428Y-9499143D01*
X7117857Y-9513429D01*
X7403571Y-9456286D02*
X7417857Y-9442000D01*
X7446428Y-9427714D01*
X7517857Y-9427714D01*
X7546428Y-9442000D01*
X7560714Y-9456286D01*
X7575000Y-9484857D01*
X7575000Y-9513429D01*
X7560714Y-9556286D01*
X7389286Y-9727714D01*
X7575000Y-9727714D01*
X7689286Y-9427714D02*
X7689286Y-9484857D01*
X7803571Y-9427714D02*
X7803571Y-9484857D01*
X8246428Y-9842000D02*
X8232143Y-9827714D01*
X8203571Y-9784857D01*
X8189286Y-9756286D01*
X8175000Y-9713429D01*
X8160714Y-9642000D01*
X8160714Y-9584857D01*
X8175000Y-9513429D01*
X8189286Y-9470571D01*
X8203571Y-9442000D01*
X8232143Y-9399143D01*
X8246428Y-9384857D01*
X8517857Y-9727714D02*
X8346428Y-9727714D01*
X8432143Y-9727714D02*
X8432143Y-9427714D01*
X8403571Y-9470571D01*
X8375000Y-9499143D01*
X8346428Y-9513429D01*
X8703571Y-9427714D02*
X8732143Y-9427714D01*
X8760714Y-9442000D01*
X8775000Y-9456286D01*
X8789286Y-9484857D01*
X8803571Y-9542000D01*
X8803571Y-9613429D01*
X8789286Y-9670571D01*
X8775000Y-9699143D01*
X8760714Y-9713429D01*
X8732143Y-9727714D01*
X8703571Y-9727714D01*
X8675000Y-9713429D01*
X8660714Y-9699143D01*
X8646429Y-9670571D01*
X8632143Y-9613429D01*
X8632143Y-9542000D01*
X8646429Y-9484857D01*
X8660714Y-9456286D01*
X8675000Y-9442000D01*
X8703571Y-9427714D01*
X8975000Y-9556286D02*
X8946429Y-9542000D01*
X8932143Y-9527714D01*
X8917857Y-9499143D01*
X8917857Y-9484857D01*
X8932143Y-9456286D01*
X8946429Y-9442000D01*
X8975000Y-9427714D01*
X9032143Y-9427714D01*
X9060714Y-9442000D01*
X9075000Y-9456286D01*
X9089286Y-9484857D01*
X9089286Y-9499143D01*
X9075000Y-9527714D01*
X9060714Y-9542000D01*
X9032143Y-9556286D01*
X8975000Y-9556286D01*
X8946429Y-9570571D01*
X8932143Y-9584857D01*
X8917857Y-9613429D01*
X8917857Y-9670571D01*
X8932143Y-9699143D01*
X8946429Y-9713429D01*
X8975000Y-9727714D01*
X9032143Y-9727714D01*
X9060714Y-9713429D01*
X9075000Y-9699143D01*
X9089286Y-9670571D01*
X9089286Y-9613429D01*
X9075000Y-9584857D01*
X9060714Y-9570571D01*
X9032143Y-9556286D01*
X9446429Y-9727714D02*
X9446429Y-9427714D01*
X9575000Y-9727714D02*
X9575000Y-9570571D01*
X9560714Y-9542000D01*
X9532143Y-9527714D01*
X9489286Y-9527714D01*
X9460714Y-9542000D01*
X9446429Y-9556286D01*
X9760714Y-9727714D02*
X9732143Y-9713429D01*
X9717857Y-9699143D01*
X9703571Y-9670571D01*
X9703571Y-9584857D01*
X9717857Y-9556286D01*
X9732143Y-9542000D01*
X9760714Y-9527714D01*
X9803571Y-9527714D01*
X9832143Y-9542000D01*
X9846429Y-9556286D01*
X9860714Y-9584857D01*
X9860714Y-9670571D01*
X9846429Y-9699143D01*
X9832143Y-9713429D01*
X9803571Y-9727714D01*
X9760714Y-9727714D01*
X10032143Y-9727714D02*
X10003571Y-9713429D01*
X9989286Y-9684857D01*
X9989286Y-9427714D01*
X10260714Y-9713429D02*
X10232143Y-9727714D01*
X10175000Y-9727714D01*
X10146429Y-9713429D01*
X10132143Y-9684857D01*
X10132143Y-9570571D01*
X10146429Y-9542000D01*
X10175000Y-9527714D01*
X10232143Y-9527714D01*
X10260714Y-9542000D01*
X10275000Y-9570571D01*
X10275000Y-9599143D01*
X10132143Y-9627714D01*
X10389286Y-9713429D02*
X10417857Y-9727714D01*
X10475000Y-9727714D01*
X10503571Y-9713429D01*
X10517857Y-9684857D01*
X10517857Y-9670571D01*
X10503571Y-9642000D01*
X10475000Y-9627714D01*
X10432143Y-9627714D01*
X10403571Y-9613429D01*
X10389286Y-9584857D01*
X10389286Y-9570571D01*
X10403571Y-9542000D01*
X10432143Y-9527714D01*
X10475000Y-9527714D01*
X10503571Y-9542000D01*
X10617857Y-9842000D02*
X10632143Y-9827714D01*
X10660714Y-9784857D01*
X10675000Y-9756286D01*
X10689286Y-9713429D01*
X10703571Y-9642000D01*
X10703571Y-9584857D01*
X10689286Y-9513429D01*
X10675000Y-9470571D01*
X10660714Y-9442000D01*
X10632143Y-9399143D01*
X10617857Y-9384857D01*
X3560000Y-9988000D02*
G75*
G03X3560000Y-9988000I-20000J0D01*
G01*
X3903571Y-9823714D02*
X3932143Y-9823714D01*
X3960714Y-9838000D01*
X3975000Y-9852286D01*
X3989286Y-9880857D01*
X4003571Y-9938000D01*
X4003571Y-10009429D01*
X3989286Y-10066571D01*
X3975000Y-10095143D01*
X3960714Y-10109429D01*
X3932143Y-10123714D01*
X3903571Y-10123714D01*
X3875000Y-10109429D01*
X3860714Y-10095143D01*
X3846428Y-10066571D01*
X3832143Y-10009429D01*
X3832143Y-9938000D01*
X3846428Y-9880857D01*
X3860714Y-9852286D01*
X3875000Y-9838000D01*
X3903571Y-9823714D01*
X4132143Y-10095143D02*
X4146428Y-10109429D01*
X4132143Y-10123714D01*
X4117857Y-10109429D01*
X4132143Y-10095143D01*
X4132143Y-10123714D01*
X4403571Y-9923714D02*
X4403571Y-10123714D01*
X4332143Y-9809429D02*
X4260714Y-10023714D01*
X4446429Y-10023714D01*
X4617857Y-9823714D02*
X4646429Y-9823714D01*
X4675000Y-9838000D01*
X4689286Y-9852286D01*
X4703571Y-9880857D01*
X4717857Y-9938000D01*
X4717857Y-10009429D01*
X4703571Y-10066571D01*
X4689286Y-10095143D01*
X4675000Y-10109429D01*
X4646429Y-10123714D01*
X4617857Y-10123714D01*
X4589286Y-10109429D01*
X4575000Y-10095143D01*
X4560714Y-10066571D01*
X4546429Y-10009429D01*
X4546429Y-9938000D01*
X4560714Y-9880857D01*
X4575000Y-9852286D01*
X4589286Y-9838000D01*
X4617857Y-9823714D01*
X4846429Y-10123714D02*
X4846429Y-9923714D01*
X4846429Y-9952286D02*
X4860714Y-9938000D01*
X4889286Y-9923714D01*
X4932143Y-9923714D01*
X4960714Y-9938000D01*
X4975000Y-9966571D01*
X4975000Y-10123714D01*
X4975000Y-9966571D02*
X4989286Y-9938000D01*
X5017857Y-9923714D01*
X5060714Y-9923714D01*
X5089286Y-9938000D01*
X5103571Y-9966571D01*
X5103571Y-10123714D01*
X5246429Y-10123714D02*
X5246429Y-9923714D01*
X5246429Y-9952286D02*
X5260714Y-9938000D01*
X5289286Y-9923714D01*
X5332143Y-9923714D01*
X5360714Y-9938000D01*
X5375000Y-9966571D01*
X5375000Y-10123714D01*
X5375000Y-9966571D02*
X5389286Y-9938000D01*
X5417857Y-9923714D01*
X5460714Y-9923714D01*
X5489286Y-9938000D01*
X5503571Y-9966571D01*
X5503571Y-10123714D01*
X6089286Y-9809429D02*
X5832143Y-10195143D01*
X6475000Y-9823714D02*
X6503571Y-9823714D01*
X6532143Y-9838000D01*
X6546428Y-9852286D01*
X6560714Y-9880857D01*
X6575000Y-9938000D01*
X6575000Y-10009429D01*
X6560714Y-10066571D01*
X6546428Y-10095143D01*
X6532143Y-10109429D01*
X6503571Y-10123714D01*
X6475000Y-10123714D01*
X6446428Y-10109429D01*
X6432143Y-10095143D01*
X6417857Y-10066571D01*
X6403571Y-10009429D01*
X6403571Y-9938000D01*
X6417857Y-9880857D01*
X6432143Y-9852286D01*
X6446428Y-9838000D01*
X6475000Y-9823714D01*
X6703571Y-10095143D02*
X6717857Y-10109429D01*
X6703571Y-10123714D01*
X6689286Y-10109429D01*
X6703571Y-10095143D01*
X6703571Y-10123714D01*
X6903571Y-9823714D02*
X6932143Y-9823714D01*
X6960714Y-9838000D01*
X6975000Y-9852286D01*
X6989286Y-9880857D01*
X7003571Y-9938000D01*
X7003571Y-10009429D01*
X6989286Y-10066571D01*
X6975000Y-10095143D01*
X6960714Y-10109429D01*
X6932143Y-10123714D01*
X6903571Y-10123714D01*
X6875000Y-10109429D01*
X6860714Y-10095143D01*
X6846428Y-10066571D01*
X6832143Y-10009429D01*
X6832143Y-9938000D01*
X6846428Y-9880857D01*
X6860714Y-9852286D01*
X6875000Y-9838000D01*
X6903571Y-9823714D01*
X7289286Y-10123714D02*
X7117857Y-10123714D01*
X7203571Y-10123714D02*
X7203571Y-9823714D01*
X7175000Y-9866571D01*
X7146428Y-9895143D01*
X7117857Y-9909429D01*
X7546428Y-9823714D02*
X7489286Y-9823714D01*
X7460714Y-9838000D01*
X7446428Y-9852286D01*
X7417857Y-9895143D01*
X7403571Y-9952286D01*
X7403571Y-10066571D01*
X7417857Y-10095143D01*
X7432143Y-10109429D01*
X7460714Y-10123714D01*
X7517857Y-10123714D01*
X7546428Y-10109429D01*
X7560714Y-10095143D01*
X7575000Y-10066571D01*
X7575000Y-9995143D01*
X7560714Y-9966571D01*
X7546428Y-9952286D01*
X7517857Y-9938000D01*
X7460714Y-9938000D01*
X7432143Y-9952286D01*
X7417857Y-9966571D01*
X7403571Y-9995143D01*
X7689286Y-9823714D02*
X7689286Y-9880857D01*
X7803571Y-9823714D02*
X7803571Y-9880857D01*
X8246428Y-10238000D02*
X8232143Y-10223714D01*
X8203571Y-10180857D01*
X8189286Y-10152286D01*
X8175000Y-10109429D01*
X8160714Y-10038000D01*
X8160714Y-9980857D01*
X8175000Y-9909429D01*
X8189286Y-9866571D01*
X8203571Y-9838000D01*
X8232143Y-9795143D01*
X8246428Y-9780857D01*
X8332143Y-9823714D02*
X8517857Y-9823714D01*
X8417857Y-9938000D01*
X8460714Y-9938000D01*
X8489286Y-9952286D01*
X8503571Y-9966571D01*
X8517857Y-9995143D01*
X8517857Y-10066571D01*
X8503571Y-10095143D01*
X8489286Y-10109429D01*
X8460714Y-10123714D01*
X8375000Y-10123714D01*
X8346428Y-10109429D01*
X8332143Y-10095143D01*
X8875000Y-10123714D02*
X8875000Y-9823714D01*
X9003571Y-10123714D02*
X9003571Y-9966571D01*
X8989286Y-9938000D01*
X8960714Y-9923714D01*
X8917857Y-9923714D01*
X8889286Y-9938000D01*
X8875000Y-9952286D01*
X9189286Y-10123714D02*
X9160714Y-10109429D01*
X9146429Y-10095143D01*
X9132143Y-10066571D01*
X9132143Y-9980857D01*
X9146429Y-9952286D01*
X9160714Y-9938000D01*
X9189286Y-9923714D01*
X9232143Y-9923714D01*
X9260714Y-9938000D01*
X9275000Y-9952286D01*
X9289286Y-9980857D01*
X9289286Y-10066571D01*
X9275000Y-10095143D01*
X9260714Y-10109429D01*
X9232143Y-10123714D01*
X9189286Y-10123714D01*
X9460714Y-10123714D02*
X9432143Y-10109429D01*
X9417857Y-10080857D01*
X9417857Y-9823714D01*
X9689286Y-10109429D02*
X9660714Y-10123714D01*
X9603571Y-10123714D01*
X9575000Y-10109429D01*
X9560714Y-10080857D01*
X9560714Y-9966571D01*
X9575000Y-9938000D01*
X9603571Y-9923714D01*
X9660714Y-9923714D01*
X9689286Y-9938000D01*
X9703571Y-9966571D01*
X9703571Y-9995143D01*
X9560714Y-10023714D01*
X9817857Y-10109429D02*
X9846429Y-10123714D01*
X9903571Y-10123714D01*
X9932143Y-10109429D01*
X9946429Y-10080857D01*
X9946429Y-10066571D01*
X9932143Y-10038000D01*
X9903571Y-10023714D01*
X9860714Y-10023714D01*
X9832143Y-10009429D01*
X9817857Y-9980857D01*
X9817857Y-9966571D01*
X9832143Y-9938000D01*
X9860714Y-9923714D01*
X9903571Y-9923714D01*
X9932143Y-9938000D01*
X10046429Y-10238000D02*
X10060714Y-10223714D01*
X10089286Y-10180857D01*
X10103571Y-10152286D01*
X10117857Y-10109429D01*
X10132143Y-10038000D01*
X10132143Y-9980857D01*
X10117857Y-9909429D01*
X10103571Y-9866571D01*
X10089286Y-9838000D01*
X10060714Y-9795143D01*
X10046429Y-9780857D01*
X3520000Y-10344000D02*
X3520000Y-10424000D01*
X3480000Y-10384000D02*
X3560000Y-10384000D01*
X3903571Y-10219714D02*
X3932143Y-10219714D01*
X3960714Y-10234000D01*
X3975000Y-10248286D01*
X3989286Y-10276857D01*
X4003571Y-10334000D01*
X4003571Y-10405429D01*
X3989286Y-10462571D01*
X3975000Y-10491143D01*
X3960714Y-10505429D01*
X3932143Y-10519714D01*
X3903571Y-10519714D01*
X3875000Y-10505429D01*
X3860714Y-10491143D01*
X3846428Y-10462571D01*
X3832143Y-10405429D01*
X3832143Y-10334000D01*
X3846428Y-10276857D01*
X3860714Y-10248286D01*
X3875000Y-10234000D01*
X3903571Y-10219714D01*
X4132143Y-10491143D02*
X4146428Y-10505429D01*
X4132143Y-10519714D01*
X4117857Y-10505429D01*
X4132143Y-10491143D01*
X4132143Y-10519714D01*
X4317857Y-10348286D02*
X4289286Y-10334000D01*
X4275000Y-10319714D01*
X4260714Y-10291143D01*
X4260714Y-10276857D01*
X4275000Y-10248286D01*
X4289286Y-10234000D01*
X4317857Y-10219714D01*
X4375000Y-10219714D01*
X4403571Y-10234000D01*
X4417857Y-10248286D01*
X4432143Y-10276857D01*
X4432143Y-10291143D01*
X4417857Y-10319714D01*
X4403571Y-10334000D01*
X4375000Y-10348286D01*
X4317857Y-10348286D01*
X4289286Y-10362571D01*
X4275000Y-10376857D01*
X4260714Y-10405429D01*
X4260714Y-10462571D01*
X4275000Y-10491143D01*
X4289286Y-10505429D01*
X4317857Y-10519714D01*
X4375000Y-10519714D01*
X4403571Y-10505429D01*
X4417857Y-10491143D01*
X4432143Y-10462571D01*
X4432143Y-10405429D01*
X4417857Y-10376857D01*
X4403571Y-10362571D01*
X4375000Y-10348286D01*
X4617857Y-10219714D02*
X4646429Y-10219714D01*
X4675000Y-10234000D01*
X4689286Y-10248286D01*
X4703571Y-10276857D01*
X4717857Y-10334000D01*
X4717857Y-10405429D01*
X4703571Y-10462571D01*
X4689286Y-10491143D01*
X4675000Y-10505429D01*
X4646429Y-10519714D01*
X4617857Y-10519714D01*
X4589286Y-10505429D01*
X4575000Y-10491143D01*
X4560714Y-10462571D01*
X4546429Y-10405429D01*
X4546429Y-10334000D01*
X4560714Y-10276857D01*
X4575000Y-10248286D01*
X4589286Y-10234000D01*
X4617857Y-10219714D01*
X4846429Y-10519714D02*
X4846429Y-10319714D01*
X4846429Y-10348286D02*
X4860714Y-10334000D01*
X4889286Y-10319714D01*
X4932143Y-10319714D01*
X4960714Y-10334000D01*
X4975000Y-10362571D01*
X4975000Y-10519714D01*
X4975000Y-10362571D02*
X4989286Y-10334000D01*
X5017857Y-10319714D01*
X5060714Y-10319714D01*
X5089286Y-10334000D01*
X5103571Y-10362571D01*
X5103571Y-10519714D01*
X5246429Y-10519714D02*
X5246429Y-10319714D01*
X5246429Y-10348286D02*
X5260714Y-10334000D01*
X5289286Y-10319714D01*
X5332143Y-10319714D01*
X5360714Y-10334000D01*
X5375000Y-10362571D01*
X5375000Y-10519714D01*
X5375000Y-10362571D02*
X5389286Y-10334000D01*
X5417857Y-10319714D01*
X5460714Y-10319714D01*
X5489286Y-10334000D01*
X5503571Y-10362571D01*
X5503571Y-10519714D01*
X6089286Y-10205429D02*
X5832143Y-10591143D01*
X6475000Y-10219714D02*
X6503571Y-10219714D01*
X6532143Y-10234000D01*
X6546428Y-10248286D01*
X6560714Y-10276857D01*
X6575000Y-10334000D01*
X6575000Y-10405429D01*
X6560714Y-10462571D01*
X6546428Y-10491143D01*
X6532143Y-10505429D01*
X6503571Y-10519714D01*
X6475000Y-10519714D01*
X6446428Y-10505429D01*
X6432143Y-10491143D01*
X6417857Y-10462571D01*
X6403571Y-10405429D01*
X6403571Y-10334000D01*
X6417857Y-10276857D01*
X6432143Y-10248286D01*
X6446428Y-10234000D01*
X6475000Y-10219714D01*
X6703571Y-10491143D02*
X6717857Y-10505429D01*
X6703571Y-10519714D01*
X6689286Y-10505429D01*
X6703571Y-10491143D01*
X6703571Y-10519714D01*
X6903571Y-10219714D02*
X6932143Y-10219714D01*
X6960714Y-10234000D01*
X6975000Y-10248286D01*
X6989286Y-10276857D01*
X7003571Y-10334000D01*
X7003571Y-10405429D01*
X6989286Y-10462571D01*
X6975000Y-10491143D01*
X6960714Y-10505429D01*
X6932143Y-10519714D01*
X6903571Y-10519714D01*
X6875000Y-10505429D01*
X6860714Y-10491143D01*
X6846428Y-10462571D01*
X6832143Y-10405429D01*
X6832143Y-10334000D01*
X6846428Y-10276857D01*
X6860714Y-10248286D01*
X6875000Y-10234000D01*
X6903571Y-10219714D01*
X7103571Y-10219714D02*
X7289286Y-10219714D01*
X7189286Y-10334000D01*
X7232143Y-10334000D01*
X7260714Y-10348286D01*
X7275000Y-10362571D01*
X7289286Y-10391143D01*
X7289286Y-10462571D01*
X7275000Y-10491143D01*
X7260714Y-10505429D01*
X7232143Y-10519714D01*
X7146428Y-10519714D01*
X7117857Y-10505429D01*
X7103571Y-10491143D01*
X7575000Y-10519714D02*
X7403571Y-10519714D01*
X7489286Y-10519714D02*
X7489286Y-10219714D01*
X7460714Y-10262571D01*
X7432143Y-10291143D01*
X7403571Y-10305429D01*
X7689286Y-10219714D02*
X7689286Y-10276857D01*
X7803571Y-10219714D02*
X7803571Y-10276857D01*
X8246428Y-10634000D02*
X8232143Y-10619714D01*
X8203571Y-10576857D01*
X8189286Y-10548286D01*
X8175000Y-10505429D01*
X8160714Y-10434000D01*
X8160714Y-10376857D01*
X8175000Y-10305429D01*
X8189286Y-10262571D01*
X8203571Y-10234000D01*
X8232143Y-10191143D01*
X8246428Y-10176857D01*
X8403571Y-10348286D02*
X8375000Y-10334000D01*
X8360714Y-10319714D01*
X8346428Y-10291143D01*
X8346428Y-10276857D01*
X8360714Y-10248286D01*
X8375000Y-10234000D01*
X8403571Y-10219714D01*
X8460714Y-10219714D01*
X8489286Y-10234000D01*
X8503571Y-10248286D01*
X8517857Y-10276857D01*
X8517857Y-10291143D01*
X8503571Y-10319714D01*
X8489286Y-10334000D01*
X8460714Y-10348286D01*
X8403571Y-10348286D01*
X8375000Y-10362571D01*
X8360714Y-10376857D01*
X8346428Y-10405429D01*
X8346428Y-10462571D01*
X8360714Y-10491143D01*
X8375000Y-10505429D01*
X8403571Y-10519714D01*
X8460714Y-10519714D01*
X8489286Y-10505429D01*
X8503571Y-10491143D01*
X8517857Y-10462571D01*
X8517857Y-10405429D01*
X8503571Y-10376857D01*
X8489286Y-10362571D01*
X8460714Y-10348286D01*
X8703571Y-10219714D02*
X8732143Y-10219714D01*
X8760714Y-10234000D01*
X8775000Y-10248286D01*
X8789286Y-10276857D01*
X8803571Y-10334000D01*
X8803571Y-10405429D01*
X8789286Y-10462571D01*
X8775000Y-10491143D01*
X8760714Y-10505429D01*
X8732143Y-10519714D01*
X8703571Y-10519714D01*
X8675000Y-10505429D01*
X8660714Y-10491143D01*
X8646429Y-10462571D01*
X8632143Y-10405429D01*
X8632143Y-10334000D01*
X8646429Y-10276857D01*
X8660714Y-10248286D01*
X8675000Y-10234000D01*
X8703571Y-10219714D01*
X9160714Y-10519714D02*
X9160714Y-10219714D01*
X9289286Y-10519714D02*
X9289286Y-10362571D01*
X9275000Y-10334000D01*
X9246429Y-10319714D01*
X9203571Y-10319714D01*
X9175000Y-10334000D01*
X9160714Y-10348286D01*
X9475000Y-10519714D02*
X9446429Y-10505429D01*
X9432143Y-10491143D01*
X9417857Y-10462571D01*
X9417857Y-10376857D01*
X9432143Y-10348286D01*
X9446429Y-10334000D01*
X9475000Y-10319714D01*
X9517857Y-10319714D01*
X9546429Y-10334000D01*
X9560714Y-10348286D01*
X9575000Y-10376857D01*
X9575000Y-10462571D01*
X9560714Y-10491143D01*
X9546429Y-10505429D01*
X9517857Y-10519714D01*
X9475000Y-10519714D01*
X9746429Y-10519714D02*
X9717857Y-10505429D01*
X9703571Y-10476857D01*
X9703571Y-10219714D01*
X9975000Y-10505429D02*
X9946429Y-10519714D01*
X9889286Y-10519714D01*
X9860714Y-10505429D01*
X9846429Y-10476857D01*
X9846429Y-10362571D01*
X9860714Y-10334000D01*
X9889286Y-10319714D01*
X9946429Y-10319714D01*
X9975000Y-10334000D01*
X9989286Y-10362571D01*
X9989286Y-10391143D01*
X9846429Y-10419714D01*
X10103571Y-10505429D02*
X10132143Y-10519714D01*
X10189286Y-10519714D01*
X10217857Y-10505429D01*
X10232143Y-10476857D01*
X10232143Y-10462571D01*
X10217857Y-10434000D01*
X10189286Y-10419714D01*
X10146429Y-10419714D01*
X10117857Y-10405429D01*
X10103571Y-10376857D01*
X10103571Y-10362571D01*
X10117857Y-10334000D01*
X10146429Y-10319714D01*
X10189286Y-10319714D01*
X10217857Y-10334000D01*
X10332143Y-10634000D02*
X10346429Y-10619714D01*
X10375000Y-10576857D01*
X10389286Y-10548286D01*
X10403571Y-10505429D01*
X10417857Y-10434000D01*
X10417857Y-10376857D01*
X10403571Y-10305429D01*
X10389286Y-10262571D01*
X10375000Y-10234000D01*
X10346429Y-10191143D01*
X10332143Y-10176857D01*
X3545356Y-10815356D02*
X3545356Y-10744644D01*
X3474644Y-10744644D01*
X3474644Y-10815356D01*
X3545356Y-10815356D01*
X4003571Y-10915714D02*
X3832143Y-10915714D01*
X3917857Y-10915714D02*
X3917857Y-10615714D01*
X3889286Y-10658571D01*
X3860714Y-10687143D01*
X3832143Y-10701429D01*
X4132143Y-10887143D02*
X4146428Y-10901429D01*
X4132143Y-10915714D01*
X4117857Y-10901429D01*
X4132143Y-10887143D01*
X4132143Y-10915714D01*
X4332143Y-10615714D02*
X4360714Y-10615714D01*
X4389286Y-10630000D01*
X4403571Y-10644286D01*
X4417857Y-10672857D01*
X4432143Y-10730000D01*
X4432143Y-10801429D01*
X4417857Y-10858571D01*
X4403571Y-10887143D01*
X4389286Y-10901429D01*
X4360714Y-10915714D01*
X4332143Y-10915714D01*
X4303571Y-10901429D01*
X4289286Y-10887143D01*
X4275000Y-10858571D01*
X4260714Y-10801429D01*
X4260714Y-10730000D01*
X4275000Y-10672857D01*
X4289286Y-10644286D01*
X4303571Y-10630000D01*
X4332143Y-10615714D01*
X4617857Y-10615714D02*
X4646429Y-10615714D01*
X4675000Y-10630000D01*
X4689286Y-10644286D01*
X4703571Y-10672857D01*
X4717857Y-10730000D01*
X4717857Y-10801429D01*
X4703571Y-10858571D01*
X4689286Y-10887143D01*
X4675000Y-10901429D01*
X4646429Y-10915714D01*
X4617857Y-10915714D01*
X4589286Y-10901429D01*
X4575000Y-10887143D01*
X4560714Y-10858571D01*
X4546429Y-10801429D01*
X4546429Y-10730000D01*
X4560714Y-10672857D01*
X4575000Y-10644286D01*
X4589286Y-10630000D01*
X4617857Y-10615714D01*
X4846429Y-10915714D02*
X4846429Y-10715714D01*
X4846429Y-10744286D02*
X4860714Y-10730000D01*
X4889286Y-10715714D01*
X4932143Y-10715714D01*
X4960714Y-10730000D01*
X4975000Y-10758571D01*
X4975000Y-10915714D01*
X4975000Y-10758571D02*
X4989286Y-10730000D01*
X5017857Y-10715714D01*
X5060714Y-10715714D01*
X5089286Y-10730000D01*
X5103571Y-10758571D01*
X5103571Y-10915714D01*
X5246429Y-10915714D02*
X5246429Y-10715714D01*
X5246429Y-10744286D02*
X5260714Y-10730000D01*
X5289286Y-10715714D01*
X5332143Y-10715714D01*
X5360714Y-10730000D01*
X5375000Y-10758571D01*
X5375000Y-10915714D01*
X5375000Y-10758571D02*
X5389286Y-10730000D01*
X5417857Y-10715714D01*
X5460714Y-10715714D01*
X5489286Y-10730000D01*
X5503571Y-10758571D01*
X5503571Y-10915714D01*
X6089286Y-10601429D02*
X5832143Y-10987143D01*
X6475000Y-10615714D02*
X6503571Y-10615714D01*
X6532143Y-10630000D01*
X6546428Y-10644286D01*
X6560714Y-10672857D01*
X6575000Y-10730000D01*
X6575000Y-10801429D01*
X6560714Y-10858571D01*
X6546428Y-10887143D01*
X6532143Y-10901429D01*
X6503571Y-10915714D01*
X6475000Y-10915714D01*
X6446428Y-10901429D01*
X6432143Y-10887143D01*
X6417857Y-10858571D01*
X6403571Y-10801429D01*
X6403571Y-10730000D01*
X6417857Y-10672857D01*
X6432143Y-10644286D01*
X6446428Y-10630000D01*
X6475000Y-10615714D01*
X6703571Y-10887143D02*
X6717857Y-10901429D01*
X6703571Y-10915714D01*
X6689286Y-10901429D01*
X6703571Y-10887143D01*
X6703571Y-10915714D01*
X6903571Y-10615714D02*
X6932143Y-10615714D01*
X6960714Y-10630000D01*
X6975000Y-10644286D01*
X6989286Y-10672857D01*
X7003571Y-10730000D01*
X7003571Y-10801429D01*
X6989286Y-10858571D01*
X6975000Y-10887143D01*
X6960714Y-10901429D01*
X6932143Y-10915714D01*
X6903571Y-10915714D01*
X6875000Y-10901429D01*
X6860714Y-10887143D01*
X6846428Y-10858571D01*
X6832143Y-10801429D01*
X6832143Y-10730000D01*
X6846428Y-10672857D01*
X6860714Y-10644286D01*
X6875000Y-10630000D01*
X6903571Y-10615714D01*
X7103571Y-10615714D02*
X7289286Y-10615714D01*
X7189286Y-10730000D01*
X7232143Y-10730000D01*
X7260714Y-10744286D01*
X7275000Y-10758571D01*
X7289286Y-10787143D01*
X7289286Y-10858571D01*
X7275000Y-10887143D01*
X7260714Y-10901429D01*
X7232143Y-10915714D01*
X7146428Y-10915714D01*
X7117857Y-10901429D01*
X7103571Y-10887143D01*
X7432143Y-10915714D02*
X7489286Y-10915714D01*
X7517857Y-10901429D01*
X7532143Y-10887143D01*
X7560714Y-10844286D01*
X7575000Y-10787143D01*
X7575000Y-10672857D01*
X7560714Y-10644286D01*
X7546428Y-10630000D01*
X7517857Y-10615714D01*
X7460714Y-10615714D01*
X7432143Y-10630000D01*
X7417857Y-10644286D01*
X7403571Y-10672857D01*
X7403571Y-10744286D01*
X7417857Y-10772857D01*
X7432143Y-10787143D01*
X7460714Y-10801429D01*
X7517857Y-10801429D01*
X7546428Y-10787143D01*
X7560714Y-10772857D01*
X7575000Y-10744286D01*
X7689286Y-10615714D02*
X7689286Y-10672857D01*
X7803571Y-10615714D02*
X7803571Y-10672857D01*
X8246428Y-11030000D02*
X8232143Y-11015714D01*
X8203571Y-10972857D01*
X8189286Y-10944286D01*
X8175000Y-10901429D01*
X8160714Y-10830000D01*
X8160714Y-10772857D01*
X8175000Y-10701429D01*
X8189286Y-10658571D01*
X8203571Y-10630000D01*
X8232143Y-10587143D01*
X8246428Y-10572857D01*
X8489286Y-10715714D02*
X8489286Y-10915714D01*
X8417857Y-10601429D02*
X8346428Y-10815714D01*
X8532143Y-10815714D01*
X8617857Y-10615714D02*
X8803571Y-10615714D01*
X8703571Y-10730000D01*
X8746429Y-10730000D01*
X8775000Y-10744286D01*
X8789286Y-10758571D01*
X8803571Y-10787143D01*
X8803571Y-10858571D01*
X8789286Y-10887143D01*
X8775000Y-10901429D01*
X8746429Y-10915714D01*
X8660714Y-10915714D01*
X8632143Y-10901429D01*
X8617857Y-10887143D01*
X9160714Y-10915714D02*
X9160714Y-10615714D01*
X9289286Y-10915714D02*
X9289286Y-10758571D01*
X9275000Y-10730000D01*
X9246429Y-10715714D01*
X9203571Y-10715714D01*
X9175000Y-10730000D01*
X9160714Y-10744286D01*
X9475000Y-10915714D02*
X9446429Y-10901429D01*
X9432143Y-10887143D01*
X9417857Y-10858571D01*
X9417857Y-10772857D01*
X9432143Y-10744286D01*
X9446429Y-10730000D01*
X9475000Y-10715714D01*
X9517857Y-10715714D01*
X9546429Y-10730000D01*
X9560714Y-10744286D01*
X9575000Y-10772857D01*
X9575000Y-10858571D01*
X9560714Y-10887143D01*
X9546429Y-10901429D01*
X9517857Y-10915714D01*
X9475000Y-10915714D01*
X9746429Y-10915714D02*
X9717857Y-10901429D01*
X9703571Y-10872857D01*
X9703571Y-10615714D01*
X9975000Y-10901429D02*
X9946429Y-10915714D01*
X9889286Y-10915714D01*
X9860714Y-10901429D01*
X9846429Y-10872857D01*
X9846429Y-10758571D01*
X9860714Y-10730000D01*
X9889286Y-10715714D01*
X9946429Y-10715714D01*
X9975000Y-10730000D01*
X9989286Y-10758571D01*
X9989286Y-10787143D01*
X9846429Y-10815714D01*
X10103571Y-10901429D02*
X10132143Y-10915714D01*
X10189286Y-10915714D01*
X10217857Y-10901429D01*
X10232143Y-10872857D01*
X10232143Y-10858571D01*
X10217857Y-10830000D01*
X10189286Y-10815714D01*
X10146429Y-10815714D01*
X10117857Y-10801429D01*
X10103571Y-10772857D01*
X10103571Y-10758571D01*
X10117857Y-10730000D01*
X10146429Y-10715714D01*
X10189286Y-10715714D01*
X10217857Y-10730000D01*
X10332143Y-11030000D02*
X10346429Y-11015714D01*
X10375000Y-10972857D01*
X10389286Y-10944286D01*
X10403571Y-10901429D01*
X10417857Y-10830000D01*
X10417857Y-10772857D01*
X10403571Y-10701429D01*
X10389286Y-10658571D01*
X10375000Y-10630000D01*
X10346429Y-10587143D01*
X10332143Y-10572857D01*
M02*
