G04 #@! TF.GenerationSoftware,KiCad,Pcbnew,(5.1.5)-3*
G04 #@! TF.CreationDate,2020-05-12T20:02:37-04:00*
G04 #@! TF.ProjectId,6526ESP32,36353236-4553-4503-9332-2e6b69636164,rev?*
G04 #@! TF.SameCoordinates,Original*
G04 #@! TF.FileFunction,Soldermask,Bot*
G04 #@! TF.FilePolarity,Negative*
%FSLAX46Y46*%
G04 Gerber Fmt 4.6, Leading zero omitted, Abs format (unit mm)*
G04 Created by KiCad (PCBNEW (5.1.5)-3) date 2020-05-12 20:02:37*
%MOMM*%
%LPD*%
G04 APERTURE LIST*
%ADD10C,0.100000*%
G04 APERTURE END LIST*
D10*
G36*
X72986200Y-84797200D02*
G01*
X71184200Y-84797200D01*
X71184200Y-82995200D01*
X72986200Y-82995200D01*
X72986200Y-84797200D01*
G37*
G36*
X66288228Y-83001703D02*
G01*
X66443100Y-83065853D01*
X66582481Y-83158985D01*
X66701015Y-83277519D01*
X66794147Y-83416900D01*
X66858297Y-83571772D01*
X66891000Y-83736184D01*
X66891000Y-83903816D01*
X66858297Y-84068228D01*
X66794147Y-84223100D01*
X66701015Y-84362481D01*
X66582481Y-84481015D01*
X66443100Y-84574147D01*
X66288228Y-84638297D01*
X66123816Y-84671000D01*
X65956184Y-84671000D01*
X65791772Y-84638297D01*
X65636900Y-84574147D01*
X65497519Y-84481015D01*
X65378985Y-84362481D01*
X65285853Y-84223100D01*
X65221703Y-84068228D01*
X65189000Y-83903816D01*
X65189000Y-83736184D01*
X65221703Y-83571772D01*
X65285853Y-83416900D01*
X65378985Y-83277519D01*
X65497519Y-83158985D01*
X65636900Y-83065853D01*
X65791772Y-83001703D01*
X65956184Y-82969000D01*
X66123816Y-82969000D01*
X66288228Y-83001703D01*
G37*
G36*
X53588228Y-83001703D02*
G01*
X53743100Y-83065853D01*
X53882481Y-83158985D01*
X54001015Y-83277519D01*
X54094147Y-83416900D01*
X54158297Y-83571772D01*
X54191000Y-83736184D01*
X54191000Y-83903816D01*
X54158297Y-84068228D01*
X54094147Y-84223100D01*
X54001015Y-84362481D01*
X53882481Y-84481015D01*
X53743100Y-84574147D01*
X53588228Y-84638297D01*
X53423816Y-84671000D01*
X53256184Y-84671000D01*
X53091772Y-84638297D01*
X52936900Y-84574147D01*
X52797519Y-84481015D01*
X52678985Y-84362481D01*
X52585853Y-84223100D01*
X52521703Y-84068228D01*
X52489000Y-83903816D01*
X52489000Y-83736184D01*
X52521703Y-83571772D01*
X52585853Y-83416900D01*
X52678985Y-83277519D01*
X52797519Y-83158985D01*
X52936900Y-83065853D01*
X53091772Y-83001703D01*
X53256184Y-82969000D01*
X53423816Y-82969000D01*
X53588228Y-83001703D01*
G37*
G36*
X51048228Y-83001703D02*
G01*
X51203100Y-83065853D01*
X51342481Y-83158985D01*
X51461015Y-83277519D01*
X51554147Y-83416900D01*
X51618297Y-83571772D01*
X51651000Y-83736184D01*
X51651000Y-83903816D01*
X51618297Y-84068228D01*
X51554147Y-84223100D01*
X51461015Y-84362481D01*
X51342481Y-84481015D01*
X51203100Y-84574147D01*
X51048228Y-84638297D01*
X50883816Y-84671000D01*
X50716184Y-84671000D01*
X50551772Y-84638297D01*
X50396900Y-84574147D01*
X50257519Y-84481015D01*
X50138985Y-84362481D01*
X50045853Y-84223100D01*
X49981703Y-84068228D01*
X49949000Y-83903816D01*
X49949000Y-83736184D01*
X49981703Y-83571772D01*
X50045853Y-83416900D01*
X50138985Y-83277519D01*
X50257519Y-83158985D01*
X50396900Y-83065853D01*
X50551772Y-83001703D01*
X50716184Y-82969000D01*
X50883816Y-82969000D01*
X51048228Y-83001703D01*
G37*
G36*
X38348228Y-83001703D02*
G01*
X38503100Y-83065853D01*
X38642481Y-83158985D01*
X38761015Y-83277519D01*
X38854147Y-83416900D01*
X38918297Y-83571772D01*
X38951000Y-83736184D01*
X38951000Y-83903816D01*
X38918297Y-84068228D01*
X38854147Y-84223100D01*
X38761015Y-84362481D01*
X38642481Y-84481015D01*
X38503100Y-84574147D01*
X38348228Y-84638297D01*
X38183816Y-84671000D01*
X38016184Y-84671000D01*
X37851772Y-84638297D01*
X37696900Y-84574147D01*
X37557519Y-84481015D01*
X37438985Y-84362481D01*
X37345853Y-84223100D01*
X37281703Y-84068228D01*
X37249000Y-83903816D01*
X37249000Y-83736184D01*
X37281703Y-83571772D01*
X37345853Y-83416900D01*
X37438985Y-83277519D01*
X37557519Y-83158985D01*
X37696900Y-83065853D01*
X37851772Y-83001703D01*
X38016184Y-82969000D01*
X38183816Y-82969000D01*
X38348228Y-83001703D01*
G37*
G36*
X69963512Y-81653927D02*
G01*
X70112812Y-81683624D01*
X70276784Y-81751544D01*
X70424354Y-81850147D01*
X70549853Y-81975646D01*
X70648456Y-82123216D01*
X70716376Y-82287188D01*
X70751000Y-82461259D01*
X70751000Y-82638741D01*
X70716376Y-82812812D01*
X70648456Y-82976784D01*
X70549853Y-83124354D01*
X70424354Y-83249853D01*
X70276784Y-83348456D01*
X70112812Y-83416376D01*
X69963512Y-83446073D01*
X69938742Y-83451000D01*
X69761258Y-83451000D01*
X69736488Y-83446073D01*
X69587188Y-83416376D01*
X69423216Y-83348456D01*
X69275646Y-83249853D01*
X69150147Y-83124354D01*
X69051544Y-82976784D01*
X68983624Y-82812812D01*
X68949000Y-82638741D01*
X68949000Y-82461259D01*
X68983624Y-82287188D01*
X69051544Y-82123216D01*
X69150147Y-81975646D01*
X69275646Y-81850147D01*
X69423216Y-81751544D01*
X69587188Y-81683624D01*
X69736488Y-81653927D01*
X69761258Y-81649000D01*
X69938742Y-81649000D01*
X69963512Y-81653927D01*
G37*
G36*
X47103512Y-81653927D02*
G01*
X47252812Y-81683624D01*
X47416784Y-81751544D01*
X47564354Y-81850147D01*
X47689853Y-81975646D01*
X47788456Y-82123216D01*
X47856376Y-82287188D01*
X47891000Y-82461259D01*
X47891000Y-82638741D01*
X47856376Y-82812812D01*
X47788456Y-82976784D01*
X47689853Y-83124354D01*
X47564354Y-83249853D01*
X47416784Y-83348456D01*
X47252812Y-83416376D01*
X47103512Y-83446073D01*
X47078742Y-83451000D01*
X46901258Y-83451000D01*
X46876488Y-83446073D01*
X46727188Y-83416376D01*
X46563216Y-83348456D01*
X46415646Y-83249853D01*
X46290147Y-83124354D01*
X46191544Y-82976784D01*
X46123624Y-82812812D01*
X46089000Y-82638741D01*
X46089000Y-82461259D01*
X46123624Y-82287188D01*
X46191544Y-82123216D01*
X46290147Y-81975646D01*
X46415646Y-81850147D01*
X46563216Y-81751544D01*
X46727188Y-81683624D01*
X46876488Y-81653927D01*
X46901258Y-81649000D01*
X47078742Y-81649000D01*
X47103512Y-81653927D01*
G37*
G36*
X72986200Y-82333400D02*
G01*
X71184200Y-82333400D01*
X71184200Y-80531400D01*
X72986200Y-80531400D01*
X72986200Y-82333400D01*
G37*
G36*
X66288228Y-80461703D02*
G01*
X66443100Y-80525853D01*
X66582481Y-80618985D01*
X66701015Y-80737519D01*
X66794147Y-80876900D01*
X66858297Y-81031772D01*
X66891000Y-81196184D01*
X66891000Y-81363816D01*
X66858297Y-81528228D01*
X66794147Y-81683100D01*
X66701015Y-81822481D01*
X66582481Y-81941015D01*
X66443100Y-82034147D01*
X66288228Y-82098297D01*
X66123816Y-82131000D01*
X65956184Y-82131000D01*
X65791772Y-82098297D01*
X65636900Y-82034147D01*
X65497519Y-81941015D01*
X65378985Y-81822481D01*
X65285853Y-81683100D01*
X65221703Y-81528228D01*
X65189000Y-81363816D01*
X65189000Y-81196184D01*
X65221703Y-81031772D01*
X65285853Y-80876900D01*
X65378985Y-80737519D01*
X65497519Y-80618985D01*
X65636900Y-80525853D01*
X65791772Y-80461703D01*
X65956184Y-80429000D01*
X66123816Y-80429000D01*
X66288228Y-80461703D01*
G37*
G36*
X51048228Y-80461703D02*
G01*
X51203100Y-80525853D01*
X51342481Y-80618985D01*
X51461015Y-80737519D01*
X51554147Y-80876900D01*
X51618297Y-81031772D01*
X51651000Y-81196184D01*
X51651000Y-81363816D01*
X51618297Y-81528228D01*
X51554147Y-81683100D01*
X51461015Y-81822481D01*
X51342481Y-81941015D01*
X51203100Y-82034147D01*
X51048228Y-82098297D01*
X50883816Y-82131000D01*
X50716184Y-82131000D01*
X50551772Y-82098297D01*
X50396900Y-82034147D01*
X50257519Y-81941015D01*
X50138985Y-81822481D01*
X50045853Y-81683100D01*
X49981703Y-81528228D01*
X49949000Y-81363816D01*
X49949000Y-81196184D01*
X49981703Y-81031772D01*
X50045853Y-80876900D01*
X50138985Y-80737519D01*
X50257519Y-80618985D01*
X50396900Y-80525853D01*
X50551772Y-80461703D01*
X50716184Y-80429000D01*
X50883816Y-80429000D01*
X51048228Y-80461703D01*
G37*
G36*
X53588228Y-80461703D02*
G01*
X53743100Y-80525853D01*
X53882481Y-80618985D01*
X54001015Y-80737519D01*
X54094147Y-80876900D01*
X54158297Y-81031772D01*
X54191000Y-81196184D01*
X54191000Y-81363816D01*
X54158297Y-81528228D01*
X54094147Y-81683100D01*
X54001015Y-81822481D01*
X53882481Y-81941015D01*
X53743100Y-82034147D01*
X53588228Y-82098297D01*
X53423816Y-82131000D01*
X53256184Y-82131000D01*
X53091772Y-82098297D01*
X52936900Y-82034147D01*
X52797519Y-81941015D01*
X52678985Y-81822481D01*
X52585853Y-81683100D01*
X52521703Y-81528228D01*
X52489000Y-81363816D01*
X52489000Y-81196184D01*
X52521703Y-81031772D01*
X52585853Y-80876900D01*
X52678985Y-80737519D01*
X52797519Y-80618985D01*
X52936900Y-80525853D01*
X53091772Y-80461703D01*
X53256184Y-80429000D01*
X53423816Y-80429000D01*
X53588228Y-80461703D01*
G37*
G36*
X38348228Y-80461703D02*
G01*
X38503100Y-80525853D01*
X38642481Y-80618985D01*
X38761015Y-80737519D01*
X38854147Y-80876900D01*
X38918297Y-81031772D01*
X38951000Y-81196184D01*
X38951000Y-81363816D01*
X38918297Y-81528228D01*
X38854147Y-81683100D01*
X38761015Y-81822481D01*
X38642481Y-81941015D01*
X38503100Y-82034147D01*
X38348228Y-82098297D01*
X38183816Y-82131000D01*
X38016184Y-82131000D01*
X37851772Y-82098297D01*
X37696900Y-82034147D01*
X37557519Y-81941015D01*
X37438985Y-81822481D01*
X37345853Y-81683100D01*
X37281703Y-81528228D01*
X37249000Y-81363816D01*
X37249000Y-81196184D01*
X37281703Y-81031772D01*
X37345853Y-80876900D01*
X37438985Y-80737519D01*
X37557519Y-80618985D01*
X37696900Y-80525853D01*
X37851772Y-80461703D01*
X38016184Y-80429000D01*
X38183816Y-80429000D01*
X38348228Y-80461703D01*
G37*
G36*
X47103512Y-79113927D02*
G01*
X47252812Y-79143624D01*
X47416784Y-79211544D01*
X47564354Y-79310147D01*
X47689853Y-79435646D01*
X47788456Y-79583216D01*
X47856376Y-79747188D01*
X47891000Y-79921259D01*
X47891000Y-80098741D01*
X47856376Y-80272812D01*
X47788456Y-80436784D01*
X47689853Y-80584354D01*
X47564354Y-80709853D01*
X47416784Y-80808456D01*
X47252812Y-80876376D01*
X47103512Y-80906073D01*
X47078742Y-80911000D01*
X46901258Y-80911000D01*
X46876488Y-80906073D01*
X46727188Y-80876376D01*
X46563216Y-80808456D01*
X46415646Y-80709853D01*
X46290147Y-80584354D01*
X46191544Y-80436784D01*
X46123624Y-80272812D01*
X46089000Y-80098741D01*
X46089000Y-79921259D01*
X46123624Y-79747188D01*
X46191544Y-79583216D01*
X46290147Y-79435646D01*
X46415646Y-79310147D01*
X46563216Y-79211544D01*
X46727188Y-79143624D01*
X46876488Y-79113927D01*
X46901258Y-79109000D01*
X47078742Y-79109000D01*
X47103512Y-79113927D01*
G37*
G36*
X69963512Y-79113927D02*
G01*
X70112812Y-79143624D01*
X70276784Y-79211544D01*
X70424354Y-79310147D01*
X70549853Y-79435646D01*
X70648456Y-79583216D01*
X70716376Y-79747188D01*
X70751000Y-79921259D01*
X70751000Y-80098741D01*
X70716376Y-80272812D01*
X70648456Y-80436784D01*
X70549853Y-80584354D01*
X70424354Y-80709853D01*
X70276784Y-80808456D01*
X70112812Y-80876376D01*
X69963512Y-80906073D01*
X69938742Y-80911000D01*
X69761258Y-80911000D01*
X69736488Y-80906073D01*
X69587188Y-80876376D01*
X69423216Y-80808456D01*
X69275646Y-80709853D01*
X69150147Y-80584354D01*
X69051544Y-80436784D01*
X68983624Y-80272812D01*
X68949000Y-80098741D01*
X68949000Y-79921259D01*
X68983624Y-79747188D01*
X69051544Y-79583216D01*
X69150147Y-79435646D01*
X69275646Y-79310147D01*
X69423216Y-79211544D01*
X69587188Y-79143624D01*
X69736488Y-79113927D01*
X69761258Y-79109000D01*
X69938742Y-79109000D01*
X69963512Y-79113927D01*
G37*
G36*
X66288228Y-77921703D02*
G01*
X66443100Y-77985853D01*
X66582481Y-78078985D01*
X66701015Y-78197519D01*
X66794147Y-78336900D01*
X66858297Y-78491772D01*
X66891000Y-78656184D01*
X66891000Y-78823816D01*
X66858297Y-78988228D01*
X66794147Y-79143100D01*
X66701015Y-79282481D01*
X66582481Y-79401015D01*
X66443100Y-79494147D01*
X66288228Y-79558297D01*
X66123816Y-79591000D01*
X65956184Y-79591000D01*
X65791772Y-79558297D01*
X65636900Y-79494147D01*
X65497519Y-79401015D01*
X65378985Y-79282481D01*
X65285853Y-79143100D01*
X65221703Y-78988228D01*
X65189000Y-78823816D01*
X65189000Y-78656184D01*
X65221703Y-78491772D01*
X65285853Y-78336900D01*
X65378985Y-78197519D01*
X65497519Y-78078985D01*
X65636900Y-77985853D01*
X65791772Y-77921703D01*
X65956184Y-77889000D01*
X66123816Y-77889000D01*
X66288228Y-77921703D01*
G37*
G36*
X38348228Y-77921703D02*
G01*
X38503100Y-77985853D01*
X38642481Y-78078985D01*
X38761015Y-78197519D01*
X38854147Y-78336900D01*
X38918297Y-78491772D01*
X38951000Y-78656184D01*
X38951000Y-78823816D01*
X38918297Y-78988228D01*
X38854147Y-79143100D01*
X38761015Y-79282481D01*
X38642481Y-79401015D01*
X38503100Y-79494147D01*
X38348228Y-79558297D01*
X38183816Y-79591000D01*
X38016184Y-79591000D01*
X37851772Y-79558297D01*
X37696900Y-79494147D01*
X37557519Y-79401015D01*
X37438985Y-79282481D01*
X37345853Y-79143100D01*
X37281703Y-78988228D01*
X37249000Y-78823816D01*
X37249000Y-78656184D01*
X37281703Y-78491772D01*
X37345853Y-78336900D01*
X37438985Y-78197519D01*
X37557519Y-78078985D01*
X37696900Y-77985853D01*
X37851772Y-77921703D01*
X38016184Y-77889000D01*
X38183816Y-77889000D01*
X38348228Y-77921703D01*
G37*
G36*
X53588228Y-77921703D02*
G01*
X53743100Y-77985853D01*
X53882481Y-78078985D01*
X54001015Y-78197519D01*
X54094147Y-78336900D01*
X54158297Y-78491772D01*
X54191000Y-78656184D01*
X54191000Y-78823816D01*
X54158297Y-78988228D01*
X54094147Y-79143100D01*
X54001015Y-79282481D01*
X53882481Y-79401015D01*
X53743100Y-79494147D01*
X53588228Y-79558297D01*
X53423816Y-79591000D01*
X53256184Y-79591000D01*
X53091772Y-79558297D01*
X52936900Y-79494147D01*
X52797519Y-79401015D01*
X52678985Y-79282481D01*
X52585853Y-79143100D01*
X52521703Y-78988228D01*
X52489000Y-78823816D01*
X52489000Y-78656184D01*
X52521703Y-78491772D01*
X52585853Y-78336900D01*
X52678985Y-78197519D01*
X52797519Y-78078985D01*
X52936900Y-77985853D01*
X53091772Y-77921703D01*
X53256184Y-77889000D01*
X53423816Y-77889000D01*
X53588228Y-77921703D01*
G37*
G36*
X51048228Y-77921703D02*
G01*
X51203100Y-77985853D01*
X51342481Y-78078985D01*
X51461015Y-78197519D01*
X51554147Y-78336900D01*
X51618297Y-78491772D01*
X51651000Y-78656184D01*
X51651000Y-78823816D01*
X51618297Y-78988228D01*
X51554147Y-79143100D01*
X51461015Y-79282481D01*
X51342481Y-79401015D01*
X51203100Y-79494147D01*
X51048228Y-79558297D01*
X50883816Y-79591000D01*
X50716184Y-79591000D01*
X50551772Y-79558297D01*
X50396900Y-79494147D01*
X50257519Y-79401015D01*
X50138985Y-79282481D01*
X50045853Y-79143100D01*
X49981703Y-78988228D01*
X49949000Y-78823816D01*
X49949000Y-78656184D01*
X49981703Y-78491772D01*
X50045853Y-78336900D01*
X50138985Y-78197519D01*
X50257519Y-78078985D01*
X50396900Y-77985853D01*
X50551772Y-77921703D01*
X50716184Y-77889000D01*
X50883816Y-77889000D01*
X51048228Y-77921703D01*
G37*
G36*
X72986200Y-78574200D02*
G01*
X71184200Y-78574200D01*
X71184200Y-76772200D01*
X72986200Y-76772200D01*
X72986200Y-78574200D01*
G37*
G36*
X69963512Y-76573927D02*
G01*
X70112812Y-76603624D01*
X70276784Y-76671544D01*
X70424354Y-76770147D01*
X70549853Y-76895646D01*
X70648456Y-77043216D01*
X70716376Y-77207188D01*
X70751000Y-77381259D01*
X70751000Y-77558741D01*
X70716376Y-77732812D01*
X70648456Y-77896784D01*
X70549853Y-78044354D01*
X70424354Y-78169853D01*
X70276784Y-78268456D01*
X70112812Y-78336376D01*
X69963512Y-78366073D01*
X69938742Y-78371000D01*
X69761258Y-78371000D01*
X69736488Y-78366073D01*
X69587188Y-78336376D01*
X69423216Y-78268456D01*
X69275646Y-78169853D01*
X69150147Y-78044354D01*
X69051544Y-77896784D01*
X68983624Y-77732812D01*
X68949000Y-77558741D01*
X68949000Y-77381259D01*
X68983624Y-77207188D01*
X69051544Y-77043216D01*
X69150147Y-76895646D01*
X69275646Y-76770147D01*
X69423216Y-76671544D01*
X69587188Y-76603624D01*
X69736488Y-76573927D01*
X69761258Y-76569000D01*
X69938742Y-76569000D01*
X69963512Y-76573927D01*
G37*
G36*
X47103512Y-76573927D02*
G01*
X47252812Y-76603624D01*
X47416784Y-76671544D01*
X47564354Y-76770147D01*
X47689853Y-76895646D01*
X47788456Y-77043216D01*
X47856376Y-77207188D01*
X47891000Y-77381259D01*
X47891000Y-77558741D01*
X47856376Y-77732812D01*
X47788456Y-77896784D01*
X47689853Y-78044354D01*
X47564354Y-78169853D01*
X47416784Y-78268456D01*
X47252812Y-78336376D01*
X47103512Y-78366073D01*
X47078742Y-78371000D01*
X46901258Y-78371000D01*
X46876488Y-78366073D01*
X46727188Y-78336376D01*
X46563216Y-78268456D01*
X46415646Y-78169853D01*
X46290147Y-78044354D01*
X46191544Y-77896784D01*
X46123624Y-77732812D01*
X46089000Y-77558741D01*
X46089000Y-77381259D01*
X46123624Y-77207188D01*
X46191544Y-77043216D01*
X46290147Y-76895646D01*
X46415646Y-76770147D01*
X46563216Y-76671544D01*
X46727188Y-76603624D01*
X46876488Y-76573927D01*
X46901258Y-76569000D01*
X47078742Y-76569000D01*
X47103512Y-76573927D01*
G37*
G36*
X38348228Y-75381703D02*
G01*
X38503100Y-75445853D01*
X38642481Y-75538985D01*
X38761015Y-75657519D01*
X38854147Y-75796900D01*
X38918297Y-75951772D01*
X38951000Y-76116184D01*
X38951000Y-76283816D01*
X38918297Y-76448228D01*
X38854147Y-76603100D01*
X38761015Y-76742481D01*
X38642481Y-76861015D01*
X38503100Y-76954147D01*
X38348228Y-77018297D01*
X38183816Y-77051000D01*
X38016184Y-77051000D01*
X37851772Y-77018297D01*
X37696900Y-76954147D01*
X37557519Y-76861015D01*
X37438985Y-76742481D01*
X37345853Y-76603100D01*
X37281703Y-76448228D01*
X37249000Y-76283816D01*
X37249000Y-76116184D01*
X37281703Y-75951772D01*
X37345853Y-75796900D01*
X37438985Y-75657519D01*
X37557519Y-75538985D01*
X37696900Y-75445853D01*
X37851772Y-75381703D01*
X38016184Y-75349000D01*
X38183816Y-75349000D01*
X38348228Y-75381703D01*
G37*
G36*
X66288228Y-75381703D02*
G01*
X66443100Y-75445853D01*
X66582481Y-75538985D01*
X66701015Y-75657519D01*
X66794147Y-75796900D01*
X66858297Y-75951772D01*
X66891000Y-76116184D01*
X66891000Y-76283816D01*
X66858297Y-76448228D01*
X66794147Y-76603100D01*
X66701015Y-76742481D01*
X66582481Y-76861015D01*
X66443100Y-76954147D01*
X66288228Y-77018297D01*
X66123816Y-77051000D01*
X65956184Y-77051000D01*
X65791772Y-77018297D01*
X65636900Y-76954147D01*
X65497519Y-76861015D01*
X65378985Y-76742481D01*
X65285853Y-76603100D01*
X65221703Y-76448228D01*
X65189000Y-76283816D01*
X65189000Y-76116184D01*
X65221703Y-75951772D01*
X65285853Y-75796900D01*
X65378985Y-75657519D01*
X65497519Y-75538985D01*
X65636900Y-75445853D01*
X65791772Y-75381703D01*
X65956184Y-75349000D01*
X66123816Y-75349000D01*
X66288228Y-75381703D01*
G37*
G36*
X53588228Y-75381703D02*
G01*
X53743100Y-75445853D01*
X53882481Y-75538985D01*
X54001015Y-75657519D01*
X54094147Y-75796900D01*
X54158297Y-75951772D01*
X54191000Y-76116184D01*
X54191000Y-76283816D01*
X54158297Y-76448228D01*
X54094147Y-76603100D01*
X54001015Y-76742481D01*
X53882481Y-76861015D01*
X53743100Y-76954147D01*
X53588228Y-77018297D01*
X53423816Y-77051000D01*
X53256184Y-77051000D01*
X53091772Y-77018297D01*
X52936900Y-76954147D01*
X52797519Y-76861015D01*
X52678985Y-76742481D01*
X52585853Y-76603100D01*
X52521703Y-76448228D01*
X52489000Y-76283816D01*
X52489000Y-76116184D01*
X52521703Y-75951772D01*
X52585853Y-75796900D01*
X52678985Y-75657519D01*
X52797519Y-75538985D01*
X52936900Y-75445853D01*
X53091772Y-75381703D01*
X53256184Y-75349000D01*
X53423816Y-75349000D01*
X53588228Y-75381703D01*
G37*
G36*
X51048228Y-75381703D02*
G01*
X51203100Y-75445853D01*
X51342481Y-75538985D01*
X51461015Y-75657519D01*
X51554147Y-75796900D01*
X51618297Y-75951772D01*
X51651000Y-76116184D01*
X51651000Y-76283816D01*
X51618297Y-76448228D01*
X51554147Y-76603100D01*
X51461015Y-76742481D01*
X51342481Y-76861015D01*
X51203100Y-76954147D01*
X51048228Y-77018297D01*
X50883816Y-77051000D01*
X50716184Y-77051000D01*
X50551772Y-77018297D01*
X50396900Y-76954147D01*
X50257519Y-76861015D01*
X50138985Y-76742481D01*
X50045853Y-76603100D01*
X49981703Y-76448228D01*
X49949000Y-76283816D01*
X49949000Y-76116184D01*
X49981703Y-75951772D01*
X50045853Y-75796900D01*
X50138985Y-75657519D01*
X50257519Y-75538985D01*
X50396900Y-75445853D01*
X50551772Y-75381703D01*
X50716184Y-75349000D01*
X50883816Y-75349000D01*
X51048228Y-75381703D01*
G37*
G36*
X69963512Y-74033927D02*
G01*
X70112812Y-74063624D01*
X70276784Y-74131544D01*
X70424354Y-74230147D01*
X70549853Y-74355646D01*
X70648456Y-74503216D01*
X70716376Y-74667188D01*
X70751000Y-74841259D01*
X70751000Y-75018741D01*
X70716376Y-75192812D01*
X70648456Y-75356784D01*
X70549853Y-75504354D01*
X70424354Y-75629853D01*
X70276784Y-75728456D01*
X70112812Y-75796376D01*
X69963512Y-75826073D01*
X69938742Y-75831000D01*
X69761258Y-75831000D01*
X69736488Y-75826073D01*
X69587188Y-75796376D01*
X69423216Y-75728456D01*
X69275646Y-75629853D01*
X69150147Y-75504354D01*
X69051544Y-75356784D01*
X68983624Y-75192812D01*
X68949000Y-75018741D01*
X68949000Y-74841259D01*
X68983624Y-74667188D01*
X69051544Y-74503216D01*
X69150147Y-74355646D01*
X69275646Y-74230147D01*
X69423216Y-74131544D01*
X69587188Y-74063624D01*
X69736488Y-74033927D01*
X69761258Y-74029000D01*
X69938742Y-74029000D01*
X69963512Y-74033927D01*
G37*
G36*
X47103512Y-74033927D02*
G01*
X47252812Y-74063624D01*
X47416784Y-74131544D01*
X47564354Y-74230147D01*
X47689853Y-74355646D01*
X47788456Y-74503216D01*
X47856376Y-74667188D01*
X47891000Y-74841259D01*
X47891000Y-75018741D01*
X47856376Y-75192812D01*
X47788456Y-75356784D01*
X47689853Y-75504354D01*
X47564354Y-75629853D01*
X47416784Y-75728456D01*
X47252812Y-75796376D01*
X47103512Y-75826073D01*
X47078742Y-75831000D01*
X46901258Y-75831000D01*
X46876488Y-75826073D01*
X46727188Y-75796376D01*
X46563216Y-75728456D01*
X46415646Y-75629853D01*
X46290147Y-75504354D01*
X46191544Y-75356784D01*
X46123624Y-75192812D01*
X46089000Y-75018741D01*
X46089000Y-74841259D01*
X46123624Y-74667188D01*
X46191544Y-74503216D01*
X46290147Y-74355646D01*
X46415646Y-74230147D01*
X46563216Y-74131544D01*
X46727188Y-74063624D01*
X46876488Y-74033927D01*
X46901258Y-74029000D01*
X47078742Y-74029000D01*
X47103512Y-74033927D01*
G37*
G36*
X72986200Y-74789600D02*
G01*
X71184200Y-74789600D01*
X71184200Y-72987600D01*
X72986200Y-72987600D01*
X72986200Y-74789600D01*
G37*
G36*
X38348228Y-72841703D02*
G01*
X38503100Y-72905853D01*
X38642481Y-72998985D01*
X38761015Y-73117519D01*
X38854147Y-73256900D01*
X38918297Y-73411772D01*
X38951000Y-73576184D01*
X38951000Y-73743816D01*
X38918297Y-73908228D01*
X38854147Y-74063100D01*
X38761015Y-74202481D01*
X38642481Y-74321015D01*
X38503100Y-74414147D01*
X38348228Y-74478297D01*
X38183816Y-74511000D01*
X38016184Y-74511000D01*
X37851772Y-74478297D01*
X37696900Y-74414147D01*
X37557519Y-74321015D01*
X37438985Y-74202481D01*
X37345853Y-74063100D01*
X37281703Y-73908228D01*
X37249000Y-73743816D01*
X37249000Y-73576184D01*
X37281703Y-73411772D01*
X37345853Y-73256900D01*
X37438985Y-73117519D01*
X37557519Y-72998985D01*
X37696900Y-72905853D01*
X37851772Y-72841703D01*
X38016184Y-72809000D01*
X38183816Y-72809000D01*
X38348228Y-72841703D01*
G37*
G36*
X53588228Y-72841703D02*
G01*
X53743100Y-72905853D01*
X53882481Y-72998985D01*
X54001015Y-73117519D01*
X54094147Y-73256900D01*
X54158297Y-73411772D01*
X54191000Y-73576184D01*
X54191000Y-73743816D01*
X54158297Y-73908228D01*
X54094147Y-74063100D01*
X54001015Y-74202481D01*
X53882481Y-74321015D01*
X53743100Y-74414147D01*
X53588228Y-74478297D01*
X53423816Y-74511000D01*
X53256184Y-74511000D01*
X53091772Y-74478297D01*
X52936900Y-74414147D01*
X52797519Y-74321015D01*
X52678985Y-74202481D01*
X52585853Y-74063100D01*
X52521703Y-73908228D01*
X52489000Y-73743816D01*
X52489000Y-73576184D01*
X52521703Y-73411772D01*
X52585853Y-73256900D01*
X52678985Y-73117519D01*
X52797519Y-72998985D01*
X52936900Y-72905853D01*
X53091772Y-72841703D01*
X53256184Y-72809000D01*
X53423816Y-72809000D01*
X53588228Y-72841703D01*
G37*
G36*
X66288228Y-72841703D02*
G01*
X66443100Y-72905853D01*
X66582481Y-72998985D01*
X66701015Y-73117519D01*
X66794147Y-73256900D01*
X66858297Y-73411772D01*
X66891000Y-73576184D01*
X66891000Y-73743816D01*
X66858297Y-73908228D01*
X66794147Y-74063100D01*
X66701015Y-74202481D01*
X66582481Y-74321015D01*
X66443100Y-74414147D01*
X66288228Y-74478297D01*
X66123816Y-74511000D01*
X65956184Y-74511000D01*
X65791772Y-74478297D01*
X65636900Y-74414147D01*
X65497519Y-74321015D01*
X65378985Y-74202481D01*
X65285853Y-74063100D01*
X65221703Y-73908228D01*
X65189000Y-73743816D01*
X65189000Y-73576184D01*
X65221703Y-73411772D01*
X65285853Y-73256900D01*
X65378985Y-73117519D01*
X65497519Y-72998985D01*
X65636900Y-72905853D01*
X65791772Y-72841703D01*
X65956184Y-72809000D01*
X66123816Y-72809000D01*
X66288228Y-72841703D01*
G37*
G36*
X51048228Y-72841703D02*
G01*
X51203100Y-72905853D01*
X51342481Y-72998985D01*
X51461015Y-73117519D01*
X51554147Y-73256900D01*
X51618297Y-73411772D01*
X51651000Y-73576184D01*
X51651000Y-73743816D01*
X51618297Y-73908228D01*
X51554147Y-74063100D01*
X51461015Y-74202481D01*
X51342481Y-74321015D01*
X51203100Y-74414147D01*
X51048228Y-74478297D01*
X50883816Y-74511000D01*
X50716184Y-74511000D01*
X50551772Y-74478297D01*
X50396900Y-74414147D01*
X50257519Y-74321015D01*
X50138985Y-74202481D01*
X50045853Y-74063100D01*
X49981703Y-73908228D01*
X49949000Y-73743816D01*
X49949000Y-73576184D01*
X49981703Y-73411772D01*
X50045853Y-73256900D01*
X50138985Y-73117519D01*
X50257519Y-72998985D01*
X50396900Y-72905853D01*
X50551772Y-72841703D01*
X50716184Y-72809000D01*
X50883816Y-72809000D01*
X51048228Y-72841703D01*
G37*
G36*
X69963512Y-71493927D02*
G01*
X70112812Y-71523624D01*
X70276784Y-71591544D01*
X70424354Y-71690147D01*
X70549853Y-71815646D01*
X70648456Y-71963216D01*
X70716376Y-72127188D01*
X70751000Y-72301259D01*
X70751000Y-72478741D01*
X70716376Y-72652812D01*
X70648456Y-72816784D01*
X70549853Y-72964354D01*
X70424354Y-73089853D01*
X70276784Y-73188456D01*
X70112812Y-73256376D01*
X69963512Y-73286073D01*
X69938742Y-73291000D01*
X69761258Y-73291000D01*
X69736488Y-73286073D01*
X69587188Y-73256376D01*
X69423216Y-73188456D01*
X69275646Y-73089853D01*
X69150147Y-72964354D01*
X69051544Y-72816784D01*
X68983624Y-72652812D01*
X68949000Y-72478741D01*
X68949000Y-72301259D01*
X68983624Y-72127188D01*
X69051544Y-71963216D01*
X69150147Y-71815646D01*
X69275646Y-71690147D01*
X69423216Y-71591544D01*
X69587188Y-71523624D01*
X69736488Y-71493927D01*
X69761258Y-71489000D01*
X69938742Y-71489000D01*
X69963512Y-71493927D01*
G37*
G36*
X47103512Y-71493927D02*
G01*
X47252812Y-71523624D01*
X47416784Y-71591544D01*
X47564354Y-71690147D01*
X47689853Y-71815646D01*
X47788456Y-71963216D01*
X47856376Y-72127188D01*
X47891000Y-72301259D01*
X47891000Y-72478741D01*
X47856376Y-72652812D01*
X47788456Y-72816784D01*
X47689853Y-72964354D01*
X47564354Y-73089853D01*
X47416784Y-73188456D01*
X47252812Y-73256376D01*
X47103512Y-73286073D01*
X47078742Y-73291000D01*
X46901258Y-73291000D01*
X46876488Y-73286073D01*
X46727188Y-73256376D01*
X46563216Y-73188456D01*
X46415646Y-73089853D01*
X46290147Y-72964354D01*
X46191544Y-72816784D01*
X46123624Y-72652812D01*
X46089000Y-72478741D01*
X46089000Y-72301259D01*
X46123624Y-72127188D01*
X46191544Y-71963216D01*
X46290147Y-71815646D01*
X46415646Y-71690147D01*
X46563216Y-71591544D01*
X46727188Y-71523624D01*
X46876488Y-71493927D01*
X46901258Y-71489000D01*
X47078742Y-71489000D01*
X47103512Y-71493927D01*
G37*
G36*
X53588228Y-70301703D02*
G01*
X53743100Y-70365853D01*
X53882481Y-70458985D01*
X54001015Y-70577519D01*
X54094147Y-70716900D01*
X54158297Y-70871772D01*
X54191000Y-71036184D01*
X54191000Y-71203816D01*
X54158297Y-71368228D01*
X54094147Y-71523100D01*
X54001015Y-71662481D01*
X53882481Y-71781015D01*
X53743100Y-71874147D01*
X53588228Y-71938297D01*
X53423816Y-71971000D01*
X53256184Y-71971000D01*
X53091772Y-71938297D01*
X52936900Y-71874147D01*
X52797519Y-71781015D01*
X52678985Y-71662481D01*
X52585853Y-71523100D01*
X52521703Y-71368228D01*
X52489000Y-71203816D01*
X52489000Y-71036184D01*
X52521703Y-70871772D01*
X52585853Y-70716900D01*
X52678985Y-70577519D01*
X52797519Y-70458985D01*
X52936900Y-70365853D01*
X53091772Y-70301703D01*
X53256184Y-70269000D01*
X53423816Y-70269000D01*
X53588228Y-70301703D01*
G37*
G36*
X38348228Y-70301703D02*
G01*
X38503100Y-70365853D01*
X38642481Y-70458985D01*
X38761015Y-70577519D01*
X38854147Y-70716900D01*
X38918297Y-70871772D01*
X38951000Y-71036184D01*
X38951000Y-71203816D01*
X38918297Y-71368228D01*
X38854147Y-71523100D01*
X38761015Y-71662481D01*
X38642481Y-71781015D01*
X38503100Y-71874147D01*
X38348228Y-71938297D01*
X38183816Y-71971000D01*
X38016184Y-71971000D01*
X37851772Y-71938297D01*
X37696900Y-71874147D01*
X37557519Y-71781015D01*
X37438985Y-71662481D01*
X37345853Y-71523100D01*
X37281703Y-71368228D01*
X37249000Y-71203816D01*
X37249000Y-71036184D01*
X37281703Y-70871772D01*
X37345853Y-70716900D01*
X37438985Y-70577519D01*
X37557519Y-70458985D01*
X37696900Y-70365853D01*
X37851772Y-70301703D01*
X38016184Y-70269000D01*
X38183816Y-70269000D01*
X38348228Y-70301703D01*
G37*
G36*
X51048228Y-70301703D02*
G01*
X51203100Y-70365853D01*
X51342481Y-70458985D01*
X51461015Y-70577519D01*
X51554147Y-70716900D01*
X51618297Y-70871772D01*
X51651000Y-71036184D01*
X51651000Y-71203816D01*
X51618297Y-71368228D01*
X51554147Y-71523100D01*
X51461015Y-71662481D01*
X51342481Y-71781015D01*
X51203100Y-71874147D01*
X51048228Y-71938297D01*
X50883816Y-71971000D01*
X50716184Y-71971000D01*
X50551772Y-71938297D01*
X50396900Y-71874147D01*
X50257519Y-71781015D01*
X50138985Y-71662481D01*
X50045853Y-71523100D01*
X49981703Y-71368228D01*
X49949000Y-71203816D01*
X49949000Y-71036184D01*
X49981703Y-70871772D01*
X50045853Y-70716900D01*
X50138985Y-70577519D01*
X50257519Y-70458985D01*
X50396900Y-70365853D01*
X50551772Y-70301703D01*
X50716184Y-70269000D01*
X50883816Y-70269000D01*
X51048228Y-70301703D01*
G37*
G36*
X66288228Y-70301703D02*
G01*
X66443100Y-70365853D01*
X66582481Y-70458985D01*
X66701015Y-70577519D01*
X66794147Y-70716900D01*
X66858297Y-70871772D01*
X66891000Y-71036184D01*
X66891000Y-71203816D01*
X66858297Y-71368228D01*
X66794147Y-71523100D01*
X66701015Y-71662481D01*
X66582481Y-71781015D01*
X66443100Y-71874147D01*
X66288228Y-71938297D01*
X66123816Y-71971000D01*
X65956184Y-71971000D01*
X65791772Y-71938297D01*
X65636900Y-71874147D01*
X65497519Y-71781015D01*
X65378985Y-71662481D01*
X65285853Y-71523100D01*
X65221703Y-71368228D01*
X65189000Y-71203816D01*
X65189000Y-71036184D01*
X65221703Y-70871772D01*
X65285853Y-70716900D01*
X65378985Y-70577519D01*
X65497519Y-70458985D01*
X65636900Y-70365853D01*
X65791772Y-70301703D01*
X65956184Y-70269000D01*
X66123816Y-70269000D01*
X66288228Y-70301703D01*
G37*
G36*
X69963512Y-68953927D02*
G01*
X70112812Y-68983624D01*
X70276784Y-69051544D01*
X70424354Y-69150147D01*
X70549853Y-69275646D01*
X70648456Y-69423216D01*
X70716376Y-69587188D01*
X70751000Y-69761259D01*
X70751000Y-69938741D01*
X70716376Y-70112812D01*
X70648456Y-70276784D01*
X70549853Y-70424354D01*
X70424354Y-70549853D01*
X70276784Y-70648456D01*
X70112812Y-70716376D01*
X69963512Y-70746073D01*
X69938742Y-70751000D01*
X69761258Y-70751000D01*
X69736488Y-70746073D01*
X69587188Y-70716376D01*
X69423216Y-70648456D01*
X69275646Y-70549853D01*
X69150147Y-70424354D01*
X69051544Y-70276784D01*
X68983624Y-70112812D01*
X68949000Y-69938741D01*
X68949000Y-69761259D01*
X68983624Y-69587188D01*
X69051544Y-69423216D01*
X69150147Y-69275646D01*
X69275646Y-69150147D01*
X69423216Y-69051544D01*
X69587188Y-68983624D01*
X69736488Y-68953927D01*
X69761258Y-68949000D01*
X69938742Y-68949000D01*
X69963512Y-68953927D01*
G37*
G36*
X47103512Y-68953927D02*
G01*
X47252812Y-68983624D01*
X47416784Y-69051544D01*
X47564354Y-69150147D01*
X47689853Y-69275646D01*
X47788456Y-69423216D01*
X47856376Y-69587188D01*
X47891000Y-69761259D01*
X47891000Y-69938741D01*
X47856376Y-70112812D01*
X47788456Y-70276784D01*
X47689853Y-70424354D01*
X47564354Y-70549853D01*
X47416784Y-70648456D01*
X47252812Y-70716376D01*
X47103512Y-70746073D01*
X47078742Y-70751000D01*
X46901258Y-70751000D01*
X46876488Y-70746073D01*
X46727188Y-70716376D01*
X46563216Y-70648456D01*
X46415646Y-70549853D01*
X46290147Y-70424354D01*
X46191544Y-70276784D01*
X46123624Y-70112812D01*
X46089000Y-69938741D01*
X46089000Y-69761259D01*
X46123624Y-69587188D01*
X46191544Y-69423216D01*
X46290147Y-69275646D01*
X46415646Y-69150147D01*
X46563216Y-69051544D01*
X46727188Y-68983624D01*
X46876488Y-68953927D01*
X46901258Y-68949000D01*
X47078742Y-68949000D01*
X47103512Y-68953927D01*
G37*
G36*
X53588228Y-67761703D02*
G01*
X53743100Y-67825853D01*
X53882481Y-67918985D01*
X54001015Y-68037519D01*
X54094147Y-68176900D01*
X54158297Y-68331772D01*
X54191000Y-68496184D01*
X54191000Y-68663816D01*
X54158297Y-68828228D01*
X54094147Y-68983100D01*
X54001015Y-69122481D01*
X53882481Y-69241015D01*
X53743100Y-69334147D01*
X53588228Y-69398297D01*
X53423816Y-69431000D01*
X53256184Y-69431000D01*
X53091772Y-69398297D01*
X52936900Y-69334147D01*
X52797519Y-69241015D01*
X52678985Y-69122481D01*
X52585853Y-68983100D01*
X52521703Y-68828228D01*
X52489000Y-68663816D01*
X52489000Y-68496184D01*
X52521703Y-68331772D01*
X52585853Y-68176900D01*
X52678985Y-68037519D01*
X52797519Y-67918985D01*
X52936900Y-67825853D01*
X53091772Y-67761703D01*
X53256184Y-67729000D01*
X53423816Y-67729000D01*
X53588228Y-67761703D01*
G37*
G36*
X38348228Y-67761703D02*
G01*
X38503100Y-67825853D01*
X38642481Y-67918985D01*
X38761015Y-68037519D01*
X38854147Y-68176900D01*
X38918297Y-68331772D01*
X38951000Y-68496184D01*
X38951000Y-68663816D01*
X38918297Y-68828228D01*
X38854147Y-68983100D01*
X38761015Y-69122481D01*
X38642481Y-69241015D01*
X38503100Y-69334147D01*
X38348228Y-69398297D01*
X38183816Y-69431000D01*
X38016184Y-69431000D01*
X37851772Y-69398297D01*
X37696900Y-69334147D01*
X37557519Y-69241015D01*
X37438985Y-69122481D01*
X37345853Y-68983100D01*
X37281703Y-68828228D01*
X37249000Y-68663816D01*
X37249000Y-68496184D01*
X37281703Y-68331772D01*
X37345853Y-68176900D01*
X37438985Y-68037519D01*
X37557519Y-67918985D01*
X37696900Y-67825853D01*
X37851772Y-67761703D01*
X38016184Y-67729000D01*
X38183816Y-67729000D01*
X38348228Y-67761703D01*
G37*
G36*
X66288228Y-67761703D02*
G01*
X66443100Y-67825853D01*
X66582481Y-67918985D01*
X66701015Y-68037519D01*
X66794147Y-68176900D01*
X66858297Y-68331772D01*
X66891000Y-68496184D01*
X66891000Y-68663816D01*
X66858297Y-68828228D01*
X66794147Y-68983100D01*
X66701015Y-69122481D01*
X66582481Y-69241015D01*
X66443100Y-69334147D01*
X66288228Y-69398297D01*
X66123816Y-69431000D01*
X65956184Y-69431000D01*
X65791772Y-69398297D01*
X65636900Y-69334147D01*
X65497519Y-69241015D01*
X65378985Y-69122481D01*
X65285853Y-68983100D01*
X65221703Y-68828228D01*
X65189000Y-68663816D01*
X65189000Y-68496184D01*
X65221703Y-68331772D01*
X65285853Y-68176900D01*
X65378985Y-68037519D01*
X65497519Y-67918985D01*
X65636900Y-67825853D01*
X65791772Y-67761703D01*
X65956184Y-67729000D01*
X66123816Y-67729000D01*
X66288228Y-67761703D01*
G37*
G36*
X51048228Y-67761703D02*
G01*
X51203100Y-67825853D01*
X51342481Y-67918985D01*
X51461015Y-68037519D01*
X51554147Y-68176900D01*
X51618297Y-68331772D01*
X51651000Y-68496184D01*
X51651000Y-68663816D01*
X51618297Y-68828228D01*
X51554147Y-68983100D01*
X51461015Y-69122481D01*
X51342481Y-69241015D01*
X51203100Y-69334147D01*
X51048228Y-69398297D01*
X50883816Y-69431000D01*
X50716184Y-69431000D01*
X50551772Y-69398297D01*
X50396900Y-69334147D01*
X50257519Y-69241015D01*
X50138985Y-69122481D01*
X50045853Y-68983100D01*
X49981703Y-68828228D01*
X49949000Y-68663816D01*
X49949000Y-68496184D01*
X49981703Y-68331772D01*
X50045853Y-68176900D01*
X50138985Y-68037519D01*
X50257519Y-67918985D01*
X50396900Y-67825853D01*
X50551772Y-67761703D01*
X50716184Y-67729000D01*
X50883816Y-67729000D01*
X51048228Y-67761703D01*
G37*
G36*
X47103512Y-66413927D02*
G01*
X47252812Y-66443624D01*
X47416784Y-66511544D01*
X47564354Y-66610147D01*
X47689853Y-66735646D01*
X47788456Y-66883216D01*
X47856376Y-67047188D01*
X47891000Y-67221259D01*
X47891000Y-67398741D01*
X47856376Y-67572812D01*
X47788456Y-67736784D01*
X47689853Y-67884354D01*
X47564354Y-68009853D01*
X47416784Y-68108456D01*
X47252812Y-68176376D01*
X47103512Y-68206073D01*
X47078742Y-68211000D01*
X46901258Y-68211000D01*
X46876488Y-68206073D01*
X46727188Y-68176376D01*
X46563216Y-68108456D01*
X46415646Y-68009853D01*
X46290147Y-67884354D01*
X46191544Y-67736784D01*
X46123624Y-67572812D01*
X46089000Y-67398741D01*
X46089000Y-67221259D01*
X46123624Y-67047188D01*
X46191544Y-66883216D01*
X46290147Y-66735646D01*
X46415646Y-66610147D01*
X46563216Y-66511544D01*
X46727188Y-66443624D01*
X46876488Y-66413927D01*
X46901258Y-66409000D01*
X47078742Y-66409000D01*
X47103512Y-66413927D01*
G37*
G36*
X69963512Y-66413927D02*
G01*
X70112812Y-66443624D01*
X70276784Y-66511544D01*
X70424354Y-66610147D01*
X70549853Y-66735646D01*
X70648456Y-66883216D01*
X70716376Y-67047188D01*
X70751000Y-67221259D01*
X70751000Y-67398741D01*
X70716376Y-67572812D01*
X70648456Y-67736784D01*
X70549853Y-67884354D01*
X70424354Y-68009853D01*
X70276784Y-68108456D01*
X70112812Y-68176376D01*
X69963512Y-68206073D01*
X69938742Y-68211000D01*
X69761258Y-68211000D01*
X69736488Y-68206073D01*
X69587188Y-68176376D01*
X69423216Y-68108456D01*
X69275646Y-68009853D01*
X69150147Y-67884354D01*
X69051544Y-67736784D01*
X68983624Y-67572812D01*
X68949000Y-67398741D01*
X68949000Y-67221259D01*
X68983624Y-67047188D01*
X69051544Y-66883216D01*
X69150147Y-66735646D01*
X69275646Y-66610147D01*
X69423216Y-66511544D01*
X69587188Y-66443624D01*
X69736488Y-66413927D01*
X69761258Y-66409000D01*
X69938742Y-66409000D01*
X69963512Y-66413927D01*
G37*
G36*
X38348228Y-65221703D02*
G01*
X38503100Y-65285853D01*
X38642481Y-65378985D01*
X38761015Y-65497519D01*
X38854147Y-65636900D01*
X38918297Y-65791772D01*
X38951000Y-65956184D01*
X38951000Y-66123816D01*
X38918297Y-66288228D01*
X38854147Y-66443100D01*
X38761015Y-66582481D01*
X38642481Y-66701015D01*
X38503100Y-66794147D01*
X38348228Y-66858297D01*
X38183816Y-66891000D01*
X38016184Y-66891000D01*
X37851772Y-66858297D01*
X37696900Y-66794147D01*
X37557519Y-66701015D01*
X37438985Y-66582481D01*
X37345853Y-66443100D01*
X37281703Y-66288228D01*
X37249000Y-66123816D01*
X37249000Y-65956184D01*
X37281703Y-65791772D01*
X37345853Y-65636900D01*
X37438985Y-65497519D01*
X37557519Y-65378985D01*
X37696900Y-65285853D01*
X37851772Y-65221703D01*
X38016184Y-65189000D01*
X38183816Y-65189000D01*
X38348228Y-65221703D01*
G37*
G36*
X53588228Y-65221703D02*
G01*
X53743100Y-65285853D01*
X53882481Y-65378985D01*
X54001015Y-65497519D01*
X54094147Y-65636900D01*
X54158297Y-65791772D01*
X54191000Y-65956184D01*
X54191000Y-66123816D01*
X54158297Y-66288228D01*
X54094147Y-66443100D01*
X54001015Y-66582481D01*
X53882481Y-66701015D01*
X53743100Y-66794147D01*
X53588228Y-66858297D01*
X53423816Y-66891000D01*
X53256184Y-66891000D01*
X53091772Y-66858297D01*
X52936900Y-66794147D01*
X52797519Y-66701015D01*
X52678985Y-66582481D01*
X52585853Y-66443100D01*
X52521703Y-66288228D01*
X52489000Y-66123816D01*
X52489000Y-65956184D01*
X52521703Y-65791772D01*
X52585853Y-65636900D01*
X52678985Y-65497519D01*
X52797519Y-65378985D01*
X52936900Y-65285853D01*
X53091772Y-65221703D01*
X53256184Y-65189000D01*
X53423816Y-65189000D01*
X53588228Y-65221703D01*
G37*
G36*
X51048228Y-65221703D02*
G01*
X51203100Y-65285853D01*
X51342481Y-65378985D01*
X51461015Y-65497519D01*
X51554147Y-65636900D01*
X51618297Y-65791772D01*
X51651000Y-65956184D01*
X51651000Y-66123816D01*
X51618297Y-66288228D01*
X51554147Y-66443100D01*
X51461015Y-66582481D01*
X51342481Y-66701015D01*
X51203100Y-66794147D01*
X51048228Y-66858297D01*
X50883816Y-66891000D01*
X50716184Y-66891000D01*
X50551772Y-66858297D01*
X50396900Y-66794147D01*
X50257519Y-66701015D01*
X50138985Y-66582481D01*
X50045853Y-66443100D01*
X49981703Y-66288228D01*
X49949000Y-66123816D01*
X49949000Y-65956184D01*
X49981703Y-65791772D01*
X50045853Y-65636900D01*
X50138985Y-65497519D01*
X50257519Y-65378985D01*
X50396900Y-65285853D01*
X50551772Y-65221703D01*
X50716184Y-65189000D01*
X50883816Y-65189000D01*
X51048228Y-65221703D01*
G37*
G36*
X66288228Y-65221703D02*
G01*
X66443100Y-65285853D01*
X66582481Y-65378985D01*
X66701015Y-65497519D01*
X66794147Y-65636900D01*
X66858297Y-65791772D01*
X66891000Y-65956184D01*
X66891000Y-66123816D01*
X66858297Y-66288228D01*
X66794147Y-66443100D01*
X66701015Y-66582481D01*
X66582481Y-66701015D01*
X66443100Y-66794147D01*
X66288228Y-66858297D01*
X66123816Y-66891000D01*
X65956184Y-66891000D01*
X65791772Y-66858297D01*
X65636900Y-66794147D01*
X65497519Y-66701015D01*
X65378985Y-66582481D01*
X65285853Y-66443100D01*
X65221703Y-66288228D01*
X65189000Y-66123816D01*
X65189000Y-65956184D01*
X65221703Y-65791772D01*
X65285853Y-65636900D01*
X65378985Y-65497519D01*
X65497519Y-65378985D01*
X65636900Y-65285853D01*
X65791772Y-65221703D01*
X65956184Y-65189000D01*
X66123816Y-65189000D01*
X66288228Y-65221703D01*
G37*
G36*
X69963512Y-63873927D02*
G01*
X70112812Y-63903624D01*
X70276784Y-63971544D01*
X70424354Y-64070147D01*
X70549853Y-64195646D01*
X70648456Y-64343216D01*
X70716376Y-64507188D01*
X70751000Y-64681259D01*
X70751000Y-64858741D01*
X70716376Y-65032812D01*
X70648456Y-65196784D01*
X70549853Y-65344354D01*
X70424354Y-65469853D01*
X70276784Y-65568456D01*
X70112812Y-65636376D01*
X69963512Y-65666073D01*
X69938742Y-65671000D01*
X69761258Y-65671000D01*
X69736488Y-65666073D01*
X69587188Y-65636376D01*
X69423216Y-65568456D01*
X69275646Y-65469853D01*
X69150147Y-65344354D01*
X69051544Y-65196784D01*
X68983624Y-65032812D01*
X68949000Y-64858741D01*
X68949000Y-64681259D01*
X68983624Y-64507188D01*
X69051544Y-64343216D01*
X69150147Y-64195646D01*
X69275646Y-64070147D01*
X69423216Y-63971544D01*
X69587188Y-63903624D01*
X69736488Y-63873927D01*
X69761258Y-63869000D01*
X69938742Y-63869000D01*
X69963512Y-63873927D01*
G37*
G36*
X47103512Y-63873927D02*
G01*
X47252812Y-63903624D01*
X47416784Y-63971544D01*
X47564354Y-64070147D01*
X47689853Y-64195646D01*
X47788456Y-64343216D01*
X47856376Y-64507188D01*
X47891000Y-64681259D01*
X47891000Y-64858741D01*
X47856376Y-65032812D01*
X47788456Y-65196784D01*
X47689853Y-65344354D01*
X47564354Y-65469853D01*
X47416784Y-65568456D01*
X47252812Y-65636376D01*
X47103512Y-65666073D01*
X47078742Y-65671000D01*
X46901258Y-65671000D01*
X46876488Y-65666073D01*
X46727188Y-65636376D01*
X46563216Y-65568456D01*
X46415646Y-65469853D01*
X46290147Y-65344354D01*
X46191544Y-65196784D01*
X46123624Y-65032812D01*
X46089000Y-64858741D01*
X46089000Y-64681259D01*
X46123624Y-64507188D01*
X46191544Y-64343216D01*
X46290147Y-64195646D01*
X46415646Y-64070147D01*
X46563216Y-63971544D01*
X46727188Y-63903624D01*
X46876488Y-63873927D01*
X46901258Y-63869000D01*
X47078742Y-63869000D01*
X47103512Y-63873927D01*
G37*
G36*
X38348228Y-62681703D02*
G01*
X38503100Y-62745853D01*
X38642481Y-62838985D01*
X38761015Y-62957519D01*
X38854147Y-63096900D01*
X38918297Y-63251772D01*
X38951000Y-63416184D01*
X38951000Y-63583816D01*
X38918297Y-63748228D01*
X38854147Y-63903100D01*
X38761015Y-64042481D01*
X38642481Y-64161015D01*
X38503100Y-64254147D01*
X38348228Y-64318297D01*
X38183816Y-64351000D01*
X38016184Y-64351000D01*
X37851772Y-64318297D01*
X37696900Y-64254147D01*
X37557519Y-64161015D01*
X37438985Y-64042481D01*
X37345853Y-63903100D01*
X37281703Y-63748228D01*
X37249000Y-63583816D01*
X37249000Y-63416184D01*
X37281703Y-63251772D01*
X37345853Y-63096900D01*
X37438985Y-62957519D01*
X37557519Y-62838985D01*
X37696900Y-62745853D01*
X37851772Y-62681703D01*
X38016184Y-62649000D01*
X38183816Y-62649000D01*
X38348228Y-62681703D01*
G37*
G36*
X53588228Y-62681703D02*
G01*
X53743100Y-62745853D01*
X53882481Y-62838985D01*
X54001015Y-62957519D01*
X54094147Y-63096900D01*
X54158297Y-63251772D01*
X54191000Y-63416184D01*
X54191000Y-63583816D01*
X54158297Y-63748228D01*
X54094147Y-63903100D01*
X54001015Y-64042481D01*
X53882481Y-64161015D01*
X53743100Y-64254147D01*
X53588228Y-64318297D01*
X53423816Y-64351000D01*
X53256184Y-64351000D01*
X53091772Y-64318297D01*
X52936900Y-64254147D01*
X52797519Y-64161015D01*
X52678985Y-64042481D01*
X52585853Y-63903100D01*
X52521703Y-63748228D01*
X52489000Y-63583816D01*
X52489000Y-63416184D01*
X52521703Y-63251772D01*
X52585853Y-63096900D01*
X52678985Y-62957519D01*
X52797519Y-62838985D01*
X52936900Y-62745853D01*
X53091772Y-62681703D01*
X53256184Y-62649000D01*
X53423816Y-62649000D01*
X53588228Y-62681703D01*
G37*
G36*
X51048228Y-62681703D02*
G01*
X51203100Y-62745853D01*
X51342481Y-62838985D01*
X51461015Y-62957519D01*
X51554147Y-63096900D01*
X51618297Y-63251772D01*
X51651000Y-63416184D01*
X51651000Y-63583816D01*
X51618297Y-63748228D01*
X51554147Y-63903100D01*
X51461015Y-64042481D01*
X51342481Y-64161015D01*
X51203100Y-64254147D01*
X51048228Y-64318297D01*
X50883816Y-64351000D01*
X50716184Y-64351000D01*
X50551772Y-64318297D01*
X50396900Y-64254147D01*
X50257519Y-64161015D01*
X50138985Y-64042481D01*
X50045853Y-63903100D01*
X49981703Y-63748228D01*
X49949000Y-63583816D01*
X49949000Y-63416184D01*
X49981703Y-63251772D01*
X50045853Y-63096900D01*
X50138985Y-62957519D01*
X50257519Y-62838985D01*
X50396900Y-62745853D01*
X50551772Y-62681703D01*
X50716184Y-62649000D01*
X50883816Y-62649000D01*
X51048228Y-62681703D01*
G37*
G36*
X66288228Y-62681703D02*
G01*
X66443100Y-62745853D01*
X66582481Y-62838985D01*
X66701015Y-62957519D01*
X66794147Y-63096900D01*
X66858297Y-63251772D01*
X66891000Y-63416184D01*
X66891000Y-63583816D01*
X66858297Y-63748228D01*
X66794147Y-63903100D01*
X66701015Y-64042481D01*
X66582481Y-64161015D01*
X66443100Y-64254147D01*
X66288228Y-64318297D01*
X66123816Y-64351000D01*
X65956184Y-64351000D01*
X65791772Y-64318297D01*
X65636900Y-64254147D01*
X65497519Y-64161015D01*
X65378985Y-64042481D01*
X65285853Y-63903100D01*
X65221703Y-63748228D01*
X65189000Y-63583816D01*
X65189000Y-63416184D01*
X65221703Y-63251772D01*
X65285853Y-63096900D01*
X65378985Y-62957519D01*
X65497519Y-62838985D01*
X65636900Y-62745853D01*
X65791772Y-62681703D01*
X65956184Y-62649000D01*
X66123816Y-62649000D01*
X66288228Y-62681703D01*
G37*
G36*
X69963512Y-61333927D02*
G01*
X70112812Y-61363624D01*
X70276784Y-61431544D01*
X70424354Y-61530147D01*
X70549853Y-61655646D01*
X70648456Y-61803216D01*
X70716376Y-61967188D01*
X70751000Y-62141259D01*
X70751000Y-62318741D01*
X70716376Y-62492812D01*
X70648456Y-62656784D01*
X70549853Y-62804354D01*
X70424354Y-62929853D01*
X70276784Y-63028456D01*
X70112812Y-63096376D01*
X69963512Y-63126073D01*
X69938742Y-63131000D01*
X69761258Y-63131000D01*
X69736488Y-63126073D01*
X69587188Y-63096376D01*
X69423216Y-63028456D01*
X69275646Y-62929853D01*
X69150147Y-62804354D01*
X69051544Y-62656784D01*
X68983624Y-62492812D01*
X68949000Y-62318741D01*
X68949000Y-62141259D01*
X68983624Y-61967188D01*
X69051544Y-61803216D01*
X69150147Y-61655646D01*
X69275646Y-61530147D01*
X69423216Y-61431544D01*
X69587188Y-61363624D01*
X69736488Y-61333927D01*
X69761258Y-61329000D01*
X69938742Y-61329000D01*
X69963512Y-61333927D01*
G37*
G36*
X47103512Y-61333927D02*
G01*
X47252812Y-61363624D01*
X47416784Y-61431544D01*
X47564354Y-61530147D01*
X47689853Y-61655646D01*
X47788456Y-61803216D01*
X47856376Y-61967188D01*
X47891000Y-62141259D01*
X47891000Y-62318741D01*
X47856376Y-62492812D01*
X47788456Y-62656784D01*
X47689853Y-62804354D01*
X47564354Y-62929853D01*
X47416784Y-63028456D01*
X47252812Y-63096376D01*
X47103512Y-63126073D01*
X47078742Y-63131000D01*
X46901258Y-63131000D01*
X46876488Y-63126073D01*
X46727188Y-63096376D01*
X46563216Y-63028456D01*
X46415646Y-62929853D01*
X46290147Y-62804354D01*
X46191544Y-62656784D01*
X46123624Y-62492812D01*
X46089000Y-62318741D01*
X46089000Y-62141259D01*
X46123624Y-61967188D01*
X46191544Y-61803216D01*
X46290147Y-61655646D01*
X46415646Y-61530147D01*
X46563216Y-61431544D01*
X46727188Y-61363624D01*
X46876488Y-61333927D01*
X46901258Y-61329000D01*
X47078742Y-61329000D01*
X47103512Y-61333927D01*
G37*
G36*
X51048228Y-60141703D02*
G01*
X51203100Y-60205853D01*
X51342481Y-60298985D01*
X51461015Y-60417519D01*
X51554147Y-60556900D01*
X51618297Y-60711772D01*
X51651000Y-60876184D01*
X51651000Y-61043816D01*
X51618297Y-61208228D01*
X51554147Y-61363100D01*
X51461015Y-61502481D01*
X51342481Y-61621015D01*
X51203100Y-61714147D01*
X51048228Y-61778297D01*
X50883816Y-61811000D01*
X50716184Y-61811000D01*
X50551772Y-61778297D01*
X50396900Y-61714147D01*
X50257519Y-61621015D01*
X50138985Y-61502481D01*
X50045853Y-61363100D01*
X49981703Y-61208228D01*
X49949000Y-61043816D01*
X49949000Y-60876184D01*
X49981703Y-60711772D01*
X50045853Y-60556900D01*
X50138985Y-60417519D01*
X50257519Y-60298985D01*
X50396900Y-60205853D01*
X50551772Y-60141703D01*
X50716184Y-60109000D01*
X50883816Y-60109000D01*
X51048228Y-60141703D01*
G37*
G36*
X66288228Y-60141703D02*
G01*
X66443100Y-60205853D01*
X66582481Y-60298985D01*
X66701015Y-60417519D01*
X66794147Y-60556900D01*
X66858297Y-60711772D01*
X66891000Y-60876184D01*
X66891000Y-61043816D01*
X66858297Y-61208228D01*
X66794147Y-61363100D01*
X66701015Y-61502481D01*
X66582481Y-61621015D01*
X66443100Y-61714147D01*
X66288228Y-61778297D01*
X66123816Y-61811000D01*
X65956184Y-61811000D01*
X65791772Y-61778297D01*
X65636900Y-61714147D01*
X65497519Y-61621015D01*
X65378985Y-61502481D01*
X65285853Y-61363100D01*
X65221703Y-61208228D01*
X65189000Y-61043816D01*
X65189000Y-60876184D01*
X65221703Y-60711772D01*
X65285853Y-60556900D01*
X65378985Y-60417519D01*
X65497519Y-60298985D01*
X65636900Y-60205853D01*
X65791772Y-60141703D01*
X65956184Y-60109000D01*
X66123816Y-60109000D01*
X66288228Y-60141703D01*
G37*
G36*
X38348228Y-60141703D02*
G01*
X38503100Y-60205853D01*
X38642481Y-60298985D01*
X38761015Y-60417519D01*
X38854147Y-60556900D01*
X38918297Y-60711772D01*
X38951000Y-60876184D01*
X38951000Y-61043816D01*
X38918297Y-61208228D01*
X38854147Y-61363100D01*
X38761015Y-61502481D01*
X38642481Y-61621015D01*
X38503100Y-61714147D01*
X38348228Y-61778297D01*
X38183816Y-61811000D01*
X38016184Y-61811000D01*
X37851772Y-61778297D01*
X37696900Y-61714147D01*
X37557519Y-61621015D01*
X37438985Y-61502481D01*
X37345853Y-61363100D01*
X37281703Y-61208228D01*
X37249000Y-61043816D01*
X37249000Y-60876184D01*
X37281703Y-60711772D01*
X37345853Y-60556900D01*
X37438985Y-60417519D01*
X37557519Y-60298985D01*
X37696900Y-60205853D01*
X37851772Y-60141703D01*
X38016184Y-60109000D01*
X38183816Y-60109000D01*
X38348228Y-60141703D01*
G37*
G36*
X53588228Y-60141703D02*
G01*
X53743100Y-60205853D01*
X53882481Y-60298985D01*
X54001015Y-60417519D01*
X54094147Y-60556900D01*
X54158297Y-60711772D01*
X54191000Y-60876184D01*
X54191000Y-61043816D01*
X54158297Y-61208228D01*
X54094147Y-61363100D01*
X54001015Y-61502481D01*
X53882481Y-61621015D01*
X53743100Y-61714147D01*
X53588228Y-61778297D01*
X53423816Y-61811000D01*
X53256184Y-61811000D01*
X53091772Y-61778297D01*
X52936900Y-61714147D01*
X52797519Y-61621015D01*
X52678985Y-61502481D01*
X52585853Y-61363100D01*
X52521703Y-61208228D01*
X52489000Y-61043816D01*
X52489000Y-60876184D01*
X52521703Y-60711772D01*
X52585853Y-60556900D01*
X52678985Y-60417519D01*
X52797519Y-60298985D01*
X52936900Y-60205853D01*
X53091772Y-60141703D01*
X53256184Y-60109000D01*
X53423816Y-60109000D01*
X53588228Y-60141703D01*
G37*
G36*
X69963512Y-58793927D02*
G01*
X70112812Y-58823624D01*
X70276784Y-58891544D01*
X70424354Y-58990147D01*
X70549853Y-59115646D01*
X70648456Y-59263216D01*
X70716376Y-59427188D01*
X70751000Y-59601259D01*
X70751000Y-59778741D01*
X70716376Y-59952812D01*
X70648456Y-60116784D01*
X70549853Y-60264354D01*
X70424354Y-60389853D01*
X70276784Y-60488456D01*
X70112812Y-60556376D01*
X69963512Y-60586073D01*
X69938742Y-60591000D01*
X69761258Y-60591000D01*
X69736488Y-60586073D01*
X69587188Y-60556376D01*
X69423216Y-60488456D01*
X69275646Y-60389853D01*
X69150147Y-60264354D01*
X69051544Y-60116784D01*
X68983624Y-59952812D01*
X68949000Y-59778741D01*
X68949000Y-59601259D01*
X68983624Y-59427188D01*
X69051544Y-59263216D01*
X69150147Y-59115646D01*
X69275646Y-58990147D01*
X69423216Y-58891544D01*
X69587188Y-58823624D01*
X69736488Y-58793927D01*
X69761258Y-58789000D01*
X69938742Y-58789000D01*
X69963512Y-58793927D01*
G37*
G36*
X47103512Y-58793927D02*
G01*
X47252812Y-58823624D01*
X47416784Y-58891544D01*
X47564354Y-58990147D01*
X47689853Y-59115646D01*
X47788456Y-59263216D01*
X47856376Y-59427188D01*
X47891000Y-59601259D01*
X47891000Y-59778741D01*
X47856376Y-59952812D01*
X47788456Y-60116784D01*
X47689853Y-60264354D01*
X47564354Y-60389853D01*
X47416784Y-60488456D01*
X47252812Y-60556376D01*
X47103512Y-60586073D01*
X47078742Y-60591000D01*
X46901258Y-60591000D01*
X46876488Y-60586073D01*
X46727188Y-60556376D01*
X46563216Y-60488456D01*
X46415646Y-60389853D01*
X46290147Y-60264354D01*
X46191544Y-60116784D01*
X46123624Y-59952812D01*
X46089000Y-59778741D01*
X46089000Y-59601259D01*
X46123624Y-59427188D01*
X46191544Y-59263216D01*
X46290147Y-59115646D01*
X46415646Y-58990147D01*
X46563216Y-58891544D01*
X46727188Y-58823624D01*
X46876488Y-58793927D01*
X46901258Y-58789000D01*
X47078742Y-58789000D01*
X47103512Y-58793927D01*
G37*
G36*
X53588228Y-57601703D02*
G01*
X53743100Y-57665853D01*
X53882481Y-57758985D01*
X54001015Y-57877519D01*
X54094147Y-58016900D01*
X54158297Y-58171772D01*
X54191000Y-58336184D01*
X54191000Y-58503816D01*
X54158297Y-58668228D01*
X54094147Y-58823100D01*
X54001015Y-58962481D01*
X53882481Y-59081015D01*
X53743100Y-59174147D01*
X53588228Y-59238297D01*
X53423816Y-59271000D01*
X53256184Y-59271000D01*
X53091772Y-59238297D01*
X52936900Y-59174147D01*
X52797519Y-59081015D01*
X52678985Y-58962481D01*
X52585853Y-58823100D01*
X52521703Y-58668228D01*
X52489000Y-58503816D01*
X52489000Y-58336184D01*
X52521703Y-58171772D01*
X52585853Y-58016900D01*
X52678985Y-57877519D01*
X52797519Y-57758985D01*
X52936900Y-57665853D01*
X53091772Y-57601703D01*
X53256184Y-57569000D01*
X53423816Y-57569000D01*
X53588228Y-57601703D01*
G37*
G36*
X38348228Y-57601703D02*
G01*
X38503100Y-57665853D01*
X38642481Y-57758985D01*
X38761015Y-57877519D01*
X38854147Y-58016900D01*
X38918297Y-58171772D01*
X38951000Y-58336184D01*
X38951000Y-58503816D01*
X38918297Y-58668228D01*
X38854147Y-58823100D01*
X38761015Y-58962481D01*
X38642481Y-59081015D01*
X38503100Y-59174147D01*
X38348228Y-59238297D01*
X38183816Y-59271000D01*
X38016184Y-59271000D01*
X37851772Y-59238297D01*
X37696900Y-59174147D01*
X37557519Y-59081015D01*
X37438985Y-58962481D01*
X37345853Y-58823100D01*
X37281703Y-58668228D01*
X37249000Y-58503816D01*
X37249000Y-58336184D01*
X37281703Y-58171772D01*
X37345853Y-58016900D01*
X37438985Y-57877519D01*
X37557519Y-57758985D01*
X37696900Y-57665853D01*
X37851772Y-57601703D01*
X38016184Y-57569000D01*
X38183816Y-57569000D01*
X38348228Y-57601703D01*
G37*
G36*
X66288228Y-57601703D02*
G01*
X66443100Y-57665853D01*
X66582481Y-57758985D01*
X66701015Y-57877519D01*
X66794147Y-58016900D01*
X66858297Y-58171772D01*
X66891000Y-58336184D01*
X66891000Y-58503816D01*
X66858297Y-58668228D01*
X66794147Y-58823100D01*
X66701015Y-58962481D01*
X66582481Y-59081015D01*
X66443100Y-59174147D01*
X66288228Y-59238297D01*
X66123816Y-59271000D01*
X65956184Y-59271000D01*
X65791772Y-59238297D01*
X65636900Y-59174147D01*
X65497519Y-59081015D01*
X65378985Y-58962481D01*
X65285853Y-58823100D01*
X65221703Y-58668228D01*
X65189000Y-58503816D01*
X65189000Y-58336184D01*
X65221703Y-58171772D01*
X65285853Y-58016900D01*
X65378985Y-57877519D01*
X65497519Y-57758985D01*
X65636900Y-57665853D01*
X65791772Y-57601703D01*
X65956184Y-57569000D01*
X66123816Y-57569000D01*
X66288228Y-57601703D01*
G37*
G36*
X51048228Y-57601703D02*
G01*
X51203100Y-57665853D01*
X51342481Y-57758985D01*
X51461015Y-57877519D01*
X51554147Y-58016900D01*
X51618297Y-58171772D01*
X51651000Y-58336184D01*
X51651000Y-58503816D01*
X51618297Y-58668228D01*
X51554147Y-58823100D01*
X51461015Y-58962481D01*
X51342481Y-59081015D01*
X51203100Y-59174147D01*
X51048228Y-59238297D01*
X50883816Y-59271000D01*
X50716184Y-59271000D01*
X50551772Y-59238297D01*
X50396900Y-59174147D01*
X50257519Y-59081015D01*
X50138985Y-58962481D01*
X50045853Y-58823100D01*
X49981703Y-58668228D01*
X49949000Y-58503816D01*
X49949000Y-58336184D01*
X49981703Y-58171772D01*
X50045853Y-58016900D01*
X50138985Y-57877519D01*
X50257519Y-57758985D01*
X50396900Y-57665853D01*
X50551772Y-57601703D01*
X50716184Y-57569000D01*
X50883816Y-57569000D01*
X51048228Y-57601703D01*
G37*
G36*
X47103512Y-56253927D02*
G01*
X47252812Y-56283624D01*
X47416784Y-56351544D01*
X47564354Y-56450147D01*
X47689853Y-56575646D01*
X47788456Y-56723216D01*
X47856376Y-56887188D01*
X47891000Y-57061259D01*
X47891000Y-57238741D01*
X47856376Y-57412812D01*
X47788456Y-57576784D01*
X47689853Y-57724354D01*
X47564354Y-57849853D01*
X47416784Y-57948456D01*
X47252812Y-58016376D01*
X47103512Y-58046073D01*
X47078742Y-58051000D01*
X46901258Y-58051000D01*
X46876488Y-58046073D01*
X46727188Y-58016376D01*
X46563216Y-57948456D01*
X46415646Y-57849853D01*
X46290147Y-57724354D01*
X46191544Y-57576784D01*
X46123624Y-57412812D01*
X46089000Y-57238741D01*
X46089000Y-57061259D01*
X46123624Y-56887188D01*
X46191544Y-56723216D01*
X46290147Y-56575646D01*
X46415646Y-56450147D01*
X46563216Y-56351544D01*
X46727188Y-56283624D01*
X46876488Y-56253927D01*
X46901258Y-56249000D01*
X47078742Y-56249000D01*
X47103512Y-56253927D01*
G37*
G36*
X69963512Y-56253927D02*
G01*
X70112812Y-56283624D01*
X70276784Y-56351544D01*
X70424354Y-56450147D01*
X70549853Y-56575646D01*
X70648456Y-56723216D01*
X70716376Y-56887188D01*
X70751000Y-57061259D01*
X70751000Y-57238741D01*
X70716376Y-57412812D01*
X70648456Y-57576784D01*
X70549853Y-57724354D01*
X70424354Y-57849853D01*
X70276784Y-57948456D01*
X70112812Y-58016376D01*
X69963512Y-58046073D01*
X69938742Y-58051000D01*
X69761258Y-58051000D01*
X69736488Y-58046073D01*
X69587188Y-58016376D01*
X69423216Y-57948456D01*
X69275646Y-57849853D01*
X69150147Y-57724354D01*
X69051544Y-57576784D01*
X68983624Y-57412812D01*
X68949000Y-57238741D01*
X68949000Y-57061259D01*
X68983624Y-56887188D01*
X69051544Y-56723216D01*
X69150147Y-56575646D01*
X69275646Y-56450147D01*
X69423216Y-56351544D01*
X69587188Y-56283624D01*
X69736488Y-56253927D01*
X69761258Y-56249000D01*
X69938742Y-56249000D01*
X69963512Y-56253927D01*
G37*
G36*
X51048228Y-55061703D02*
G01*
X51203100Y-55125853D01*
X51342481Y-55218985D01*
X51461015Y-55337519D01*
X51554147Y-55476900D01*
X51618297Y-55631772D01*
X51651000Y-55796184D01*
X51651000Y-55963816D01*
X51618297Y-56128228D01*
X51554147Y-56283100D01*
X51461015Y-56422481D01*
X51342481Y-56541015D01*
X51203100Y-56634147D01*
X51048228Y-56698297D01*
X50883816Y-56731000D01*
X50716184Y-56731000D01*
X50551772Y-56698297D01*
X50396900Y-56634147D01*
X50257519Y-56541015D01*
X50138985Y-56422481D01*
X50045853Y-56283100D01*
X49981703Y-56128228D01*
X49949000Y-55963816D01*
X49949000Y-55796184D01*
X49981703Y-55631772D01*
X50045853Y-55476900D01*
X50138985Y-55337519D01*
X50257519Y-55218985D01*
X50396900Y-55125853D01*
X50551772Y-55061703D01*
X50716184Y-55029000D01*
X50883816Y-55029000D01*
X51048228Y-55061703D01*
G37*
G36*
X38348228Y-55061703D02*
G01*
X38503100Y-55125853D01*
X38642481Y-55218985D01*
X38761015Y-55337519D01*
X38854147Y-55476900D01*
X38918297Y-55631772D01*
X38951000Y-55796184D01*
X38951000Y-55963816D01*
X38918297Y-56128228D01*
X38854147Y-56283100D01*
X38761015Y-56422481D01*
X38642481Y-56541015D01*
X38503100Y-56634147D01*
X38348228Y-56698297D01*
X38183816Y-56731000D01*
X38016184Y-56731000D01*
X37851772Y-56698297D01*
X37696900Y-56634147D01*
X37557519Y-56541015D01*
X37438985Y-56422481D01*
X37345853Y-56283100D01*
X37281703Y-56128228D01*
X37249000Y-55963816D01*
X37249000Y-55796184D01*
X37281703Y-55631772D01*
X37345853Y-55476900D01*
X37438985Y-55337519D01*
X37557519Y-55218985D01*
X37696900Y-55125853D01*
X37851772Y-55061703D01*
X38016184Y-55029000D01*
X38183816Y-55029000D01*
X38348228Y-55061703D01*
G37*
G36*
X66288228Y-55061703D02*
G01*
X66443100Y-55125853D01*
X66582481Y-55218985D01*
X66701015Y-55337519D01*
X66794147Y-55476900D01*
X66858297Y-55631772D01*
X66891000Y-55796184D01*
X66891000Y-55963816D01*
X66858297Y-56128228D01*
X66794147Y-56283100D01*
X66701015Y-56422481D01*
X66582481Y-56541015D01*
X66443100Y-56634147D01*
X66288228Y-56698297D01*
X66123816Y-56731000D01*
X65956184Y-56731000D01*
X65791772Y-56698297D01*
X65636900Y-56634147D01*
X65497519Y-56541015D01*
X65378985Y-56422481D01*
X65285853Y-56283100D01*
X65221703Y-56128228D01*
X65189000Y-55963816D01*
X65189000Y-55796184D01*
X65221703Y-55631772D01*
X65285853Y-55476900D01*
X65378985Y-55337519D01*
X65497519Y-55218985D01*
X65636900Y-55125853D01*
X65791772Y-55061703D01*
X65956184Y-55029000D01*
X66123816Y-55029000D01*
X66288228Y-55061703D01*
G37*
G36*
X53588228Y-55061703D02*
G01*
X53743100Y-55125853D01*
X53882481Y-55218985D01*
X54001015Y-55337519D01*
X54094147Y-55476900D01*
X54158297Y-55631772D01*
X54191000Y-55796184D01*
X54191000Y-55963816D01*
X54158297Y-56128228D01*
X54094147Y-56283100D01*
X54001015Y-56422481D01*
X53882481Y-56541015D01*
X53743100Y-56634147D01*
X53588228Y-56698297D01*
X53423816Y-56731000D01*
X53256184Y-56731000D01*
X53091772Y-56698297D01*
X52936900Y-56634147D01*
X52797519Y-56541015D01*
X52678985Y-56422481D01*
X52585853Y-56283100D01*
X52521703Y-56128228D01*
X52489000Y-55963816D01*
X52489000Y-55796184D01*
X52521703Y-55631772D01*
X52585853Y-55476900D01*
X52678985Y-55337519D01*
X52797519Y-55218985D01*
X52936900Y-55125853D01*
X53091772Y-55061703D01*
X53256184Y-55029000D01*
X53423816Y-55029000D01*
X53588228Y-55061703D01*
G37*
G36*
X47103512Y-53713927D02*
G01*
X47252812Y-53743624D01*
X47416784Y-53811544D01*
X47564354Y-53910147D01*
X47689853Y-54035646D01*
X47788456Y-54183216D01*
X47856376Y-54347188D01*
X47891000Y-54521259D01*
X47891000Y-54698741D01*
X47856376Y-54872812D01*
X47788456Y-55036784D01*
X47689853Y-55184354D01*
X47564354Y-55309853D01*
X47416784Y-55408456D01*
X47252812Y-55476376D01*
X47103512Y-55506073D01*
X47078742Y-55511000D01*
X46901258Y-55511000D01*
X46876488Y-55506073D01*
X46727188Y-55476376D01*
X46563216Y-55408456D01*
X46415646Y-55309853D01*
X46290147Y-55184354D01*
X46191544Y-55036784D01*
X46123624Y-54872812D01*
X46089000Y-54698741D01*
X46089000Y-54521259D01*
X46123624Y-54347188D01*
X46191544Y-54183216D01*
X46290147Y-54035646D01*
X46415646Y-53910147D01*
X46563216Y-53811544D01*
X46727188Y-53743624D01*
X46876488Y-53713927D01*
X46901258Y-53709000D01*
X47078742Y-53709000D01*
X47103512Y-53713927D01*
G37*
G36*
X69963512Y-53713927D02*
G01*
X70112812Y-53743624D01*
X70276784Y-53811544D01*
X70424354Y-53910147D01*
X70549853Y-54035646D01*
X70648456Y-54183216D01*
X70716376Y-54347188D01*
X70751000Y-54521259D01*
X70751000Y-54698741D01*
X70716376Y-54872812D01*
X70648456Y-55036784D01*
X70549853Y-55184354D01*
X70424354Y-55309853D01*
X70276784Y-55408456D01*
X70112812Y-55476376D01*
X69963512Y-55506073D01*
X69938742Y-55511000D01*
X69761258Y-55511000D01*
X69736488Y-55506073D01*
X69587188Y-55476376D01*
X69423216Y-55408456D01*
X69275646Y-55309853D01*
X69150147Y-55184354D01*
X69051544Y-55036784D01*
X68983624Y-54872812D01*
X68949000Y-54698741D01*
X68949000Y-54521259D01*
X68983624Y-54347188D01*
X69051544Y-54183216D01*
X69150147Y-54035646D01*
X69275646Y-53910147D01*
X69423216Y-53811544D01*
X69587188Y-53743624D01*
X69736488Y-53713927D01*
X69761258Y-53709000D01*
X69938742Y-53709000D01*
X69963512Y-53713927D01*
G37*
G36*
X53588228Y-52521703D02*
G01*
X53743100Y-52585853D01*
X53882481Y-52678985D01*
X54001015Y-52797519D01*
X54094147Y-52936900D01*
X54158297Y-53091772D01*
X54191000Y-53256184D01*
X54191000Y-53423816D01*
X54158297Y-53588228D01*
X54094147Y-53743100D01*
X54001015Y-53882481D01*
X53882481Y-54001015D01*
X53743100Y-54094147D01*
X53588228Y-54158297D01*
X53423816Y-54191000D01*
X53256184Y-54191000D01*
X53091772Y-54158297D01*
X52936900Y-54094147D01*
X52797519Y-54001015D01*
X52678985Y-53882481D01*
X52585853Y-53743100D01*
X52521703Y-53588228D01*
X52489000Y-53423816D01*
X52489000Y-53256184D01*
X52521703Y-53091772D01*
X52585853Y-52936900D01*
X52678985Y-52797519D01*
X52797519Y-52678985D01*
X52936900Y-52585853D01*
X53091772Y-52521703D01*
X53256184Y-52489000D01*
X53423816Y-52489000D01*
X53588228Y-52521703D01*
G37*
G36*
X51048228Y-52521703D02*
G01*
X51203100Y-52585853D01*
X51342481Y-52678985D01*
X51461015Y-52797519D01*
X51554147Y-52936900D01*
X51618297Y-53091772D01*
X51651000Y-53256184D01*
X51651000Y-53423816D01*
X51618297Y-53588228D01*
X51554147Y-53743100D01*
X51461015Y-53882481D01*
X51342481Y-54001015D01*
X51203100Y-54094147D01*
X51048228Y-54158297D01*
X50883816Y-54191000D01*
X50716184Y-54191000D01*
X50551772Y-54158297D01*
X50396900Y-54094147D01*
X50257519Y-54001015D01*
X50138985Y-53882481D01*
X50045853Y-53743100D01*
X49981703Y-53588228D01*
X49949000Y-53423816D01*
X49949000Y-53256184D01*
X49981703Y-53091772D01*
X50045853Y-52936900D01*
X50138985Y-52797519D01*
X50257519Y-52678985D01*
X50396900Y-52585853D01*
X50551772Y-52521703D01*
X50716184Y-52489000D01*
X50883816Y-52489000D01*
X51048228Y-52521703D01*
G37*
G36*
X38348228Y-52521703D02*
G01*
X38503100Y-52585853D01*
X38642481Y-52678985D01*
X38761015Y-52797519D01*
X38854147Y-52936900D01*
X38918297Y-53091772D01*
X38951000Y-53256184D01*
X38951000Y-53423816D01*
X38918297Y-53588228D01*
X38854147Y-53743100D01*
X38761015Y-53882481D01*
X38642481Y-54001015D01*
X38503100Y-54094147D01*
X38348228Y-54158297D01*
X38183816Y-54191000D01*
X38016184Y-54191000D01*
X37851772Y-54158297D01*
X37696900Y-54094147D01*
X37557519Y-54001015D01*
X37438985Y-53882481D01*
X37345853Y-53743100D01*
X37281703Y-53588228D01*
X37249000Y-53423816D01*
X37249000Y-53256184D01*
X37281703Y-53091772D01*
X37345853Y-52936900D01*
X37438985Y-52797519D01*
X37557519Y-52678985D01*
X37696900Y-52585853D01*
X37851772Y-52521703D01*
X38016184Y-52489000D01*
X38183816Y-52489000D01*
X38348228Y-52521703D01*
G37*
G36*
X66288228Y-52521703D02*
G01*
X66443100Y-52585853D01*
X66582481Y-52678985D01*
X66701015Y-52797519D01*
X66794147Y-52936900D01*
X66858297Y-53091772D01*
X66891000Y-53256184D01*
X66891000Y-53423816D01*
X66858297Y-53588228D01*
X66794147Y-53743100D01*
X66701015Y-53882481D01*
X66582481Y-54001015D01*
X66443100Y-54094147D01*
X66288228Y-54158297D01*
X66123816Y-54191000D01*
X65956184Y-54191000D01*
X65791772Y-54158297D01*
X65636900Y-54094147D01*
X65497519Y-54001015D01*
X65378985Y-53882481D01*
X65285853Y-53743100D01*
X65221703Y-53588228D01*
X65189000Y-53423816D01*
X65189000Y-53256184D01*
X65221703Y-53091772D01*
X65285853Y-52936900D01*
X65378985Y-52797519D01*
X65497519Y-52678985D01*
X65636900Y-52585853D01*
X65791772Y-52521703D01*
X65956184Y-52489000D01*
X66123816Y-52489000D01*
X66288228Y-52521703D01*
G37*
G36*
X69963512Y-51173927D02*
G01*
X70112812Y-51203624D01*
X70276784Y-51271544D01*
X70424354Y-51370147D01*
X70549853Y-51495646D01*
X70648456Y-51643216D01*
X70716376Y-51807188D01*
X70751000Y-51981259D01*
X70751000Y-52158741D01*
X70716376Y-52332812D01*
X70648456Y-52496784D01*
X70549853Y-52644354D01*
X70424354Y-52769853D01*
X70276784Y-52868456D01*
X70112812Y-52936376D01*
X69963512Y-52966073D01*
X69938742Y-52971000D01*
X69761258Y-52971000D01*
X69736488Y-52966073D01*
X69587188Y-52936376D01*
X69423216Y-52868456D01*
X69275646Y-52769853D01*
X69150147Y-52644354D01*
X69051544Y-52496784D01*
X68983624Y-52332812D01*
X68949000Y-52158741D01*
X68949000Y-51981259D01*
X68983624Y-51807188D01*
X69051544Y-51643216D01*
X69150147Y-51495646D01*
X69275646Y-51370147D01*
X69423216Y-51271544D01*
X69587188Y-51203624D01*
X69736488Y-51173927D01*
X69761258Y-51169000D01*
X69938742Y-51169000D01*
X69963512Y-51173927D01*
G37*
G36*
X47103512Y-51173927D02*
G01*
X47252812Y-51203624D01*
X47416784Y-51271544D01*
X47564354Y-51370147D01*
X47689853Y-51495646D01*
X47788456Y-51643216D01*
X47856376Y-51807188D01*
X47891000Y-51981259D01*
X47891000Y-52158741D01*
X47856376Y-52332812D01*
X47788456Y-52496784D01*
X47689853Y-52644354D01*
X47564354Y-52769853D01*
X47416784Y-52868456D01*
X47252812Y-52936376D01*
X47103512Y-52966073D01*
X47078742Y-52971000D01*
X46901258Y-52971000D01*
X46876488Y-52966073D01*
X46727188Y-52936376D01*
X46563216Y-52868456D01*
X46415646Y-52769853D01*
X46290147Y-52644354D01*
X46191544Y-52496784D01*
X46123624Y-52332812D01*
X46089000Y-52158741D01*
X46089000Y-51981259D01*
X46123624Y-51807188D01*
X46191544Y-51643216D01*
X46290147Y-51495646D01*
X46415646Y-51370147D01*
X46563216Y-51271544D01*
X46727188Y-51203624D01*
X46876488Y-51173927D01*
X46901258Y-51169000D01*
X47078742Y-51169000D01*
X47103512Y-51173927D01*
G37*
G36*
X66288228Y-49981703D02*
G01*
X66443100Y-50045853D01*
X66582481Y-50138985D01*
X66701015Y-50257519D01*
X66794147Y-50396900D01*
X66858297Y-50551772D01*
X66891000Y-50716184D01*
X66891000Y-50883816D01*
X66858297Y-51048228D01*
X66794147Y-51203100D01*
X66701015Y-51342481D01*
X66582481Y-51461015D01*
X66443100Y-51554147D01*
X66288228Y-51618297D01*
X66123816Y-51651000D01*
X65956184Y-51651000D01*
X65791772Y-51618297D01*
X65636900Y-51554147D01*
X65497519Y-51461015D01*
X65378985Y-51342481D01*
X65285853Y-51203100D01*
X65221703Y-51048228D01*
X65189000Y-50883816D01*
X65189000Y-50716184D01*
X65221703Y-50551772D01*
X65285853Y-50396900D01*
X65378985Y-50257519D01*
X65497519Y-50138985D01*
X65636900Y-50045853D01*
X65791772Y-49981703D01*
X65956184Y-49949000D01*
X66123816Y-49949000D01*
X66288228Y-49981703D01*
G37*
G36*
X38348228Y-49981703D02*
G01*
X38503100Y-50045853D01*
X38642481Y-50138985D01*
X38761015Y-50257519D01*
X38854147Y-50396900D01*
X38918297Y-50551772D01*
X38951000Y-50716184D01*
X38951000Y-50883816D01*
X38918297Y-51048228D01*
X38854147Y-51203100D01*
X38761015Y-51342481D01*
X38642481Y-51461015D01*
X38503100Y-51554147D01*
X38348228Y-51618297D01*
X38183816Y-51651000D01*
X38016184Y-51651000D01*
X37851772Y-51618297D01*
X37696900Y-51554147D01*
X37557519Y-51461015D01*
X37438985Y-51342481D01*
X37345853Y-51203100D01*
X37281703Y-51048228D01*
X37249000Y-50883816D01*
X37249000Y-50716184D01*
X37281703Y-50551772D01*
X37345853Y-50396900D01*
X37438985Y-50257519D01*
X37557519Y-50138985D01*
X37696900Y-50045853D01*
X37851772Y-49981703D01*
X38016184Y-49949000D01*
X38183816Y-49949000D01*
X38348228Y-49981703D01*
G37*
G36*
X51048228Y-49981703D02*
G01*
X51203100Y-50045853D01*
X51342481Y-50138985D01*
X51461015Y-50257519D01*
X51554147Y-50396900D01*
X51618297Y-50551772D01*
X51651000Y-50716184D01*
X51651000Y-50883816D01*
X51618297Y-51048228D01*
X51554147Y-51203100D01*
X51461015Y-51342481D01*
X51342481Y-51461015D01*
X51203100Y-51554147D01*
X51048228Y-51618297D01*
X50883816Y-51651000D01*
X50716184Y-51651000D01*
X50551772Y-51618297D01*
X50396900Y-51554147D01*
X50257519Y-51461015D01*
X50138985Y-51342481D01*
X50045853Y-51203100D01*
X49981703Y-51048228D01*
X49949000Y-50883816D01*
X49949000Y-50716184D01*
X49981703Y-50551772D01*
X50045853Y-50396900D01*
X50138985Y-50257519D01*
X50257519Y-50138985D01*
X50396900Y-50045853D01*
X50551772Y-49981703D01*
X50716184Y-49949000D01*
X50883816Y-49949000D01*
X51048228Y-49981703D01*
G37*
G36*
X53588228Y-49981703D02*
G01*
X53743100Y-50045853D01*
X53882481Y-50138985D01*
X54001015Y-50257519D01*
X54094147Y-50396900D01*
X54158297Y-50551772D01*
X54191000Y-50716184D01*
X54191000Y-50883816D01*
X54158297Y-51048228D01*
X54094147Y-51203100D01*
X54001015Y-51342481D01*
X53882481Y-51461015D01*
X53743100Y-51554147D01*
X53588228Y-51618297D01*
X53423816Y-51651000D01*
X53256184Y-51651000D01*
X53091772Y-51618297D01*
X52936900Y-51554147D01*
X52797519Y-51461015D01*
X52678985Y-51342481D01*
X52585853Y-51203100D01*
X52521703Y-51048228D01*
X52489000Y-50883816D01*
X52489000Y-50716184D01*
X52521703Y-50551772D01*
X52585853Y-50396900D01*
X52678985Y-50257519D01*
X52797519Y-50138985D01*
X52936900Y-50045853D01*
X53091772Y-49981703D01*
X53256184Y-49949000D01*
X53423816Y-49949000D01*
X53588228Y-49981703D01*
G37*
G36*
X69963512Y-48633927D02*
G01*
X70112812Y-48663624D01*
X70276784Y-48731544D01*
X70424354Y-48830147D01*
X70549853Y-48955646D01*
X70648456Y-49103216D01*
X70716376Y-49267188D01*
X70751000Y-49441259D01*
X70751000Y-49618741D01*
X70716376Y-49792812D01*
X70648456Y-49956784D01*
X70549853Y-50104354D01*
X70424354Y-50229853D01*
X70276784Y-50328456D01*
X70112812Y-50396376D01*
X69963512Y-50426073D01*
X69938742Y-50431000D01*
X69761258Y-50431000D01*
X69736488Y-50426073D01*
X69587188Y-50396376D01*
X69423216Y-50328456D01*
X69275646Y-50229853D01*
X69150147Y-50104354D01*
X69051544Y-49956784D01*
X68983624Y-49792812D01*
X68949000Y-49618741D01*
X68949000Y-49441259D01*
X68983624Y-49267188D01*
X69051544Y-49103216D01*
X69150147Y-48955646D01*
X69275646Y-48830147D01*
X69423216Y-48731544D01*
X69587188Y-48663624D01*
X69736488Y-48633927D01*
X69761258Y-48629000D01*
X69938742Y-48629000D01*
X69963512Y-48633927D01*
G37*
G36*
X47103512Y-48633927D02*
G01*
X47252812Y-48663624D01*
X47416784Y-48731544D01*
X47564354Y-48830147D01*
X47689853Y-48955646D01*
X47788456Y-49103216D01*
X47856376Y-49267188D01*
X47891000Y-49441259D01*
X47891000Y-49618741D01*
X47856376Y-49792812D01*
X47788456Y-49956784D01*
X47689853Y-50104354D01*
X47564354Y-50229853D01*
X47416784Y-50328456D01*
X47252812Y-50396376D01*
X47103512Y-50426073D01*
X47078742Y-50431000D01*
X46901258Y-50431000D01*
X46876488Y-50426073D01*
X46727188Y-50396376D01*
X46563216Y-50328456D01*
X46415646Y-50229853D01*
X46290147Y-50104354D01*
X46191544Y-49956784D01*
X46123624Y-49792812D01*
X46089000Y-49618741D01*
X46089000Y-49441259D01*
X46123624Y-49267188D01*
X46191544Y-49103216D01*
X46290147Y-48955646D01*
X46415646Y-48830147D01*
X46563216Y-48731544D01*
X46727188Y-48663624D01*
X46876488Y-48633927D01*
X46901258Y-48629000D01*
X47078742Y-48629000D01*
X47103512Y-48633927D01*
G37*
G36*
X38348228Y-47441703D02*
G01*
X38503100Y-47505853D01*
X38642481Y-47598985D01*
X38761015Y-47717519D01*
X38854147Y-47856900D01*
X38918297Y-48011772D01*
X38951000Y-48176184D01*
X38951000Y-48343816D01*
X38918297Y-48508228D01*
X38854147Y-48663100D01*
X38761015Y-48802481D01*
X38642481Y-48921015D01*
X38503100Y-49014147D01*
X38348228Y-49078297D01*
X38183816Y-49111000D01*
X38016184Y-49111000D01*
X37851772Y-49078297D01*
X37696900Y-49014147D01*
X37557519Y-48921015D01*
X37438985Y-48802481D01*
X37345853Y-48663100D01*
X37281703Y-48508228D01*
X37249000Y-48343816D01*
X37249000Y-48176184D01*
X37281703Y-48011772D01*
X37345853Y-47856900D01*
X37438985Y-47717519D01*
X37557519Y-47598985D01*
X37696900Y-47505853D01*
X37851772Y-47441703D01*
X38016184Y-47409000D01*
X38183816Y-47409000D01*
X38348228Y-47441703D01*
G37*
G36*
X66288228Y-47441703D02*
G01*
X66443100Y-47505853D01*
X66582481Y-47598985D01*
X66701015Y-47717519D01*
X66794147Y-47856900D01*
X66858297Y-48011772D01*
X66891000Y-48176184D01*
X66891000Y-48343816D01*
X66858297Y-48508228D01*
X66794147Y-48663100D01*
X66701015Y-48802481D01*
X66582481Y-48921015D01*
X66443100Y-49014147D01*
X66288228Y-49078297D01*
X66123816Y-49111000D01*
X65956184Y-49111000D01*
X65791772Y-49078297D01*
X65636900Y-49014147D01*
X65497519Y-48921015D01*
X65378985Y-48802481D01*
X65285853Y-48663100D01*
X65221703Y-48508228D01*
X65189000Y-48343816D01*
X65189000Y-48176184D01*
X65221703Y-48011772D01*
X65285853Y-47856900D01*
X65378985Y-47717519D01*
X65497519Y-47598985D01*
X65636900Y-47505853D01*
X65791772Y-47441703D01*
X65956184Y-47409000D01*
X66123816Y-47409000D01*
X66288228Y-47441703D01*
G37*
G36*
X51048228Y-47441703D02*
G01*
X51203100Y-47505853D01*
X51342481Y-47598985D01*
X51461015Y-47717519D01*
X51554147Y-47856900D01*
X51618297Y-48011772D01*
X51651000Y-48176184D01*
X51651000Y-48343816D01*
X51618297Y-48508228D01*
X51554147Y-48663100D01*
X51461015Y-48802481D01*
X51342481Y-48921015D01*
X51203100Y-49014147D01*
X51048228Y-49078297D01*
X50883816Y-49111000D01*
X50716184Y-49111000D01*
X50551772Y-49078297D01*
X50396900Y-49014147D01*
X50257519Y-48921015D01*
X50138985Y-48802481D01*
X50045853Y-48663100D01*
X49981703Y-48508228D01*
X49949000Y-48343816D01*
X49949000Y-48176184D01*
X49981703Y-48011772D01*
X50045853Y-47856900D01*
X50138985Y-47717519D01*
X50257519Y-47598985D01*
X50396900Y-47505853D01*
X50551772Y-47441703D01*
X50716184Y-47409000D01*
X50883816Y-47409000D01*
X51048228Y-47441703D01*
G37*
G36*
X53588228Y-47441703D02*
G01*
X53743100Y-47505853D01*
X53882481Y-47598985D01*
X54001015Y-47717519D01*
X54094147Y-47856900D01*
X54158297Y-48011772D01*
X54191000Y-48176184D01*
X54191000Y-48343816D01*
X54158297Y-48508228D01*
X54094147Y-48663100D01*
X54001015Y-48802481D01*
X53882481Y-48921015D01*
X53743100Y-49014147D01*
X53588228Y-49078297D01*
X53423816Y-49111000D01*
X53256184Y-49111000D01*
X53091772Y-49078297D01*
X52936900Y-49014147D01*
X52797519Y-48921015D01*
X52678985Y-48802481D01*
X52585853Y-48663100D01*
X52521703Y-48508228D01*
X52489000Y-48343816D01*
X52489000Y-48176184D01*
X52521703Y-48011772D01*
X52585853Y-47856900D01*
X52678985Y-47717519D01*
X52797519Y-47598985D01*
X52936900Y-47505853D01*
X53091772Y-47441703D01*
X53256184Y-47409000D01*
X53423816Y-47409000D01*
X53588228Y-47441703D01*
G37*
G36*
X69963512Y-46093927D02*
G01*
X70112812Y-46123624D01*
X70276784Y-46191544D01*
X70424354Y-46290147D01*
X70549853Y-46415646D01*
X70648456Y-46563216D01*
X70716376Y-46727188D01*
X70751000Y-46901259D01*
X70751000Y-47078741D01*
X70716376Y-47252812D01*
X70648456Y-47416784D01*
X70549853Y-47564354D01*
X70424354Y-47689853D01*
X70276784Y-47788456D01*
X70112812Y-47856376D01*
X69963512Y-47886073D01*
X69938742Y-47891000D01*
X69761258Y-47891000D01*
X69736488Y-47886073D01*
X69587188Y-47856376D01*
X69423216Y-47788456D01*
X69275646Y-47689853D01*
X69150147Y-47564354D01*
X69051544Y-47416784D01*
X68983624Y-47252812D01*
X68949000Y-47078741D01*
X68949000Y-46901259D01*
X68983624Y-46727188D01*
X69051544Y-46563216D01*
X69150147Y-46415646D01*
X69275646Y-46290147D01*
X69423216Y-46191544D01*
X69587188Y-46123624D01*
X69736488Y-46093927D01*
X69761258Y-46089000D01*
X69938742Y-46089000D01*
X69963512Y-46093927D01*
G37*
G36*
X47103512Y-46093927D02*
G01*
X47252812Y-46123624D01*
X47416784Y-46191544D01*
X47564354Y-46290147D01*
X47689853Y-46415646D01*
X47788456Y-46563216D01*
X47856376Y-46727188D01*
X47891000Y-46901259D01*
X47891000Y-47078741D01*
X47856376Y-47252812D01*
X47788456Y-47416784D01*
X47689853Y-47564354D01*
X47564354Y-47689853D01*
X47416784Y-47788456D01*
X47252812Y-47856376D01*
X47103512Y-47886073D01*
X47078742Y-47891000D01*
X46901258Y-47891000D01*
X46876488Y-47886073D01*
X46727188Y-47856376D01*
X46563216Y-47788456D01*
X46415646Y-47689853D01*
X46290147Y-47564354D01*
X46191544Y-47416784D01*
X46123624Y-47252812D01*
X46089000Y-47078741D01*
X46089000Y-46901259D01*
X46123624Y-46727188D01*
X46191544Y-46563216D01*
X46290147Y-46415646D01*
X46415646Y-46290147D01*
X46563216Y-46191544D01*
X46727188Y-46123624D01*
X46876488Y-46093927D01*
X46901258Y-46089000D01*
X47078742Y-46089000D01*
X47103512Y-46093927D01*
G37*
G36*
X53588228Y-44901703D02*
G01*
X53743100Y-44965853D01*
X53882481Y-45058985D01*
X54001015Y-45177519D01*
X54094147Y-45316900D01*
X54158297Y-45471772D01*
X54191000Y-45636184D01*
X54191000Y-45803816D01*
X54158297Y-45968228D01*
X54094147Y-46123100D01*
X54001015Y-46262481D01*
X53882481Y-46381015D01*
X53743100Y-46474147D01*
X53588228Y-46538297D01*
X53423816Y-46571000D01*
X53256184Y-46571000D01*
X53091772Y-46538297D01*
X52936900Y-46474147D01*
X52797519Y-46381015D01*
X52678985Y-46262481D01*
X52585853Y-46123100D01*
X52521703Y-45968228D01*
X52489000Y-45803816D01*
X52489000Y-45636184D01*
X52521703Y-45471772D01*
X52585853Y-45316900D01*
X52678985Y-45177519D01*
X52797519Y-45058985D01*
X52936900Y-44965853D01*
X53091772Y-44901703D01*
X53256184Y-44869000D01*
X53423816Y-44869000D01*
X53588228Y-44901703D01*
G37*
G36*
X38348228Y-44901703D02*
G01*
X38503100Y-44965853D01*
X38642481Y-45058985D01*
X38761015Y-45177519D01*
X38854147Y-45316900D01*
X38918297Y-45471772D01*
X38951000Y-45636184D01*
X38951000Y-45803816D01*
X38918297Y-45968228D01*
X38854147Y-46123100D01*
X38761015Y-46262481D01*
X38642481Y-46381015D01*
X38503100Y-46474147D01*
X38348228Y-46538297D01*
X38183816Y-46571000D01*
X38016184Y-46571000D01*
X37851772Y-46538297D01*
X37696900Y-46474147D01*
X37557519Y-46381015D01*
X37438985Y-46262481D01*
X37345853Y-46123100D01*
X37281703Y-45968228D01*
X37249000Y-45803816D01*
X37249000Y-45636184D01*
X37281703Y-45471772D01*
X37345853Y-45316900D01*
X37438985Y-45177519D01*
X37557519Y-45058985D01*
X37696900Y-44965853D01*
X37851772Y-44901703D01*
X38016184Y-44869000D01*
X38183816Y-44869000D01*
X38348228Y-44901703D01*
G37*
G36*
X51048228Y-44901703D02*
G01*
X51203100Y-44965853D01*
X51342481Y-45058985D01*
X51461015Y-45177519D01*
X51554147Y-45316900D01*
X51618297Y-45471772D01*
X51651000Y-45636184D01*
X51651000Y-45803816D01*
X51618297Y-45968228D01*
X51554147Y-46123100D01*
X51461015Y-46262481D01*
X51342481Y-46381015D01*
X51203100Y-46474147D01*
X51048228Y-46538297D01*
X50883816Y-46571000D01*
X50716184Y-46571000D01*
X50551772Y-46538297D01*
X50396900Y-46474147D01*
X50257519Y-46381015D01*
X50138985Y-46262481D01*
X50045853Y-46123100D01*
X49981703Y-45968228D01*
X49949000Y-45803816D01*
X49949000Y-45636184D01*
X49981703Y-45471772D01*
X50045853Y-45316900D01*
X50138985Y-45177519D01*
X50257519Y-45058985D01*
X50396900Y-44965853D01*
X50551772Y-44901703D01*
X50716184Y-44869000D01*
X50883816Y-44869000D01*
X51048228Y-44901703D01*
G37*
G36*
X66288228Y-44901703D02*
G01*
X66443100Y-44965853D01*
X66582481Y-45058985D01*
X66701015Y-45177519D01*
X66794147Y-45316900D01*
X66858297Y-45471772D01*
X66891000Y-45636184D01*
X66891000Y-45803816D01*
X66858297Y-45968228D01*
X66794147Y-46123100D01*
X66701015Y-46262481D01*
X66582481Y-46381015D01*
X66443100Y-46474147D01*
X66288228Y-46538297D01*
X66123816Y-46571000D01*
X65956184Y-46571000D01*
X65791772Y-46538297D01*
X65636900Y-46474147D01*
X65497519Y-46381015D01*
X65378985Y-46262481D01*
X65285853Y-46123100D01*
X65221703Y-45968228D01*
X65189000Y-45803816D01*
X65189000Y-45636184D01*
X65221703Y-45471772D01*
X65285853Y-45316900D01*
X65378985Y-45177519D01*
X65497519Y-45058985D01*
X65636900Y-44965853D01*
X65791772Y-44901703D01*
X65956184Y-44869000D01*
X66123816Y-44869000D01*
X66288228Y-44901703D01*
G37*
G36*
X47103512Y-43553927D02*
G01*
X47252812Y-43583624D01*
X47416784Y-43651544D01*
X47564354Y-43750147D01*
X47689853Y-43875646D01*
X47788456Y-44023216D01*
X47856376Y-44187188D01*
X47891000Y-44361259D01*
X47891000Y-44538741D01*
X47856376Y-44712812D01*
X47788456Y-44876784D01*
X47689853Y-45024354D01*
X47564354Y-45149853D01*
X47416784Y-45248456D01*
X47252812Y-45316376D01*
X47103512Y-45346073D01*
X47078742Y-45351000D01*
X46901258Y-45351000D01*
X46876488Y-45346073D01*
X46727188Y-45316376D01*
X46563216Y-45248456D01*
X46415646Y-45149853D01*
X46290147Y-45024354D01*
X46191544Y-44876784D01*
X46123624Y-44712812D01*
X46089000Y-44538741D01*
X46089000Y-44361259D01*
X46123624Y-44187188D01*
X46191544Y-44023216D01*
X46290147Y-43875646D01*
X46415646Y-43750147D01*
X46563216Y-43651544D01*
X46727188Y-43583624D01*
X46876488Y-43553927D01*
X46901258Y-43549000D01*
X47078742Y-43549000D01*
X47103512Y-43553927D01*
G37*
G36*
X69963512Y-43553927D02*
G01*
X70112812Y-43583624D01*
X70276784Y-43651544D01*
X70424354Y-43750147D01*
X70549853Y-43875646D01*
X70648456Y-44023216D01*
X70716376Y-44187188D01*
X70751000Y-44361259D01*
X70751000Y-44538741D01*
X70716376Y-44712812D01*
X70648456Y-44876784D01*
X70549853Y-45024354D01*
X70424354Y-45149853D01*
X70276784Y-45248456D01*
X70112812Y-45316376D01*
X69963512Y-45346073D01*
X69938742Y-45351000D01*
X69761258Y-45351000D01*
X69736488Y-45346073D01*
X69587188Y-45316376D01*
X69423216Y-45248456D01*
X69275646Y-45149853D01*
X69150147Y-45024354D01*
X69051544Y-44876784D01*
X68983624Y-44712812D01*
X68949000Y-44538741D01*
X68949000Y-44361259D01*
X68983624Y-44187188D01*
X69051544Y-44023216D01*
X69150147Y-43875646D01*
X69275646Y-43750147D01*
X69423216Y-43651544D01*
X69587188Y-43583624D01*
X69736488Y-43553927D01*
X69761258Y-43549000D01*
X69938742Y-43549000D01*
X69963512Y-43553927D01*
G37*
G36*
X38348228Y-42361703D02*
G01*
X38503100Y-42425853D01*
X38642481Y-42518985D01*
X38761015Y-42637519D01*
X38854147Y-42776900D01*
X38918297Y-42931772D01*
X38951000Y-43096184D01*
X38951000Y-43263816D01*
X38918297Y-43428228D01*
X38854147Y-43583100D01*
X38761015Y-43722481D01*
X38642481Y-43841015D01*
X38503100Y-43934147D01*
X38348228Y-43998297D01*
X38183816Y-44031000D01*
X38016184Y-44031000D01*
X37851772Y-43998297D01*
X37696900Y-43934147D01*
X37557519Y-43841015D01*
X37438985Y-43722481D01*
X37345853Y-43583100D01*
X37281703Y-43428228D01*
X37249000Y-43263816D01*
X37249000Y-43096184D01*
X37281703Y-42931772D01*
X37345853Y-42776900D01*
X37438985Y-42637519D01*
X37557519Y-42518985D01*
X37696900Y-42425853D01*
X37851772Y-42361703D01*
X38016184Y-42329000D01*
X38183816Y-42329000D01*
X38348228Y-42361703D01*
G37*
G36*
X53588228Y-42361703D02*
G01*
X53743100Y-42425853D01*
X53882481Y-42518985D01*
X54001015Y-42637519D01*
X54094147Y-42776900D01*
X54158297Y-42931772D01*
X54191000Y-43096184D01*
X54191000Y-43263816D01*
X54158297Y-43428228D01*
X54094147Y-43583100D01*
X54001015Y-43722481D01*
X53882481Y-43841015D01*
X53743100Y-43934147D01*
X53588228Y-43998297D01*
X53423816Y-44031000D01*
X53256184Y-44031000D01*
X53091772Y-43998297D01*
X52936900Y-43934147D01*
X52797519Y-43841015D01*
X52678985Y-43722481D01*
X52585853Y-43583100D01*
X52521703Y-43428228D01*
X52489000Y-43263816D01*
X52489000Y-43096184D01*
X52521703Y-42931772D01*
X52585853Y-42776900D01*
X52678985Y-42637519D01*
X52797519Y-42518985D01*
X52936900Y-42425853D01*
X53091772Y-42361703D01*
X53256184Y-42329000D01*
X53423816Y-42329000D01*
X53588228Y-42361703D01*
G37*
G36*
X51048228Y-42361703D02*
G01*
X51203100Y-42425853D01*
X51342481Y-42518985D01*
X51461015Y-42637519D01*
X51554147Y-42776900D01*
X51618297Y-42931772D01*
X51651000Y-43096184D01*
X51651000Y-43263816D01*
X51618297Y-43428228D01*
X51554147Y-43583100D01*
X51461015Y-43722481D01*
X51342481Y-43841015D01*
X51203100Y-43934147D01*
X51048228Y-43998297D01*
X50883816Y-44031000D01*
X50716184Y-44031000D01*
X50551772Y-43998297D01*
X50396900Y-43934147D01*
X50257519Y-43841015D01*
X50138985Y-43722481D01*
X50045853Y-43583100D01*
X49981703Y-43428228D01*
X49949000Y-43263816D01*
X49949000Y-43096184D01*
X49981703Y-42931772D01*
X50045853Y-42776900D01*
X50138985Y-42637519D01*
X50257519Y-42518985D01*
X50396900Y-42425853D01*
X50551772Y-42361703D01*
X50716184Y-42329000D01*
X50883816Y-42329000D01*
X51048228Y-42361703D01*
G37*
G36*
X66288228Y-42361703D02*
G01*
X66443100Y-42425853D01*
X66582481Y-42518985D01*
X66701015Y-42637519D01*
X66794147Y-42776900D01*
X66858297Y-42931772D01*
X66891000Y-43096184D01*
X66891000Y-43263816D01*
X66858297Y-43428228D01*
X66794147Y-43583100D01*
X66701015Y-43722481D01*
X66582481Y-43841015D01*
X66443100Y-43934147D01*
X66288228Y-43998297D01*
X66123816Y-44031000D01*
X65956184Y-44031000D01*
X65791772Y-43998297D01*
X65636900Y-43934147D01*
X65497519Y-43841015D01*
X65378985Y-43722481D01*
X65285853Y-43583100D01*
X65221703Y-43428228D01*
X65189000Y-43263816D01*
X65189000Y-43096184D01*
X65221703Y-42931772D01*
X65285853Y-42776900D01*
X65378985Y-42637519D01*
X65497519Y-42518985D01*
X65636900Y-42425853D01*
X65791772Y-42361703D01*
X65956184Y-42329000D01*
X66123816Y-42329000D01*
X66288228Y-42361703D01*
G37*
G36*
X69963512Y-41013927D02*
G01*
X70112812Y-41043624D01*
X70276784Y-41111544D01*
X70424354Y-41210147D01*
X70549853Y-41335646D01*
X70648456Y-41483216D01*
X70716376Y-41647188D01*
X70751000Y-41821259D01*
X70751000Y-41998741D01*
X70716376Y-42172812D01*
X70648456Y-42336784D01*
X70549853Y-42484354D01*
X70424354Y-42609853D01*
X70276784Y-42708456D01*
X70112812Y-42776376D01*
X69963512Y-42806073D01*
X69938742Y-42811000D01*
X69761258Y-42811000D01*
X69736488Y-42806073D01*
X69587188Y-42776376D01*
X69423216Y-42708456D01*
X69275646Y-42609853D01*
X69150147Y-42484354D01*
X69051544Y-42336784D01*
X68983624Y-42172812D01*
X68949000Y-41998741D01*
X68949000Y-41821259D01*
X68983624Y-41647188D01*
X69051544Y-41483216D01*
X69150147Y-41335646D01*
X69275646Y-41210147D01*
X69423216Y-41111544D01*
X69587188Y-41043624D01*
X69736488Y-41013927D01*
X69761258Y-41009000D01*
X69938742Y-41009000D01*
X69963512Y-41013927D01*
G37*
G36*
X47103512Y-41013927D02*
G01*
X47252812Y-41043624D01*
X47416784Y-41111544D01*
X47564354Y-41210147D01*
X47689853Y-41335646D01*
X47788456Y-41483216D01*
X47856376Y-41647188D01*
X47891000Y-41821259D01*
X47891000Y-41998741D01*
X47856376Y-42172812D01*
X47788456Y-42336784D01*
X47689853Y-42484354D01*
X47564354Y-42609853D01*
X47416784Y-42708456D01*
X47252812Y-42776376D01*
X47103512Y-42806073D01*
X47078742Y-42811000D01*
X46901258Y-42811000D01*
X46876488Y-42806073D01*
X46727188Y-42776376D01*
X46563216Y-42708456D01*
X46415646Y-42609853D01*
X46290147Y-42484354D01*
X46191544Y-42336784D01*
X46123624Y-42172812D01*
X46089000Y-41998741D01*
X46089000Y-41821259D01*
X46123624Y-41647188D01*
X46191544Y-41483216D01*
X46290147Y-41335646D01*
X46415646Y-41210147D01*
X46563216Y-41111544D01*
X46727188Y-41043624D01*
X46876488Y-41013927D01*
X46901258Y-41009000D01*
X47078742Y-41009000D01*
X47103512Y-41013927D01*
G37*
G36*
X38348228Y-39821703D02*
G01*
X38503100Y-39885853D01*
X38642481Y-39978985D01*
X38761015Y-40097519D01*
X38854147Y-40236900D01*
X38918297Y-40391772D01*
X38951000Y-40556184D01*
X38951000Y-40723816D01*
X38918297Y-40888228D01*
X38854147Y-41043100D01*
X38761015Y-41182481D01*
X38642481Y-41301015D01*
X38503100Y-41394147D01*
X38348228Y-41458297D01*
X38183816Y-41491000D01*
X38016184Y-41491000D01*
X37851772Y-41458297D01*
X37696900Y-41394147D01*
X37557519Y-41301015D01*
X37438985Y-41182481D01*
X37345853Y-41043100D01*
X37281703Y-40888228D01*
X37249000Y-40723816D01*
X37249000Y-40556184D01*
X37281703Y-40391772D01*
X37345853Y-40236900D01*
X37438985Y-40097519D01*
X37557519Y-39978985D01*
X37696900Y-39885853D01*
X37851772Y-39821703D01*
X38016184Y-39789000D01*
X38183816Y-39789000D01*
X38348228Y-39821703D01*
G37*
G36*
X66288228Y-39821703D02*
G01*
X66443100Y-39885853D01*
X66582481Y-39978985D01*
X66701015Y-40097519D01*
X66794147Y-40236900D01*
X66858297Y-40391772D01*
X66891000Y-40556184D01*
X66891000Y-40723816D01*
X66858297Y-40888228D01*
X66794147Y-41043100D01*
X66701015Y-41182481D01*
X66582481Y-41301015D01*
X66443100Y-41394147D01*
X66288228Y-41458297D01*
X66123816Y-41491000D01*
X65956184Y-41491000D01*
X65791772Y-41458297D01*
X65636900Y-41394147D01*
X65497519Y-41301015D01*
X65378985Y-41182481D01*
X65285853Y-41043100D01*
X65221703Y-40888228D01*
X65189000Y-40723816D01*
X65189000Y-40556184D01*
X65221703Y-40391772D01*
X65285853Y-40236900D01*
X65378985Y-40097519D01*
X65497519Y-39978985D01*
X65636900Y-39885853D01*
X65791772Y-39821703D01*
X65956184Y-39789000D01*
X66123816Y-39789000D01*
X66288228Y-39821703D01*
G37*
G36*
X51048228Y-39821703D02*
G01*
X51203100Y-39885853D01*
X51342481Y-39978985D01*
X51461015Y-40097519D01*
X51554147Y-40236900D01*
X51618297Y-40391772D01*
X51651000Y-40556184D01*
X51651000Y-40723816D01*
X51618297Y-40888228D01*
X51554147Y-41043100D01*
X51461015Y-41182481D01*
X51342481Y-41301015D01*
X51203100Y-41394147D01*
X51048228Y-41458297D01*
X50883816Y-41491000D01*
X50716184Y-41491000D01*
X50551772Y-41458297D01*
X50396900Y-41394147D01*
X50257519Y-41301015D01*
X50138985Y-41182481D01*
X50045853Y-41043100D01*
X49981703Y-40888228D01*
X49949000Y-40723816D01*
X49949000Y-40556184D01*
X49981703Y-40391772D01*
X50045853Y-40236900D01*
X50138985Y-40097519D01*
X50257519Y-39978985D01*
X50396900Y-39885853D01*
X50551772Y-39821703D01*
X50716184Y-39789000D01*
X50883816Y-39789000D01*
X51048228Y-39821703D01*
G37*
G36*
X53588228Y-39821703D02*
G01*
X53743100Y-39885853D01*
X53882481Y-39978985D01*
X54001015Y-40097519D01*
X54094147Y-40236900D01*
X54158297Y-40391772D01*
X54191000Y-40556184D01*
X54191000Y-40723816D01*
X54158297Y-40888228D01*
X54094147Y-41043100D01*
X54001015Y-41182481D01*
X53882481Y-41301015D01*
X53743100Y-41394147D01*
X53588228Y-41458297D01*
X53423816Y-41491000D01*
X53256184Y-41491000D01*
X53091772Y-41458297D01*
X52936900Y-41394147D01*
X52797519Y-41301015D01*
X52678985Y-41182481D01*
X52585853Y-41043100D01*
X52521703Y-40888228D01*
X52489000Y-40723816D01*
X52489000Y-40556184D01*
X52521703Y-40391772D01*
X52585853Y-40236900D01*
X52678985Y-40097519D01*
X52797519Y-39978985D01*
X52936900Y-39885853D01*
X53091772Y-39821703D01*
X53256184Y-39789000D01*
X53423816Y-39789000D01*
X53588228Y-39821703D01*
G37*
G36*
X47103512Y-38473927D02*
G01*
X47252812Y-38503624D01*
X47416784Y-38571544D01*
X47564354Y-38670147D01*
X47689853Y-38795646D01*
X47788456Y-38943216D01*
X47856376Y-39107188D01*
X47891000Y-39281259D01*
X47891000Y-39458741D01*
X47856376Y-39632812D01*
X47788456Y-39796784D01*
X47689853Y-39944354D01*
X47564354Y-40069853D01*
X47416784Y-40168456D01*
X47252812Y-40236376D01*
X47103512Y-40266073D01*
X47078742Y-40271000D01*
X46901258Y-40271000D01*
X46876488Y-40266073D01*
X46727188Y-40236376D01*
X46563216Y-40168456D01*
X46415646Y-40069853D01*
X46290147Y-39944354D01*
X46191544Y-39796784D01*
X46123624Y-39632812D01*
X46089000Y-39458741D01*
X46089000Y-39281259D01*
X46123624Y-39107188D01*
X46191544Y-38943216D01*
X46290147Y-38795646D01*
X46415646Y-38670147D01*
X46563216Y-38571544D01*
X46727188Y-38503624D01*
X46876488Y-38473927D01*
X46901258Y-38469000D01*
X47078742Y-38469000D01*
X47103512Y-38473927D01*
G37*
G36*
X69963512Y-38473927D02*
G01*
X70112812Y-38503624D01*
X70276784Y-38571544D01*
X70424354Y-38670147D01*
X70549853Y-38795646D01*
X70648456Y-38943216D01*
X70716376Y-39107188D01*
X70751000Y-39281259D01*
X70751000Y-39458741D01*
X70716376Y-39632812D01*
X70648456Y-39796784D01*
X70549853Y-39944354D01*
X70424354Y-40069853D01*
X70276784Y-40168456D01*
X70112812Y-40236376D01*
X69963512Y-40266073D01*
X69938742Y-40271000D01*
X69761258Y-40271000D01*
X69736488Y-40266073D01*
X69587188Y-40236376D01*
X69423216Y-40168456D01*
X69275646Y-40069853D01*
X69150147Y-39944354D01*
X69051544Y-39796784D01*
X68983624Y-39632812D01*
X68949000Y-39458741D01*
X68949000Y-39281259D01*
X68983624Y-39107188D01*
X69051544Y-38943216D01*
X69150147Y-38795646D01*
X69275646Y-38670147D01*
X69423216Y-38571544D01*
X69587188Y-38503624D01*
X69736488Y-38473927D01*
X69761258Y-38469000D01*
X69938742Y-38469000D01*
X69963512Y-38473927D01*
G37*
G36*
X38348228Y-37281703D02*
G01*
X38503100Y-37345853D01*
X38642481Y-37438985D01*
X38761015Y-37557519D01*
X38854147Y-37696900D01*
X38918297Y-37851772D01*
X38951000Y-38016184D01*
X38951000Y-38183816D01*
X38918297Y-38348228D01*
X38854147Y-38503100D01*
X38761015Y-38642481D01*
X38642481Y-38761015D01*
X38503100Y-38854147D01*
X38348228Y-38918297D01*
X38183816Y-38951000D01*
X38016184Y-38951000D01*
X37851772Y-38918297D01*
X37696900Y-38854147D01*
X37557519Y-38761015D01*
X37438985Y-38642481D01*
X37345853Y-38503100D01*
X37281703Y-38348228D01*
X37249000Y-38183816D01*
X37249000Y-38016184D01*
X37281703Y-37851772D01*
X37345853Y-37696900D01*
X37438985Y-37557519D01*
X37557519Y-37438985D01*
X37696900Y-37345853D01*
X37851772Y-37281703D01*
X38016184Y-37249000D01*
X38183816Y-37249000D01*
X38348228Y-37281703D01*
G37*
G36*
X53588228Y-37281703D02*
G01*
X53743100Y-37345853D01*
X53882481Y-37438985D01*
X54001015Y-37557519D01*
X54094147Y-37696900D01*
X54158297Y-37851772D01*
X54191000Y-38016184D01*
X54191000Y-38183816D01*
X54158297Y-38348228D01*
X54094147Y-38503100D01*
X54001015Y-38642481D01*
X53882481Y-38761015D01*
X53743100Y-38854147D01*
X53588228Y-38918297D01*
X53423816Y-38951000D01*
X53256184Y-38951000D01*
X53091772Y-38918297D01*
X52936900Y-38854147D01*
X52797519Y-38761015D01*
X52678985Y-38642481D01*
X52585853Y-38503100D01*
X52521703Y-38348228D01*
X52489000Y-38183816D01*
X52489000Y-38016184D01*
X52521703Y-37851772D01*
X52585853Y-37696900D01*
X52678985Y-37557519D01*
X52797519Y-37438985D01*
X52936900Y-37345853D01*
X53091772Y-37281703D01*
X53256184Y-37249000D01*
X53423816Y-37249000D01*
X53588228Y-37281703D01*
G37*
G36*
X51048228Y-37281703D02*
G01*
X51203100Y-37345853D01*
X51342481Y-37438985D01*
X51461015Y-37557519D01*
X51554147Y-37696900D01*
X51618297Y-37851772D01*
X51651000Y-38016184D01*
X51651000Y-38183816D01*
X51618297Y-38348228D01*
X51554147Y-38503100D01*
X51461015Y-38642481D01*
X51342481Y-38761015D01*
X51203100Y-38854147D01*
X51048228Y-38918297D01*
X50883816Y-38951000D01*
X50716184Y-38951000D01*
X50551772Y-38918297D01*
X50396900Y-38854147D01*
X50257519Y-38761015D01*
X50138985Y-38642481D01*
X50045853Y-38503100D01*
X49981703Y-38348228D01*
X49949000Y-38183816D01*
X49949000Y-38016184D01*
X49981703Y-37851772D01*
X50045853Y-37696900D01*
X50138985Y-37557519D01*
X50257519Y-37438985D01*
X50396900Y-37345853D01*
X50551772Y-37281703D01*
X50716184Y-37249000D01*
X50883816Y-37249000D01*
X51048228Y-37281703D01*
G37*
G36*
X66288228Y-37281703D02*
G01*
X66443100Y-37345853D01*
X66582481Y-37438985D01*
X66701015Y-37557519D01*
X66794147Y-37696900D01*
X66858297Y-37851772D01*
X66891000Y-38016184D01*
X66891000Y-38183816D01*
X66858297Y-38348228D01*
X66794147Y-38503100D01*
X66701015Y-38642481D01*
X66582481Y-38761015D01*
X66443100Y-38854147D01*
X66288228Y-38918297D01*
X66123816Y-38951000D01*
X65956184Y-38951000D01*
X65791772Y-38918297D01*
X65636900Y-38854147D01*
X65497519Y-38761015D01*
X65378985Y-38642481D01*
X65285853Y-38503100D01*
X65221703Y-38348228D01*
X65189000Y-38183816D01*
X65189000Y-38016184D01*
X65221703Y-37851772D01*
X65285853Y-37696900D01*
X65378985Y-37557519D01*
X65497519Y-37438985D01*
X65636900Y-37345853D01*
X65791772Y-37281703D01*
X65956184Y-37249000D01*
X66123816Y-37249000D01*
X66288228Y-37281703D01*
G37*
G36*
X69963512Y-35933927D02*
G01*
X70112812Y-35963624D01*
X70276784Y-36031544D01*
X70424354Y-36130147D01*
X70549853Y-36255646D01*
X70648456Y-36403216D01*
X70716376Y-36567188D01*
X70751000Y-36741259D01*
X70751000Y-36918741D01*
X70716376Y-37092812D01*
X70648456Y-37256784D01*
X70549853Y-37404354D01*
X70424354Y-37529853D01*
X70276784Y-37628456D01*
X70112812Y-37696376D01*
X69963512Y-37726073D01*
X69938742Y-37731000D01*
X69761258Y-37731000D01*
X69736488Y-37726073D01*
X69587188Y-37696376D01*
X69423216Y-37628456D01*
X69275646Y-37529853D01*
X69150147Y-37404354D01*
X69051544Y-37256784D01*
X68983624Y-37092812D01*
X68949000Y-36918741D01*
X68949000Y-36741259D01*
X68983624Y-36567188D01*
X69051544Y-36403216D01*
X69150147Y-36255646D01*
X69275646Y-36130147D01*
X69423216Y-36031544D01*
X69587188Y-35963624D01*
X69736488Y-35933927D01*
X69761258Y-35929000D01*
X69938742Y-35929000D01*
X69963512Y-35933927D01*
G37*
G36*
X47891000Y-37731000D02*
G01*
X46089000Y-37731000D01*
X46089000Y-35929000D01*
X47891000Y-35929000D01*
X47891000Y-37731000D01*
G37*
G36*
X57670000Y-36461000D02*
G01*
X55868000Y-36461000D01*
X55868000Y-34659000D01*
X57670000Y-34659000D01*
X57670000Y-36461000D01*
G37*
G36*
X51651000Y-36411000D02*
G01*
X49949000Y-36411000D01*
X49949000Y-34709000D01*
X51651000Y-34709000D01*
X51651000Y-36411000D01*
G37*
G36*
X66288228Y-34741703D02*
G01*
X66443100Y-34805853D01*
X66582481Y-34898985D01*
X66701015Y-35017519D01*
X66794147Y-35156900D01*
X66858297Y-35311772D01*
X66891000Y-35476184D01*
X66891000Y-35643816D01*
X66858297Y-35808228D01*
X66794147Y-35963100D01*
X66701015Y-36102481D01*
X66582481Y-36221015D01*
X66443100Y-36314147D01*
X66288228Y-36378297D01*
X66123816Y-36411000D01*
X65956184Y-36411000D01*
X65791772Y-36378297D01*
X65636900Y-36314147D01*
X65497519Y-36221015D01*
X65378985Y-36102481D01*
X65285853Y-35963100D01*
X65221703Y-35808228D01*
X65189000Y-35643816D01*
X65189000Y-35476184D01*
X65221703Y-35311772D01*
X65285853Y-35156900D01*
X65378985Y-35017519D01*
X65497519Y-34898985D01*
X65636900Y-34805853D01*
X65791772Y-34741703D01*
X65956184Y-34709000D01*
X66123816Y-34709000D01*
X66288228Y-34741703D01*
G37*
G36*
X53588228Y-34741703D02*
G01*
X53743100Y-34805853D01*
X53882481Y-34898985D01*
X54001015Y-35017519D01*
X54094147Y-35156900D01*
X54158297Y-35311772D01*
X54191000Y-35476184D01*
X54191000Y-35643816D01*
X54158297Y-35808228D01*
X54094147Y-35963100D01*
X54001015Y-36102481D01*
X53882481Y-36221015D01*
X53743100Y-36314147D01*
X53588228Y-36378297D01*
X53423816Y-36411000D01*
X53256184Y-36411000D01*
X53091772Y-36378297D01*
X52936900Y-36314147D01*
X52797519Y-36221015D01*
X52678985Y-36102481D01*
X52585853Y-35963100D01*
X52521703Y-35808228D01*
X52489000Y-35643816D01*
X52489000Y-35476184D01*
X52521703Y-35311772D01*
X52585853Y-35156900D01*
X52678985Y-35017519D01*
X52797519Y-34898985D01*
X52936900Y-34805853D01*
X53091772Y-34741703D01*
X53256184Y-34709000D01*
X53423816Y-34709000D01*
X53588228Y-34741703D01*
G37*
G36*
X38951000Y-36411000D02*
G01*
X37249000Y-36411000D01*
X37249000Y-34709000D01*
X38951000Y-34709000D01*
X38951000Y-36411000D01*
G37*
M02*
