%FSLAX45Y45*%
G04 Gerber Fmt 4.5, Leading zero omitted, Abs format (unit mm)*
G04 Created by KiCad (PCBNEW (5.1.5)-3) date 2020-05-12 20:02:41*
%MOMM*%
%LPD*%
G04 APERTURE LIST*
%TA.AperFunction,Profile*%
%ADD10C,0.050000*%
%TD*%
%ADD11C,0.200000*%
%ADD12C,0.300000*%
G04 APERTURE END LIST*
D10*
X7302500Y-8483600D02*
X7302500Y-8362950D01*
X3708400Y-8483600D02*
X3708400Y-3454400D01*
X3708400Y-8483600D02*
X7302500Y-8483600D01*
X7302500Y-3454400D02*
X7302500Y-8362950D01*
X3708400Y-3454400D02*
X7302500Y-3454400D01*
D11*
D12*
X3846428Y-9097714D02*
X3846428Y-8797714D01*
X3917857Y-8797714D01*
X3960714Y-8812000D01*
X3989286Y-8840571D01*
X4003571Y-8869143D01*
X4017857Y-8926286D01*
X4017857Y-8969143D01*
X4003571Y-9026286D01*
X3989286Y-9054857D01*
X3960714Y-9083429D01*
X3917857Y-9097714D01*
X3846428Y-9097714D01*
X4146428Y-9097714D02*
X4146428Y-8897714D01*
X4146428Y-8954857D02*
X4160714Y-8926286D01*
X4175000Y-8912000D01*
X4203571Y-8897714D01*
X4232143Y-8897714D01*
X4332143Y-9097714D02*
X4332143Y-8897714D01*
X4332143Y-8797714D02*
X4317857Y-8812000D01*
X4332143Y-8826286D01*
X4346429Y-8812000D01*
X4332143Y-8797714D01*
X4332143Y-8826286D01*
X4517857Y-9097714D02*
X4489286Y-9083429D01*
X4475000Y-9054857D01*
X4475000Y-8797714D01*
X4675000Y-9097714D02*
X4646429Y-9083429D01*
X4632143Y-9054857D01*
X4632143Y-8797714D01*
X5017857Y-9097714D02*
X5017857Y-8797714D01*
X5117857Y-9012000D01*
X5217857Y-8797714D01*
X5217857Y-9097714D01*
X5489286Y-9097714D02*
X5489286Y-8940571D01*
X5475000Y-8912000D01*
X5446429Y-8897714D01*
X5389286Y-8897714D01*
X5360714Y-8912000D01*
X5489286Y-9083429D02*
X5460714Y-9097714D01*
X5389286Y-9097714D01*
X5360714Y-9083429D01*
X5346429Y-9054857D01*
X5346429Y-9026286D01*
X5360714Y-8997714D01*
X5389286Y-8983429D01*
X5460714Y-8983429D01*
X5489286Y-8969143D01*
X5632143Y-8897714D02*
X5632143Y-9197714D01*
X5632143Y-8912000D02*
X5660714Y-8897714D01*
X5717857Y-8897714D01*
X5746428Y-8912000D01*
X5760714Y-8926286D01*
X5775000Y-8954857D01*
X5775000Y-9040571D01*
X5760714Y-9069143D01*
X5746428Y-9083429D01*
X5717857Y-9097714D01*
X5660714Y-9097714D01*
X5632143Y-9083429D01*
X5903571Y-9069143D02*
X5917857Y-9083429D01*
X5903571Y-9097714D01*
X5889286Y-9083429D01*
X5903571Y-9069143D01*
X5903571Y-9097714D01*
X5903571Y-8912000D02*
X5917857Y-8926286D01*
X5903571Y-8940571D01*
X5889286Y-8926286D01*
X5903571Y-8912000D01*
X5903571Y-8940571D01*
M02*
