M48
; DRILL file {KiCad (5.1.5)-3} date 5/12/2020 8:02:40 PM
; FORMAT={-:-/ absolute / inch / decimal}
; #@! TF.CreationDate,2020-05-12T20:02:40-04:00
; #@! TF.GenerationSoftware,Kicad,Pcbnew,(5.1.5)-3
; #@! TF.FileFunction,Plated,1,4,PTH
FMAT,2
INCH
T1C0.0118
T2C0.0157
T3C0.0315
T4C0.0394
%
G90
G05
T1
X1.5775Y-1.7275
X1.5825Y-1.86
X1.5825Y-2.9325
X1.5832Y-2.1386
X1.5832Y-2.8293
X1.6075Y-1.865
X1.6075Y-3.0
X1.6088Y-3.1411
X1.635Y-1.4
X1.66Y-3.075
X1.685Y-1.725
X1.7025Y-2.175
X1.7075Y-2.825
X1.7125Y-2.9325
X1.735Y-3.075
X1.74Y-2.05
X1.7425Y-3.165
X1.775Y-1.7
X1.8001Y-1.9751
X1.8001Y-2.8749
X1.9Y-2.225
X1.9425Y-3.025
X1.9425Y-3.125
X1.945Y-1.875
X2.1475Y-2.225
X2.1525Y-2.615
X2.1569Y-2.7494
X2.1675Y-1.6125
X2.1725Y-1.8275
X2.1775Y-2.45
X2.185Y-2.93
X2.1958Y-1.8742
X2.2025Y-2.035
X2.2025Y-2.0625
X2.2025Y-3.1
X2.205Y-1.535
X2.205Y-2.325
X2.205Y-2.6625
X2.23Y-2.1375
X2.23Y-2.275
X2.2525Y-2.535
X2.2525Y-3.175
X2.255Y-2.1625
X2.2625Y-2.475
X2.2702Y-1.561
X2.2775Y-1.8275
X2.2875Y-2.04
X2.29Y-2.35
X2.2925Y-2.9275
X2.305Y-1.85
X2.315Y-2.4
X2.315Y-2.6375
X2.3301Y-2.1299
X2.335Y-1.4475
X2.34Y-2.5
X2.3425Y-3.2475
X2.355Y-2.075
X2.365Y-2.8
X2.37Y-3.175
X2.38Y-1.9
X2.3825Y-2.9325
X2.39Y-2.7
X2.39Y-2.725
X2.4Y-3.3
X2.405Y-1.7251
X2.405Y-1.925
X2.415Y-2.53
X2.435Y-2.6125
X2.435Y-2.6625
X2.435Y-3.075
X2.4375Y-1.535
X2.4375Y-1.745
X2.4375Y-1.825
X2.4375Y-2.035
X2.4375Y-2.2425
X2.4375Y-3.175
X2.4425Y-2.535
X2.4775Y-2.56
X2.485Y-2.7425
X2.485Y-3.025
X2.4875Y-1.6375
X2.4875Y-1.6625
X2.495Y-2.9275
X2.5175Y-1.825
X2.5175Y-2.825
X2.5244Y-2.665
X2.525Y-1.725
X2.5275Y-2.2396
X2.5275Y-2.6
X2.545Y-1.875
X2.5508Y-2.8242
X2.5521Y-2.4754
X2.5525Y-2.325
X2.623Y-2.65
X2.6525Y-2.005
X2.655Y-3.22
X2.6575Y-1.445
X2.6775Y-1.605
X2.695Y-3.11
X2.6971Y-2.1554
X2.7221Y-2.3999
X2.7231Y-2.5969
X2.7741Y-2.5999
X2.7744Y-2.4006
X2.7999Y-1.6851
X2.824Y-2.781
X2.8248Y-1.7152
X2.8498Y-1.7377
T2
X1.9475Y-1.55
X2.2125Y-2.3625
X2.685Y-1.935
T3
X1.5Y-1.4
X1.5Y-1.5
X1.5Y-1.6
X1.5Y-1.7
X1.5Y-1.8
X1.5Y-1.9
X1.5Y-2.0
X1.5Y-2.1
X1.5Y-2.2
X1.5Y-2.3
X1.5Y-2.4
X1.5Y-2.5
X1.5Y-2.6
X1.5Y-2.7
X1.5Y-2.8
X1.5Y-2.9
X1.5Y-3.0
X1.5Y-3.1
X1.5Y-3.2
X1.5Y-3.3
X2.1Y-1.4
X2.1Y-1.5
X2.1Y-1.6
X2.1Y-1.7
X2.1Y-1.8
X2.1Y-1.9
X2.1Y-2.0
X2.1Y-2.1
X2.1Y-2.2
X2.1Y-2.3
X2.1Y-2.4
X2.1Y-2.5
X2.1Y-2.6
X2.1Y-2.7
X2.1Y-2.8
X2.1Y-2.9
X2.1Y-3.0
X2.1Y-3.1
X2.1Y-3.2
X2.1Y-3.3
X2.0Y-1.4
X2.0Y-1.5
X2.0Y-1.6
X2.0Y-1.7
X2.0Y-1.8
X2.0Y-1.9
X2.0Y-2.0
X2.0Y-2.1
X2.0Y-2.2
X2.0Y-2.3
X2.0Y-2.4
X2.0Y-2.5
X2.0Y-2.6
X2.0Y-2.7
X2.0Y-2.8
X2.0Y-2.9
X2.0Y-3.0
X2.0Y-3.1
X2.0Y-3.2
X2.0Y-3.3
X2.6Y-1.4
X2.6Y-1.5
X2.6Y-1.6
X2.6Y-1.7
X2.6Y-1.8
X2.6Y-1.9
X2.6Y-2.0
X2.6Y-2.1
X2.6Y-2.2
X2.6Y-2.3
X2.6Y-2.4
X2.6Y-2.5
X2.6Y-2.6
X2.6Y-2.7
X2.6Y-2.8
X2.6Y-2.9
X2.6Y-3.0
X2.6Y-3.1
X2.6Y-3.2
X2.6Y-3.3
T4
X2.838Y-2.909
X2.838Y-3.303
X2.235Y-1.4
X2.838Y-3.206
X1.85Y-1.45
X1.85Y-1.55
X1.85Y-1.65
X1.85Y-1.75
X1.85Y-1.85
X1.85Y-1.95
X1.85Y-2.05
X1.85Y-2.15
X1.85Y-2.25
X1.85Y-2.35
X1.85Y-2.45
X1.85Y-2.55
X1.85Y-2.65
X1.85Y-2.75
X1.85Y-2.85
X1.85Y-2.95
X1.85Y-3.05
X1.85Y-3.15
X1.85Y-3.25
X2.75Y-1.45
X2.75Y-1.55
X2.75Y-1.65
X2.75Y-1.75
X2.75Y-1.85
X2.75Y-1.95
X2.75Y-2.05
X2.75Y-2.15
X2.75Y-2.25
X2.75Y-2.35
X2.75Y-2.45
X2.75Y-2.55
X2.75Y-2.65
X2.75Y-2.75
X2.75Y-2.85
X2.75Y-2.95
X2.75Y-3.05
X2.75Y-3.15
X2.75Y-3.25
X2.838Y-3.058
T0
M30
